<svg width="13" height="25" viewBox="0 0 13 25" fill="none" xmlns="http://www.w3.org/2000/svg">
<path d="M7.5 1.3851C7.5 1.83716 7.09055 2.2702 6.5 2.2702C5.90945 2.2702 5.5 1.83716 5.5 1.3851C5.5 0.933044 5.90945 0.5 6.5 0.5C7.09055 0.5 7.5 0.933044 7.5 1.3851Z" fill="#22A447" stroke="#22A447"/>
<path d="M5.96315 20.2698C6.49947 20.2362 6.97545 20.129 7.39109 19.948C7.80674 19.7603 8.15869 19.5189 8.44696 19.224C8.73523 18.9223 8.95311 18.577 9.1006 18.1882C9.24808 17.7927 9.32183 17.3703 9.32183 16.9211C9.32183 16.4787 9.23803 16.1033 9.07043 15.7949C8.90283 15.4865 8.67825 15.2251 8.39668 15.0105C8.11512 14.796 7.78998 14.6183 7.42126 14.4776C7.05925 14.3301 6.67712 14.1926 6.27489 14.0653L5.96315 20.2698ZM5.96315 7.37809C5.45365 7.40491 5.00784 7.49876 4.62572 7.65966C4.2503 7.81385 3.93521 8.01832 3.68046 8.27307C3.42571 8.52111 3.23465 8.80603 3.10728 9.12782C2.9799 9.44961 2.91621 9.78816 2.91621 10.1435C2.91621 10.5591 2.98996 10.9144 3.13744 11.2094C3.28493 11.5044 3.48605 11.7591 3.7408 11.9736C3.99555 12.1815 4.28717 12.3625 4.61566 12.5167C4.95086 12.6641 5.30617 12.8016 5.68159 12.929L5.96315 7.37809ZM6.31511 13.1301C6.79109 13.2843 7.26372 13.4485 7.73299 13.6228C8.20227 13.7904 8.62127 14.0083 8.98998 14.2764C9.3587 14.5446 9.65702 14.8764 9.88496 15.272C10.1129 15.6675 10.2269 16.167 10.2269 16.7703C10.2269 17.3468 10.1297 17.8899 9.93524 18.3994C9.74753 18.9089 9.46931 19.358 9.1006 19.7469C8.73188 20.129 8.27936 20.4374 7.74305 20.672C7.21344 20.9066 6.60673 21.0407 5.92293 21.0742L5.81232 23.196C5.80561 23.2832 5.77544 23.3569 5.72181 23.4173C5.67488 23.4776 5.60449 23.5078 5.51064 23.5078H5.14863L5.2693 21.0742C4.41119 21.034 3.6637 20.8497 3.02683 20.5212C2.39666 20.1927 1.84023 19.7603 1.35755 19.224L1.62906 18.8318C1.7095 18.7312 1.80336 18.6809 1.91062 18.6809C1.97096 18.6809 2.0447 18.7178 2.13185 18.7915C2.219 18.8653 2.32627 18.9591 2.45364 19.0731C2.58102 19.1804 2.73186 19.301 2.90616 19.4351C3.08046 19.5625 3.28158 19.6865 3.50951 19.8072C3.74415 19.9212 4.00896 20.0217 4.30393 20.1089C4.5989 20.196 4.9341 20.2497 5.30952 20.2698L5.64136 13.8642C5.1855 13.7234 4.73969 13.5692 4.30393 13.4016C3.86817 13.2273 3.47934 13.006 3.13744 12.7379C2.80225 12.463 2.53074 12.1278 2.32291 11.7323C2.11509 11.3301 2.01118 10.8273 2.01118 10.2239C2.01118 9.75464 2.09833 9.30547 2.27264 8.87642C2.45364 8.44067 2.71174 8.05519 3.04694 7.71999C3.38884 7.37809 3.80784 7.10323 4.30393 6.89541C4.80002 6.68759 5.36986 6.57362 6.01343 6.55351L6.09388 4.87417C6.09388 4.78032 6.1207 4.70322 6.17433 4.64288C6.22796 4.58255 6.29835 4.55238 6.3855 4.55238H6.74751L6.64696 6.57362C7.32405 6.62055 7.91735 6.77139 8.42685 7.02613C8.93635 7.27418 9.40227 7.60938 9.82462 8.03173L9.60339 8.37363C9.53635 8.48759 9.44585 8.54458 9.33188 8.54458C9.25144 8.54458 9.14417 8.49095 9.01009 8.38368C8.88272 8.26972 8.71177 8.14569 8.49724 8.01161C8.28942 7.87083 8.03132 7.7401 7.72294 7.61943C7.41456 7.49206 7.04249 7.41161 6.60673 7.37809L6.31511 13.1301Z" fill="#10393B"/>
</svg>
