<svg width="500" height="500" viewBox="0 0 500 500" fill="none" xmlns="http://www.w3.org/2000/svg">
<path d="M332.51 63.83C310.69 76.31 295.3 97.3 276.65 114.15C253.453 135.026 225.22 149.501 194.73 156.15C169.73 161.56 143.61 161.64 119.52 170.15C72.5199 186.64 40.3299 235.58 39.5199 285.34C38.7099 335.1 67.0199 383.34 108.63 410.62C122.801 419.915 138.315 426.981 154.63 431.57C185.23 440.18 217.68 439.8 249.3 436.51C303.92 430.82 361.18 399.8 395.61 356.07C410.957 336.525 423.928 315.226 434.25 292.62C451.302 255.449 460.987 215.326 462.77 174.47C464.22 139.47 462.77 100.67 435 75.16C407.23 49.65 365.06 45.2 332.51 63.83Z" fill="#359766"/>
<path opacity="0.7" d="M332.51 63.83C310.69 76.31 295.3 97.3 276.65 114.15C253.453 135.026 225.22 149.501 194.73 156.15C169.73 161.56 143.61 161.64 119.52 170.15C72.5199 186.64 40.3299 235.58 39.5199 285.34C38.7099 335.1 67.0199 383.34 108.63 410.62C122.801 419.915 138.315 426.981 154.63 431.57C185.23 440.18 217.68 439.8 249.3 436.51C303.92 430.82 361.18 399.8 395.61 356.07C410.957 336.525 423.928 315.226 434.25 292.62C451.302 255.449 460.987 215.326 462.77 174.47C464.22 139.47 462.77 100.67 435 75.16C407.23 49.65 365.06 45.2 332.51 63.83Z" fill="white"/>
<path d="M275.1 464.55C374.141 464.55 454.43 442.925 454.43 416.25C454.43 389.575 374.141 367.95 275.1 367.95C176.058 367.95 95.7695 389.575 95.7695 416.25C95.7695 442.925 176.058 464.55 275.1 464.55Z" fill="#359766"/>
<path opacity="0.5" d="M275.1 464.55C374.141 464.55 454.43 442.925 454.43 416.25C454.43 389.575 374.141 367.95 275.1 367.95C176.058 367.95 95.7695 389.575 95.7695 416.25C95.7695 442.925 176.058 464.55 275.1 464.55Z" fill="white"/>
<path d="M296.96 68.3H86.1297C81.1867 68.3 77.1797 72.3071 77.1797 77.25V195.44C77.1797 200.383 81.1867 204.39 86.1297 204.39H296.96C301.903 204.39 305.91 200.383 305.91 195.44V77.25C305.91 72.3071 301.903 68.3 296.96 68.3Z" fill="white"/>
<path d="M305.91 77.25V80.79H77.1797V77.25C77.1797 74.8717 78.121 72.59 79.798 70.9036C81.4751 69.2173 83.7514 68.2632 86.1297 68.25H297C298.176 68.2539 299.34 68.49 300.426 68.9448C301.511 69.3996 302.495 70.0641 303.323 70.9003C304.151 71.7364 304.805 72.7277 305.249 73.8173C305.693 74.9069 305.918 76.0735 305.91 77.25Z" fill="#359766"/>
<path d="M296.96 68.3H86.1297C81.1867 68.3 77.1797 72.3071 77.1797 77.25V195.44C77.1797 200.383 81.1867 204.39 86.1297 204.39H296.96C301.903 204.39 305.91 200.383 305.91 195.44V77.25C305.91 72.3071 301.903 68.3 296.96 68.3Z" stroke="#263238" stroke-linecap="round" stroke-linejoin="round"/>
<path d="M305.91 77.25V80.79H77.1797V77.25C77.1797 74.8717 78.121 72.59 79.798 70.9036C81.4751 69.2173 83.7514 68.2632 86.1297 68.25H297C298.176 68.2539 299.34 68.49 300.426 68.9448C301.511 69.3996 302.495 70.0641 303.323 70.9003C304.151 71.7364 304.805 72.7277 305.249 73.8173C305.693 74.9069 305.918 76.0735 305.91 77.25V77.25Z" stroke="#263238" stroke-linecap="round" stroke-linejoin="round"/>
<path d="M102.87 74.54C102.872 74.9933 102.739 75.4371 102.489 75.815C102.239 76.1929 101.882 76.488 101.463 76.6628C101.045 76.8377 100.584 76.8844 100.139 76.7972C99.6945 76.71 99.2856 76.4927 98.9643 76.1728C98.643 75.853 98.424 75.4449 98.3348 75.0005C98.2456 74.556 98.2904 74.095 98.4634 73.676C98.6364 73.257 98.9299 72.8987 99.3067 72.6466C99.6835 72.3946 100.127 72.26 100.58 72.26C101.186 72.26 101.767 72.4999 102.196 72.9272C102.625 73.3545 102.867 73.9344 102.87 74.54Z" fill="#263238"/>
<path d="M114.819 74.54C114.821 74.9933 114.689 75.4371 114.438 75.815C114.188 76.1929 113.831 76.488 113.413 76.6628C112.994 76.8377 112.534 76.8844 112.089 76.7972C111.644 76.71 111.235 76.4927 110.914 76.1728C110.592 75.853 110.373 75.4449 110.284 75.0005C110.195 74.556 110.24 74.095 110.413 73.676C110.586 73.257 110.879 72.8987 111.256 72.6466C111.633 72.3946 112.076 72.26 112.529 72.26C113.135 72.26 113.716 72.4999 114.145 72.9272C114.574 73.3545 114.817 73.9344 114.819 74.54Z" fill="#263238"/>
<path d="M124.479 76.83C125.744 76.83 126.769 75.8047 126.769 74.54C126.769 73.2753 125.744 72.25 124.479 72.25C123.215 72.25 122.189 73.2753 122.189 74.54C122.189 75.8047 123.215 76.83 124.479 76.83Z" fill="#263238"/>
<path d="M159.099 90.7001H94.4293C92.3913 90.7001 90.7393 92.3521 90.7393 94.3901V125.5C90.7393 127.538 92.3913 129.19 94.4293 129.19H159.099C161.137 129.19 162.789 127.538 162.789 125.5V94.3901C162.789 92.3521 161.137 90.7001 159.099 90.7001Z" stroke="#263238" stroke-linecap="round" stroke-linejoin="round"/>
<path d="M94.9795 124.35H157.449" stroke="#263238" stroke-linecap="round" stroke-linejoin="round"/>
<path d="M106.87 117H99.6201V124.25H106.87V117Z" fill="#359766" stroke="#263238" stroke-miterlimit="10"/>
<path d="M117.479 107.47H110.229V124.35H117.479V107.47Z" fill="#359766" stroke="#263238" stroke-miterlimit="10"/>
<path d="M129.43 110.37H122.18V124.52H129.43V110.37Z" fill="#359766" stroke="#263238" stroke-miterlimit="10"/>
<path d="M141.989 96.28H134.739V124.03H141.989V96.28Z" fill="#359766" stroke="#263238" stroke-miterlimit="10"/>
<path d="M154.54 96.5H147.29V124.25H154.54V96.5Z" fill="#359766" stroke="#263238" stroke-miterlimit="10"/>
<path d="M252.12 131.18C263.314 131.18 272.39 122.105 272.39 110.91C272.39 99.7152 263.314 90.64 252.12 90.64C240.925 90.64 231.85 99.7152 231.85 110.91C231.85 122.105 240.925 131.18 252.12 131.18Z" fill="#359766" stroke="#263238" stroke-miterlimit="10"/>
<path d="M253.779 123.55V125.63H250.379V123.55C248.983 123.212 247.748 122.399 246.886 121.249C246.025 120.099 245.591 118.685 245.659 117.25V116.31L249.509 115.89V116.89C249.509 118.82 250.509 119.99 252.079 119.99C252.42 120.018 252.763 119.973 253.084 119.856C253.406 119.739 253.698 119.554 253.941 119.314C254.184 119.074 254.373 118.783 254.493 118.463C254.614 118.143 254.664 117.801 254.639 117.46C254.639 115.61 252.909 114.02 250.869 112.33C248.449 110.33 246.039 107.95 246.039 104.59C246.039 101.23 247.619 98.9601 250.379 98.2801V96.1901H253.779V98.2601C256.569 98.9101 258.189 101.26 258.189 104.61V105.29L254.339 105.7V105C254.339 103 253.549 101.9 252.149 101.9C250.749 101.9 249.959 102.77 249.959 104.43C249.959 106.28 251.739 107.83 253.739 109.56C256.119 111.56 258.569 113.94 258.569 117.3C258.628 118.738 258.181 120.15 257.306 121.292C256.431 122.434 255.183 123.233 253.779 123.55Z" fill="#263238"/>
<path d="M89.0596 148.85H94.9796" stroke="#263238" stroke-linecap="round" stroke-linejoin="round"/>
<path d="M89.0596 160.29H94.9796" stroke="#263238" stroke-linecap="round" stroke-linejoin="round"/>
<path d="M89.0596 171.74H94.9796" stroke="#263238" stroke-linecap="round" stroke-linejoin="round"/>
<path d="M89.0596 183.18H94.9796" stroke="#263238" stroke-linecap="round" stroke-linejoin="round"/>
<path d="M108.029 191.82V187.22" stroke="#263238" stroke-linecap="round" stroke-linejoin="round"/>
<path d="M117.41 191.82V187.22" stroke="#263238" stroke-linecap="round" stroke-linejoin="round"/>
<path d="M126.79 191.82V187.22" stroke="#263238" stroke-linecap="round" stroke-linejoin="round"/>
<path d="M136.18 191.82V187.22" stroke="#263238" stroke-linecap="round" stroke-linejoin="round"/>
<path d="M145.56 191.82V187.22" stroke="#263238" stroke-linecap="round" stroke-linejoin="round"/>
<path d="M154.939 191.82V187.22" stroke="#263238" stroke-linecap="round" stroke-linejoin="round"/>
<path d="M164.319 191.82V187.22" stroke="#263238" stroke-linecap="round" stroke-linejoin="round"/>
<path d="M173.71 191.82V187.22" stroke="#263238" stroke-linecap="round" stroke-linejoin="round"/>
<path d="M183.09 191.82V187.22" stroke="#263238" stroke-linecap="round" stroke-linejoin="round"/>
<path d="M192.47 191.82V187.22" stroke="#263238" stroke-linecap="round" stroke-linejoin="round"/>
<path d="M201.85 191.82V187.22" stroke="#263238" stroke-linecap="round" stroke-linejoin="round"/>
<path d="M211.239 191.82V187.22" stroke="#263238" stroke-linecap="round" stroke-linejoin="round"/>
<path d="M220.62 191.82V187.22" stroke="#263238" stroke-linecap="round" stroke-linejoin="round"/>
<path d="M230 191.82V187.22" stroke="#263238" stroke-linecap="round" stroke-linejoin="round"/>
<path d="M239.38 191.82V187.22" stroke="#263238" stroke-linecap="round" stroke-linejoin="round"/>
<path d="M248.41 191.82V187.22" stroke="#263238" stroke-linecap="round" stroke-linejoin="round"/>
<path d="M257.439 191.82V187.22" stroke="#263238" stroke-linecap="round" stroke-linejoin="round"/>
<path d="M266.46 191.82V187.22" stroke="#263238" stroke-linecap="round" stroke-linejoin="round"/>
<path d="M290.34 141.85V186.31C290.34 189.36 287.24 191.82 283.42 191.82H96C94.8588 191.861 93.7237 191.637 92.683 191.167C91.6423 190.697 90.7241 189.993 90 189.11C89.3744 188.309 89.0237 187.327 89 186.31V141.85C89 138.85 92.1 136.34 95.92 136.34H283.42C287.24 136.34 290.34 138.8 290.34 141.85Z" stroke="#359766" stroke-linecap="round" stroke-linejoin="round"/>
<path d="M233.3 55.74L173.47 136.34L150.59 167.16L125.59 151.24L94.9996 191.82H94.5596C93.6004 191.821 92.6577 191.571 91.8246 191.096C90.9916 190.621 90.297 189.936 89.8096 189.11L124.18 143.5L149.18 159.39L166.29 136.39L228.68 52.39L233.3 55.74Z" fill="#263238"/>
<path d="M218.12 56.7601L240.11 43.4301L234.03 66.4901L230.15 55.8201L218.12 56.7601Z" fill="#263238"/>
<path d="M426.23 310.52H74.5401L35.1201 345.57" stroke="#263238" stroke-linecap="round" stroke-linejoin="round"/>
<path d="M74.7598 285.98V217.83" stroke="#263238" stroke-linecap="round" stroke-linejoin="round"/>
<path d="M74.7598 306.56V293.38" stroke="#263238" stroke-linecap="round" stroke-linejoin="round"/>
<path d="M405.06 144.72C405.06 144.72 405.06 140.6 399.29 134.84C393.52 129.08 389.82 125.78 389.82 125.78C389.82 125.78 386.93 135.25 392.29 141.02C396.227 145.085 400.499 148.811 405.06 152.16V144.72Z" fill="#359766"/>
<path d="M396.691 170.45C396.691 170.45 396.691 166.33 390.921 160.56C385.151 154.79 381.451 151.5 381.451 151.5C381.451 151.5 378.571 160.97 383.921 166.74C387.863 170.802 392.134 174.532 396.691 177.89V170.45Z" fill="#359766"/>
<path d="M404.69 151.74C404.69 151.74 405.13 147.64 411.47 142.51C417.81 137.38 421.85 134.51 421.85 134.51C421.85 134.51 423.71 144.26 417.78 149.4C413.435 153.017 408.796 156.265 403.91 159.11L404.69 151.74Z" fill="#359766"/>
<path d="M394.581 182.12C394.581 182.12 395.451 178.12 402.291 173.66C409.131 169.2 413.441 166.78 413.441 166.78C413.441 166.78 414.271 176.65 407.861 181.17C403.162 184.31 398.208 187.05 393.051 189.36L394.581 182.12Z" fill="#359766"/>
<path d="M396.49 215.23C396.49 215.23 396.49 211.11 402.25 205.35C408.01 199.59 411.72 196.29 411.72 196.29C411.72 196.29 414.61 205.77 409.25 211.53C405.319 215.6 401.051 219.33 396.49 222.68V215.23Z" fill="#359766"/>
<path d="M396.39 223.32C396.39 223.32 396.97 219.24 392.08 212.72C387.19 206.2 384 202.4 384 202.4C384 202.4 379.82 211.4 384.29 217.84C387.613 222.414 391.313 226.702 395.35 230.66L396.39 223.32Z" fill="#359766"/>
<path d="M390.7 247.27C390.7 247.27 390.7 243.16 396.47 237.39C402.24 231.62 405.94 228.39 405.94 228.39C405.94 228.39 408.83 237.86 403.47 243.62C399.534 247.688 395.262 251.418 390.7 254.77V247.27Z" fill="#359766"/>
<path d="M394.55 269C394.55 269 393.55 265 397.64 258C401.73 251 404.51 246.85 404.51 246.85C404.51 246.85 409.69 255.29 405.98 262.22C403.197 267.145 400.006 271.828 396.44 276.22L394.55 269Z" fill="#359766"/>
<path d="M405.581 143.7C405.29 147.986 404.762 152.252 404.001 156.48C401.721 168.26 396.001 175.86 393.741 186.48C391.481 197.1 398.011 210.83 396.261 224.48C394.511 238.13 389.181 245.74 390.681 254.86C392.181 263.98 400.181 288.66 400.181 288.66" stroke="#263238" stroke-width="1.17749" stroke-linecap="round" stroke-linejoin="round"/>
<path d="M404.641 154.48L410.851 149.7" stroke="#263238" stroke-width="1.17749" stroke-linecap="round" stroke-linejoin="round"/>
<path d="M404.92 148.99L402.33 144.36" stroke="#263238" stroke-width="1.17749" stroke-linecap="round" stroke-linejoin="round"/>
<path d="M394.091 186C394.091 186 399.291 182.09 404.641 178.19" stroke="#263238" stroke-width="1.17749" stroke-linecap="round" stroke-linejoin="round"/>
<path d="M396.69 177.84C396.69 177.84 392.35 169.34 387.44 163.7" stroke="#263238" stroke-width="1.17749" stroke-linecap="round" stroke-linejoin="round"/>
<path d="M396.69 221.09C399.67 215.618 403.425 210.606 407.84 206.21" stroke="#263238" stroke-width="1.17749" stroke-linecap="round" stroke-linejoin="round"/>
<path d="M395.681 226.87C394.086 223.15 392.186 219.567 390.001 216.16C387.001 211.68 386.521 211.1 386.521 211.1" stroke="#263238" stroke-width="1.17749" stroke-linecap="round" stroke-linejoin="round"/>
<path d="M390.7 254.85C392.021 251.576 393.589 248.406 395.39 245.37C397.189 242.543 399.216 239.867 401.45 237.37" stroke="#263238" stroke-width="1.17749" stroke-linecap="round" stroke-linejoin="round"/>
<path d="M396.43 276.17C396.129 273.045 396.667 269.897 397.99 267.05C400.16 262.86 402.61 257.36 403.63 255.2" stroke="#263238" stroke-width="1.17749" stroke-linecap="round" stroke-linejoin="round"/>
<path d="M367.3 199.74C367.3 199.74 366.85 197.17 369.84 192.92C372.83 188.67 374.84 186.2 374.84 186.2C374.84 186.2 377.67 191.82 374.94 196.02C372.912 198.993 370.638 201.789 368.14 204.38L367.3 199.74Z" fill="#359766"/>
<path d="M375.34 215C375.34 215 374.891 212.41 377.881 208.17C380.871 203.93 382.881 201.46 382.881 201.46C382.881 201.46 385.711 207.09 382.981 211.28C380.955 214.254 378.68 217.051 376.18 219.64L375.34 215Z" fill="#359766"/>
<path d="M368.29 204.1C368.29 204.1 367.59 201.58 363.04 199.1C358.49 196.62 355.66 195.2 355.66 195.2C355.66 195.2 355.55 201.47 359.84 204.1C362.956 205.897 366.218 207.43 369.59 208.68L368.29 204.1Z" fill="#359766"/>
<path d="M377.931 222.05C377.931 222.05 376.931 219.62 372.171 217.59C367.411 215.56 364.421 214.49 364.421 214.49C364.421 214.49 364.971 220.76 369.501 222.9C372.79 224.358 376.195 225.539 379.681 226.43L377.931 222.05Z" fill="#359766"/>
<path d="M380.33 243C380.33 243 379.88 240.42 375.64 237.43C371.4 234.44 368.71 232.77 368.71 232.77C368.71 232.77 367.93 239.04 371.92 242.06C374.828 244.172 377.909 246.036 381.13 247.63L380.33 243Z" fill="#359766"/>
<path d="M381.26 248.09C381.26 248.09 380.45 245.6 382.81 240.98C385.17 236.36 386.81 233.63 386.81 233.63C386.81 233.63 390.41 238.79 388.31 243.34C386.709 246.569 384.842 249.66 382.73 252.58L381.26 248.09Z" fill="#359766"/>
<path d="M388.501 268.92C388.501 268.92 388.801 266.32 392.861 263.09C396.921 259.86 399.511 258.09 399.511 258.09C399.511 258.09 400.651 264.29 396.841 267.55C394.058 269.826 391.091 271.866 387.971 273.65L388.501 268.92Z" fill="#359766"/>
<path d="M387.431 262.5C387.431 262.5 386.981 259.91 382.741 256.92C378.501 253.93 375.821 252.27 375.821 252.27C375.821 252.27 375.041 258.54 379.021 261.56C381.933 263.671 385.017 265.534 388.241 267.13L387.431 262.5Z" fill="#359766"/>
<path d="M387.371 276.54C387.371 276.54 387.601 273.92 384.251 269.96C380.901 266 378.731 263.69 378.731 263.69C378.731 263.69 376.391 269.54 379.481 273.49C381.763 276.276 384.272 278.868 386.981 281.24L387.371 276.54Z" fill="#359766"/>
<path d="M366.851 199.14C367.501 201.799 368.299 204.42 369.241 206.99C371.941 214.12 376.341 218.27 378.921 224.69C381.501 231.11 378.921 240.42 381.471 248.79C384.021 257.16 388.221 261.33 388.251 267.24C388.281 273.15 386.001 289.48 386.001 289.48" stroke="#263238" stroke-width="1.17749" stroke-linecap="round" stroke-linejoin="round"/>
<path d="M368.62 205.81L364.21 203.5" stroke="#263238" stroke-width="1.17749" stroke-linecap="round" stroke-linejoin="round"/>
<path d="M367.841 202.4L368.971 199.22" stroke="#263238" stroke-width="1.17749" stroke-linecap="round" stroke-linejoin="round"/>
<path d="M378.66 224.42C378.66 224.42 374.97 222.54 371.2 220.67" stroke="#263238" stroke-width="1.17749" stroke-linecap="round" stroke-linejoin="round"/>
<path d="M376.141 219.64C377.225 216.217 378.656 212.913 380.411 209.78" stroke="#263238" stroke-width="1.17749" stroke-linecap="round" stroke-linejoin="round"/>
<path d="M380.84 246.72C378.38 243.613 375.483 240.879 372.24 238.6" stroke="#263238" stroke-width="1.17749" stroke-linecap="round" stroke-linejoin="round"/>
<path d="M382.101 250.24C382.685 247.741 383.477 245.296 384.471 242.93C385.861 239.78 386.101 239.37 386.101 239.37" stroke="#263238" stroke-width="1.17749" stroke-linecap="round" stroke-linejoin="round"/>
<path d="M388.061 271.7C389.492 269.923 391.078 268.276 392.801 266.78C393.898 265.967 394.928 265.068 395.881 264.09" stroke="#263238" stroke-width="1.17749" stroke-linecap="round" stroke-linejoin="round"/>
<path d="M388.25 267.24C387.055 265.332 385.718 263.517 384.25 261.81C382.814 260.242 381.252 258.794 379.58 257.48" stroke="#263238" stroke-width="1.17749" stroke-linecap="round" stroke-linejoin="round"/>
<path d="M387.001 281.24C386.842 279.239 386.151 277.316 385.001 275.67C383.181 273.27 381.001 270.09 380.181 268.84" stroke="#263238" stroke-width="1.17749" stroke-linecap="round" stroke-linejoin="round"/>
<path d="M406.18 317.64H379.92C379.399 317.64 378.897 317.436 378.524 317.072C378.15 316.708 377.933 316.212 377.92 315.69L374.15 286.63H411.87L408.1 315.69C408.088 316.198 407.883 316.683 407.526 317.045C407.169 317.407 406.688 317.62 406.18 317.64Z" fill="#263238"/>
<path d="M411.57 291.54H374.19C373.412 291.543 372.665 291.237 372.112 290.69C371.559 290.142 371.246 289.398 371.24 288.62C371.253 287.843 371.567 287.102 372.115 286.552C372.663 286.002 373.404 285.685 374.18 285.67H411.57C411.957 285.669 412.341 285.744 412.698 285.891C413.056 286.038 413.382 286.254 413.656 286.528C413.93 286.801 414.147 287.125 414.296 287.483C414.444 287.84 414.52 288.223 414.52 288.61C414.519 288.996 414.442 289.378 414.293 289.734C414.144 290.091 413.926 290.414 413.652 290.686C413.378 290.958 413.053 291.174 412.696 291.32C412.339 291.467 411.956 291.541 411.57 291.54Z" fill="#263238"/>
<path d="M327.301 175.31C327.299 183.517 324.517 191.481 319.409 197.905C314.3 204.328 307.167 208.831 299.171 210.68H299.061C298.111 210.89 297.161 211.08 296.181 211.22C294.461 211.465 292.727 211.588 290.991 211.59C281.499 211.556 272.398 207.807 265.637 201.146C258.876 194.484 254.992 185.44 254.817 175.95C254.642 166.461 258.189 157.279 264.7 150.373C271.211 143.467 280.167 139.384 289.651 139C289.981 139 290.331 139 290.651 139C290.757 138.99 290.864 138.99 290.971 139C291.094 138.99 291.217 138.99 291.341 139C296.239 139.032 301.08 140.07 305.561 142.05C312.024 144.882 317.523 149.535 321.384 155.442C325.245 161.349 327.301 168.253 327.301 175.31Z" fill="#359766"/>
<path opacity="0.4" d="M305.581 142.06C263.651 139.88 263.451 186.43 263.451 186.43C263.451 186.43 257.051 171.24 267.501 154.43C273.341 145.02 283.501 140.87 291.361 139.03C296.258 139.055 301.098 140.087 305.581 142.06Z" fill="white"/>
<path d="M327.3 175.31C327.3 183.537 324.505 191.52 319.375 197.952C314.244 204.383 307.081 208.881 299.06 210.71C296.413 211.319 293.706 211.625 290.99 211.62C281.36 211.798 272.054 208.143 265.119 201.459C258.184 194.775 254.188 185.61 254.01 175.98C253.832 166.35 257.488 157.044 264.171 150.109C270.855 143.174 280.02 139.178 289.65 139C290.09 139 290.54 139 290.99 139C300.619 139.003 309.853 142.829 316.662 149.638C323.471 156.447 327.297 165.681 327.3 175.31V175.31Z" stroke="#263238" stroke-linecap="round" stroke-linejoin="round"/>
<path d="M327.3 175.31C327.3 183.537 324.506 191.52 319.375 197.952C314.244 204.383 307.082 208.881 299.06 210.71C298.62 210.71 298.17 210.71 297.72 210.71C288.807 210.686 280.214 207.387 273.577 201.438C266.939 195.49 262.721 187.309 261.724 178.452C260.727 169.595 263.022 160.681 268.172 153.406C273.321 146.131 280.966 141.004 289.65 139C290.09 139 290.54 139 290.99 139C300.619 139.003 309.854 142.829 316.662 149.638C323.471 156.447 327.298 165.681 327.3 175.31V175.31Z" stroke="#263238" stroke-linecap="round" stroke-linejoin="round"/>
<path d="M303.5 198L304.44 201.84L298.16 203.37L297.22 199.54C291.6 199.54 287.09 195.89 285.65 190.03L285.22 188.29L292.15 185.78L292.59 187.59C293.46 191.15 295.81 192.86 298.74 192.14C299.383 192.04 299.997 191.801 300.539 191.441C301.081 191.081 301.538 190.607 301.88 190.053C302.221 189.499 302.438 188.877 302.516 188.231C302.593 187.585 302.53 186.929 302.33 186.31C301.49 182.89 297.57 180.75 293.03 178.54C287.66 175.94 282.12 172.64 280.6 166.43C279.12 160.37 280.98 155.32 285.77 152.82L284.83 148.98L291.1 147.45L292.04 151.28C297.49 151.2 301.55 154.79 303.04 160.99L303.35 162.25L296.43 164.76L296.08 163.37C295.16 159.6 293.22 158.01 290.64 158.64C288.06 159.27 286.99 161.24 287.74 164.3C288.58 167.72 292.55 169.78 297.04 172.08C302.35 174.77 307.95 177.98 309.47 184.18C311 190.15 308.56 195.47 303.5 198Z" stroke="#263238" stroke-miterlimit="10"/>
<path opacity="0.3" d="M303.5 198L304.44 201.84L298.16 203.37L297.22 199.54C291.6 199.54 287.09 195.89 285.65 190.03L285.22 188.29L292.15 185.78L292.59 187.59C293.46 191.15 295.81 192.86 298.74 192.14C299.383 192.04 299.997 191.801 300.539 191.441C301.081 191.081 301.538 190.607 301.88 190.053C302.221 189.499 302.438 188.877 302.516 188.231C302.593 187.585 302.53 186.929 302.33 186.31C301.49 182.89 297.57 180.75 293.03 178.54C287.66 175.94 282.12 172.64 280.6 166.43C279.12 160.37 280.98 155.32 285.77 152.82L284.83 148.98L291.1 147.45L292.04 151.28C297.49 151.2 301.55 154.79 303.04 160.99L303.35 162.25L296.43 164.76L296.08 163.37C295.16 159.6 293.22 158.01 290.64 158.64C288.06 159.27 286.99 161.24 287.74 164.3C288.58 167.72 292.55 169.78 297.04 172.08C302.35 174.77 307.95 177.98 309.47 184.18C311 190.15 308.56 195.47 303.5 198Z" fill="black"/>
<path d="M272.43 206.53L280.1 206.18" stroke="#263238" stroke-linecap="round" stroke-linejoin="round"/>
<path d="M268.74 203.98L275.43 203.41" stroke="#263238" stroke-linecap="round" stroke-linejoin="round"/>
<path d="M265.74 201.29L272.43 200.72" stroke="#263238" stroke-linecap="round" stroke-linejoin="round"/>
<path d="M264.82 150.13H270.55" stroke="#263238" stroke-linecap="round" stroke-linejoin="round"/>
<path d="M267.65 147.49L273.36 147.23" stroke="#263238" stroke-linecap="round" stroke-linejoin="round"/>
<path d="M271.23 144.84L277.25 144.27" stroke="#263238" stroke-linecap="round" stroke-linejoin="round"/>
<path opacity="0.3" d="M299.171 210.68H299.061C296.414 211.289 293.706 211.595 290.991 211.59C281.499 211.556 272.398 207.807 265.637 201.146C258.876 194.484 254.992 185.44 254.817 175.95C254.642 166.461 258.189 157.279 264.7 150.373C271.211 143.467 280.167 139.384 289.651 139C289.981 139 290.331 139 290.651 139C281.801 141.79 266.951 148.92 262.981 163.79C257.371 184.92 270.001 208.91 299.171 210.68Z" fill="black"/>
<path opacity="0.1" d="M327.3 175.31C327.298 183.517 324.516 191.481 319.408 197.905C314.3 204.328 307.166 208.831 299.17 210.68H299.06C298.11 210.89 297.16 211.08 296.18 211.22L305.58 142.03C312.043 144.866 317.539 149.524 321.397 155.435C325.254 161.345 327.306 168.252 327.3 175.31Z" fill="black"/>
<path d="M347.9 118.15C345.025 122.211 340.858 125.178 336.079 126.565C331.301 127.953 326.193 127.68 321.59 125.79L321.46 125.73C320.777 125.43 320.11 125.096 319.46 124.73C318.726 124.335 318.018 123.895 317.34 123.41C312.91 120.027 309.929 115.089 309 109.593C308.071 104.097 309.263 98.4533 312.334 93.8021C315.406 89.1509 320.128 85.8391 325.548 84.5356C330.967 83.2321 336.679 84.0343 341.53 86.78L342.02 87.09C342.25 87.22 342.47 87.38 342.7 87.54C342.93 87.7 343.37 88.03 343.7 88.29C348.071 91.7962 350.94 96.8382 351.72 102.387C352.501 107.936 351.134 113.574 347.9 118.15Z" fill="#359766"/>
<path opacity="0.4" d="M314.76 118.45C314.76 118.45 311.17 107.88 315.94 100.1C321.94 90.35 331.13 85.9001 343.64 88.3001C343.64 88.3001 336.86 83.7201 325.51 86.9701C314.16 90.2201 308.07 105.84 314.76 118.45Z" fill="white"/>
<path d="M347.9 118.16C345.022 122.218 340.854 125.18 336.076 126.564C331.298 127.948 326.191 127.672 321.59 125.78C320.072 125.16 318.629 124.368 317.29 123.42C312.833 120.001 309.852 115.005 308.96 109.459C308.068 103.912 309.331 98.2343 312.491 93.5894C315.651 88.9444 320.469 85.6845 325.956 84.4778C331.442 83.2712 337.183 84.2094 342 87.1C342.22 87.23 342.45 87.38 342.67 87.54C347.417 90.9128 350.632 96.0296 351.613 101.769C352.593 107.509 351.258 113.403 347.9 118.16Z" stroke="#263238" stroke-linecap="round" stroke-linejoin="round"/>
<path d="M347.9 118.16C345.022 122.218 340.854 125.18 336.076 126.564C331.298 127.948 326.191 127.672 321.59 125.78L320.92 125.34C316.576 122.191 313.532 117.563 312.362 112.326C311.191 107.089 311.975 101.606 314.566 96.9066C317.156 92.2075 321.374 88.6171 326.427 86.811C331.48 85.005 337.018 85.1077 342 87.1C342.22 87.23 342.45 87.38 342.67 87.54C347.417 90.9128 350.633 96.0296 351.613 101.769C352.593 107.509 351.258 113.403 347.9 118.16Z" stroke="#263238" stroke-linecap="round" stroke-linejoin="round"/>
<path d="M328.21 121.08L327.34 123.3L323.7 121.87L324.57 119.64C323.219 118.689 322.241 117.298 321.804 115.706C321.366 114.113 321.495 112.418 322.17 110.91L322.57 109.91L326.87 111.08L326.46 112.14C325.65 114.2 326.2 115.86 327.9 116.53C328.253 116.706 328.64 116.802 329.034 116.814C329.428 116.825 329.819 116.751 330.182 116.596C330.544 116.441 330.868 116.209 331.132 115.916C331.396 115.623 331.593 115.276 331.71 114.9C332.49 112.9 331.3 110.49 329.83 107.82C328.09 104.66 326.51 101.1 327.92 97.5C329.33 93.9 331.99 92.14 335.22 92.58L336.1 90.36L339.73 91.79L338.86 94C341.58 95.86 342.33 99 340.92 102.65L340.63 103.37L336.33 102.2L336.65 101.39C337.51 99.21 337.11 97.74 335.65 97.15C334.19 96.56 332.94 97.15 332.24 98.94C331.46 100.94 332.71 103.32 334.12 106.02C335.81 109.21 337.45 112.75 336.04 116.34C335.505 117.928 334.425 119.275 332.992 120.143C331.559 121.01 329.865 121.342 328.21 121.08V121.08Z" stroke="#263238" stroke-miterlimit="10"/>
<path opacity="0.3" d="M328.21 121.08L327.34 123.3L323.7 121.87L324.57 119.64C323.219 118.689 322.241 117.298 321.804 115.706C321.366 114.113 321.495 112.418 322.17 110.91L322.57 109.91L326.87 111.08L326.46 112.14C325.65 114.2 326.2 115.86 327.9 116.53C328.253 116.706 328.64 116.802 329.034 116.814C329.428 116.825 329.819 116.751 330.182 116.596C330.544 116.441 330.868 116.209 331.132 115.916C331.396 115.623 331.593 115.276 331.71 114.9C332.49 112.9 331.3 110.49 329.83 107.82C328.09 104.66 326.51 101.1 327.92 97.5C329.33 93.9 331.99 92.14 335.22 92.58L336.1 90.36L339.73 91.79L338.86 94C341.58 95.86 342.33 99 340.92 102.65L340.63 103.37L336.33 102.2L336.65 101.39C337.51 99.21 337.11 97.74 335.65 97.15C334.19 96.56 332.94 97.15 332.24 98.94C331.46 100.94 332.71 103.32 334.12 106.02C335.81 109.21 337.45 112.75 336.04 116.34C335.505 117.928 334.425 119.275 332.992 120.143C331.559 121.01 329.865 121.342 328.21 121.08Z" fill="black"/>
<path opacity="0.3" d="M341.48 86.79C335.48 85.72 327.88 85.13 323.78 87.79C316.25 92.62 311.56 98.71 311.63 108.58C311.7 118.45 320.92 125.37 320.92 125.37L321.46 125.76C319.989 125.146 318.591 124.371 317.29 123.45C312.86 120.067 309.88 115.129 308.95 109.633C308.021 104.137 309.213 98.4933 312.285 93.8421C315.356 89.191 320.079 85.8791 325.498 84.5756C330.917 83.2722 336.629 84.0743 341.48 86.82V86.79Z" fill="black"/>
<path opacity="0.1" d="M347.9 118.15C345.025 122.211 340.858 125.178 336.079 126.565C331.301 127.953 326.193 127.68 321.59 125.79L321.46 125.73C320.777 125.43 320.11 125.096 319.46 124.73L343.64 88.3C348.018 91.7974 350.896 96.8334 351.688 102.38C352.48 107.928 351.125 113.568 347.9 118.15Z" fill="black"/>
<path d="M336.58 399.76C327.272 410.957 316.175 420.536 303.74 428.11C299.865 430.428 295.858 432.518 291.74 434.37C263.33 447.14 230.95 447.97 200.67 440.63C137 425.2 103.22 369 98.9301 306.61C97.7801 289.75 95.2001 271.54 102.03 255.5C108.86 239.46 122.67 229.5 138.29 222.58C149.63 217.53 161.88 214.14 173.01 211.37C193.152 206.394 214.398 208.586 233.1 217.57C246.19 223.78 255.51 234.57 266.52 243.66C267.687 244.62 268.86 245.577 270.04 246.53C281.162 255.482 292.853 263.703 305.04 271.14C323.55 282.43 342.5 293.08 354.33 312.04C373.2 342.26 357.28 375.16 336.58 399.76Z" fill="#359766"/>
<path opacity="0.4" d="M336.58 399.76C327.272 410.957 316.175 420.536 303.74 428.11C299.865 430.428 295.858 432.518 291.74 434.37C263.33 447.14 230.95 447.97 200.67 440.63C137 425.2 103.22 369 98.9301 306.61C97.7801 289.75 95.2001 271.54 102.03 255.5C108.86 239.46 122.67 229.5 138.29 222.58C149.63 217.53 161.88 214.14 173.01 211.37C193.152 206.394 214.398 208.586 233.1 217.57C246.19 223.78 255.51 234.57 266.52 243.66C267.687 244.62 268.86 245.577 270.04 246.53C281.162 255.482 292.853 263.703 305.04 271.14C323.55 282.43 342.5 293.08 354.33 312.04C373.2 342.26 357.28 375.16 336.58 399.76Z" fill="white"/>
<path d="M270 246.53C268.82 245.583 267.647 244.623 266.48 243.65C255.48 234.54 246.14 223.78 233.06 217.57C214.357 208.591 193.113 206.399 172.97 211.37C146.5 217.94 113.67 228.06 101.97 255.51C95.1401 271.51 97.7201 289.75 98.8801 306.61C103.22 369 137 425.2 200.67 440.63C235.31 449.03 272.67 446.73 303.74 428.11C316.175 420.536 327.272 410.957 336.58 399.76C357.28 375.16 373.2 342.26 354.35 312.04C342.53 293.04 323.58 282.43 305.06 271.14C292.853 263.705 281.141 255.484 270 246.53V246.53Z" stroke="#263238" stroke-miterlimit="10"/>
<path d="M173.55 357.78C168.249 359.384 163.104 361.466 158.18 364" stroke="#263238" stroke-linecap="round" stroke-linejoin="round"/>
<path d="M206 351.6C198.257 352.27 190.57 353.49 183 355.25" stroke="#263238" stroke-linecap="round" stroke-linejoin="round"/>
<path d="M199.251 350C199.251 350 169.371 332.62 133.311 346.55" stroke="#263238" stroke-linecap="round" stroke-linejoin="round"/>
<path opacity="0.1" d="M336.58 399.76C327.272 410.957 316.176 420.536 303.74 428.11C299.866 430.428 295.859 432.518 291.74 434.37C288.489 433.374 285.294 432.203 282.17 430.86C263.51 422.86 247.85 409.33 232.55 395.99C223.32 387.99 213.94 379.79 202.89 374.52C187.948 367.454 170.948 366.054 155.05 370.58C163.272 361.3 174.451 355.149 186.69 353.17C178.79 345.98 167.8 342.96 157.12 342.77C146.44 342.58 140.56 343.89 130.12 346.23C133.61 339.81 142.87 334 150.18 334.17C143.231 334.078 136.293 333.587 129.4 332.7C119.97 331.18 115.75 320.08 114.34 310.64C110.44 284.64 114.39 256.95 128.58 234.85C131.39 230.442 134.64 226.331 138.28 222.58C149.62 217.53 161.87 214.14 173 211.37C193.142 206.394 214.389 208.586 233.09 217.57C246.18 223.78 255.5 234.57 266.51 243.66C267.677 244.62 268.85 245.577 270.03 246.53C281.152 255.482 292.843 263.703 305.03 271.14C323.54 282.43 342.49 293.08 354.32 312.04C373.2 342.26 357.28 375.16 336.58 399.76Z" fill="black"/>
<path d="M347 399C352.607 403.661 358.473 408.001 364.57 412C376.46 412.8 371.13 427.17 371.13 427.17L360.95 433.72C360.95 433.72 343.52 419.87 334 415.38C324.48 410.89 347 399 347 399Z" fill="white"/>
<path opacity="0.3" d="M262.51 247.7C262.51 247.7 260.88 231.57 258.28 227.04L218.8 219V215.94C218.8 215.94 219.71 210.62 210.91 207.29C202.11 203.96 183.77 208.29 179.04 211.87C174.31 215.45 176.04 221.61 176.04 221.61C176.04 221.61 160.14 229.64 153 232.7C147.155 235.397 141.457 238.401 135.93 241.7C135.93 241.7 132.69 278.78 133.33 287.39C133.97 296 132.81 304.1 133.55 308.87C134.29 313.64 134.87 316.35 139.87 320.41C144.87 324.47 149.42 330.41 162.53 324.52L160.7 323.07L247 294L262.51 247.7Z" fill="black"/>
<path d="M262.51 247.7C262.51 247.7 260.88 231.57 258.28 227.04L218.8 219V215.94C218.8 215.94 219.71 210.62 210.91 207.29C202.11 203.96 183.77 208.29 179.04 211.87C174.31 215.45 176.04 221.61 176.04 221.61C176.04 221.61 160.14 229.64 153 232.7C147.155 235.397 141.457 238.401 135.93 241.7C135.93 241.7 132.69 278.78 133.33 287.39C133.97 296 132.81 304.1 133.55 308.87C134.29 313.64 134.87 316.35 139.87 320.41C144.87 324.47 149.42 330.41 162.53 324.52L160.7 323.07L247 294L262.51 247.7Z" fill="#359766"/>
<path opacity="0.05" d="M262.51 247.7C262.51 247.7 260.88 231.57 258.28 227.04L218.8 219V215.94C218.8 215.94 219.71 210.62 210.91 207.29C202.11 203.96 183.77 208.29 179.04 211.87C174.31 215.45 176.04 221.61 176.04 221.61C176.04 221.61 160.14 229.64 153 232.7C147.155 235.397 141.457 238.401 135.93 241.7C135.93 241.7 132.69 278.78 133.33 287.39C133.97 296 132.81 304.1 133.55 308.87C134.29 313.64 134.87 316.35 139.87 320.41C144.87 324.47 149.42 330.41 162.53 324.52L160.7 323.07L247 294L262.51 247.7Z" fill="black"/>
<path opacity="0.1" d="M258.8 229H242.28C240.726 229.003 239.224 229.555 238.04 230.56C236.855 231.565 236.065 232.958 235.81 234.49L227.67 283.49C227.67 283.49 216.46 284.42 208.52 290.21C200.58 296 181.05 254.69 150.19 254.67C150.19 254.67 159.07 274.97 161.04 291.17C161.04 291.17 141.75 289.07 138.55 296.62C135.35 304.17 140 318.32 148.16 312.84C156.32 307.36 164 298.22 169.45 304C174.9 309.78 199.25 312.89 199.25 312.89L236.72 294L251.25 287.17L258.8 229Z" fill="black"/>
<path opacity="0.4" d="M206.35 204.71C206.35 204.71 215.73 207.31 217.25 210.46C218.77 213.61 218.61 221.58 218.61 221.58C216.334 226.907 212.885 231.651 208.52 235.46L201.52 221.58L202.15 237.32C202.15 237.32 188.87 235.11 183.23 230.87L177.6 226.62C177.6 226.62 175.17 218.62 175.52 215.91C175.87 213.2 186 207.7 186 207.7L206.35 204.71Z" fill="white"/>
<path d="M362.59 447.42C362.33 446.85 366.44 439.59 363.22 432.2C360 424.81 354.87 427.66 354.87 427.66C354.87 427.66 340.26 418.36 334.12 415.42C329.696 413.198 325.435 410.665 321.37 407.84L314.88 416.58L320.88 435.14L362.59 447.42Z" fill="#359766"/>
<path d="M354.34 427.21L373.1 438.67C373.1 438.67 386.29 430.21 392.58 424.37C398.87 418.53 413 406.09 413 406.09L422 393.98C422 393.98 415.76 386.26 405.36 392.46C391.92 400.46 375.53 412.08 364.6 411.97C364.6 411.97 366.75 425.4 354.41 427.21" fill="#359766"/>
<path d="M203.17 156.23C203.17 156.23 211.68 169.11 213.23 173.28C214.78 177.45 216.03 183.62 215.72 186.59C215.41 189.56 212.29 205.47 210.72 205.93L209.21 207.64L210.21 214.38C210.21 214.38 203.55 225.89 183.97 217.45C183.97 217.45 183.21 204.01 180.83 199.79C178.45 195.57 174.89 200.59 171.32 188.4C167.75 176.21 179.12 163.4 179.12 163.4L203.17 156.23Z" fill="white"/>
<path opacity="0.5" d="M413.83 390.22C413.83 390.22 404.18 391.9 401.05 397.61C397.92 403.32 391.91 413.93 389.86 419.06C387.81 424.19 370.86 436.58 370.86 436.58L373.11 438.67C373.11 438.67 386.91 430.14 395.24 422.03C403.57 413.92 421.94 393.52 421.94 393.52C421.94 393.52 420.62 392.21 413.83 390.22Z" fill="white"/>
<path opacity="0.5" d="M317.27 413.37L314.88 416.58L322.22 431.8L362.59 446.31L364.46 440.4C364.46 440.4 365.08 434.4 350.91 429.84C336.74 425.28 328.1 422.27 324.07 419.14C320.04 416.01 317.27 413.37 317.27 413.37Z" fill="white"/>
<path d="M184 300.33C184 300.33 171.64 298.47 165.87 308.58C160.1 318.69 160.69 323.07 160.69 323.07C160.69 323.07 168.86 330.49 180.09 330.07C191.32 329.65 207.67 316.79 213 312.6C218.33 308.41 231.77 296.42 240.94 298.9L241.94 290.23C241.94 290.23 241.04 286.34 233.2 287.39C225.36 288.44 222.28 292.91 219.75 292.91C217.22 292.91 214.83 290.48 209.75 299.16C209.74 299.16 191.91 302.32 184 300.33Z" fill="white"/>
<path d="M200.061 174.75C200.324 176.37 200.698 177.971 201.181 179.54C201.361 180.306 201.702 181.025 202.181 181.65C203.121 182.65 204.641 182.91 206.031 183.12C206.26 183.136 206.478 183.228 206.651 183.38C206.763 183.559 206.815 183.769 206.801 183.98C206.792 185.555 206.319 187.093 205.441 188.4" stroke="#263238" stroke-linecap="round" stroke-linejoin="round"/>
<path opacity="0.1" d="M325.561 403L317.271 413.33C317.271 413.33 326.371 421.74 335.791 424.86C345.211 427.98 361.701 433.86 364.461 438.39L363.401 433C363.401 433 337.611 417.18 331.691 413.4C329.94 412.252 328.477 410.717 327.414 408.914C326.351 407.111 325.717 405.087 325.561 403Z" fill="black"/>
<path opacity="0.1" d="M354.34 427.21L370.85 436.58C370.85 436.58 379 431 383 426.89C387 422.78 391.93 418.22 395 409.01C399.19 396.28 411.19 390.22 411.19 390.22C411.19 390.22 394.5 398.08 385.81 404.22C377.12 410.36 368.65 412.96 363.73 412.54C363.68 412.57 367.63 425.07 354.34 427.21Z" fill="black"/>
<path d="M194.24 190.67C194.24 190.67 200.73 195.76 207.47 193.85C207.47 193.85 201.11 206.45 194.24 190.67Z" fill="white" stroke="#263238" stroke-linecap="round" stroke-linejoin="round"/>
<path d="M194 179.67C194.19 181.07 193.76 182.28 193.06 182.38C192.36 182.48 191.63 181.38 191.44 180.01C191.25 178.64 191.67 177.4 192.38 177.3C193.09 177.2 193.85 178.27 194 179.67Z" fill="#263238"/>
<path d="M208.131 177.12C208.311 178.53 207.891 179.74 207.191 179.83C206.491 179.92 205.751 178.83 205.571 177.47C205.391 176.11 205.801 174.85 206.511 174.76C207.221 174.67 207.941 175.72 208.131 177.12Z" fill="#263238"/>
<path d="M193 173.73C193 173.73 189.22 171.78 186.53 175.96" stroke="#263238" stroke-linecap="round" stroke-linejoin="round"/>
<path d="M202.69 171.13C202.69 171.13 206.69 167.7 209 171.13" stroke="#263238" stroke-linecap="round" stroke-linejoin="round"/>
<path d="M180.16 186.6C180.16 186.6 177.73 183.01 175.16 183.12C172.59 183.23 171.57 186.83 172.49 190.31C173.41 193.79 177.24 198.65 180.14 198.19C181.776 197.979 183.268 197.149 184.31 195.87" stroke="#263238" stroke-linecap="round" stroke-linejoin="round"/>
<path d="M203.46 159.13C206.19 161.4 209.08 163.87 210.46 167.21C211.68 170.05 211.95 173.21 213.07 176.08C214.26 179.15 215.56 182.36 215.66 185.71C215.607 188.809 215.202 191.893 214.45 194.9C214.035 197.508 213.416 200.079 212.6 202.59C211.25 206.18 208.76 208.39 205.42 210.09C202.99 211.33 198.94 213.09 196.31 211.43C194.78 210.43 192.48 207.57 190.57 204.94" stroke="#263238" stroke-linecap="round" stroke-linejoin="round"/>
<path d="M180.16 198.19C180.16 198.19 184.46 208.73 183.42 216.14" stroke="#263238" stroke-linecap="round" stroke-linejoin="round"/>
<path d="M179.06 184.83C179.632 184.406 180.086 183.843 180.376 183.193C180.667 182.543 180.785 181.829 180.72 181.12C180.56 179.5 179.44 178 179.66 176.38C179.844 175.604 180.133 174.857 180.52 174.16C181.102 172.815 181.359 171.351 181.268 169.888C181.178 168.425 180.743 167.003 180 165.74C180 165.74 193.66 166.38 200.06 162.31C206.46 158.24 211.34 147.83 207.47 142.86C203.6 137.89 196.06 144.67 190.47 145.42C184.88 146.17 165 149.34 161.83 157C158.66 164.66 163.49 167.41 163.64 174.72C163.79 182.03 163.79 195.88 174.72 194.61C174.72 194.61 170.63 189.32 173.47 183.87C175.4 181.58 179.06 184.83 179.06 184.83Z" fill="#263238"/>
<path d="M205.85 151.5C207.705 152.945 209.243 154.756 210.368 156.82C211.493 158.884 212.181 161.158 212.39 163.5C213 168.98 222.72 179.63 215.71 185.7C215.71 185.7 214.08 179.25 213.12 176.07C212.16 172.89 210.93 167.07 209.32 165.07C207.71 163.07 199.17 156.07 199.17 156.07L205.85 151.5Z" fill="#263238"/>
<path d="M181.42 215.91C181.42 215.91 188.16 220.35 200.68 220.53L202.15 237.32C202.15 237.32 188.07 236.25 177.6 226.62C177.6 226.62 174.77 219.13 175.52 215.91C176.27 212.69 183 209.5 183 209.5" stroke="#263238" stroke-linecap="round" stroke-linejoin="round"/>
<path d="M209.74 208.4L210.14 214.4C207.5 217.149 204.263 219.253 200.68 220.55L208.52 235.48C208.52 235.48 217.87 228.2 218.8 220.55C218.8 220.55 218.88 212.72 217.25 210.48C215.62 208.24 209.68 207.19 209.68 207.19" stroke="#263238" stroke-linecap="round" stroke-linejoin="round"/>
<path opacity="0.8" d="M171.8 162C172.8 159.49 175.54 158 178.21 157.6C180.88 157.2 183.62 157.48 186.32 157.41C190.058 157.38 193.72 156.344 196.92 154.41C198.51 153.442 199.893 152.17 200.991 150.667C202.089 149.164 202.881 147.459 203.32 145.65" stroke="white" stroke-linecap="round" stroke-linejoin="round"/>
<path opacity="0.8" d="M165.351 161.51C167.041 156.38 172.521 153.21 177.911 152.76C180.581 152.53 183.281 152.84 185.911 152.53C188.541 152.22 191.341 151.12 192.731 148.83" stroke="white" stroke-linecap="round" stroke-linejoin="round"/>
<path d="M162.511 324.52C149.511 331.26 144.891 324.32 137.651 318.58C130.411 312.84 135.161 302.58 133.651 286.13C132.141 269.68 135.901 241.7 135.901 241.7C135.901 241.7 139.141 240.96 148.131 235.46C157.121 229.96 176.041 221.58 176.041 221.58" stroke="#263238" stroke-linecap="round" stroke-linejoin="round"/>
<path d="M175.39 299.62C175.39 299.62 173.33 293.09 167.51 292.92C161.69 292.75 152.51 295.37 145.97 307.74" stroke="#263238" stroke-linecap="round" stroke-linejoin="round"/>
<path d="M166.18 292.53C165.819 292.506 165.464 292.422 165.13 292.28C160.333 290.554 155.125 290.317 150.19 291.6" stroke="#263238" stroke-linecap="round" stroke-linejoin="round"/>
<path d="M146.84 250.63C157.43 262.33 162.59 277.81 167.48 292.81" stroke="#263238" stroke-linecap="round" stroke-linejoin="round"/>
<path d="M218.8 219C218.8 219 238 223.58 247.38 224.67C256.76 225.76 258.28 227.07 258.28 227.07L260.03 233.61" stroke="#263238" stroke-linecap="round" stroke-linejoin="round"/>
<path d="M308.27 230.38L242.88 232.89L237.54 300.14H248.74L305.52 287.43L312.66 231.99L308.27 230.38Z" fill="white"/>
<path d="M240.94 302.13L312.46 233.58L305.52 287.43L240.94 302.13Z" fill="#359766"/>
<path opacity="0.7" d="M240.94 302.13L312.46 233.58L305.52 287.43L240.94 302.13Z" fill="white"/>
<path d="M240.94 300.33L246.66 235.46L312.66 231.99L305.52 287.43L240.94 300.33Z" stroke="#263238" stroke-linecap="round" stroke-linejoin="round"/>
<path d="M284.84 263.42C284.4 267.37 282.29 270.37 280.13 270.13C277.97 269.89 276.59 266.48 277.03 262.53C277.47 258.58 279.59 255.58 281.75 255.82C283.91 256.06 285.29 259.47 284.84 263.42Z" fill="#263238"/>
<path d="M305.52 287.43C305.52 287.43 335.74 286.57 345.19 292.81C354.64 299.05 360.19 330.34 358.88 346.96C357.57 363.58 346.17 401.72 346.17 401.72L324.33 377C324.33 377 313.57 337.88 319.44 322.56C319.44 322.56 290.44 324.19 279.02 320.61C279.02 320.61 268.79 303.86 251.25 298.32L305.52 287.43Z" fill="#263238"/>
<path d="M350.78 402.37C343.023 395.128 336.057 387.083 330 378.37C319.43 362.04 304.82 346.37 289.79 334.14C277.68 324.32 274.94 308.32 260 300.29C235.25 287.02 213.85 313.39 205.85 318.73C197.85 324.07 184 330.12 184 330.12C184 330.12 189.06 349.12 203.92 351.37C218.78 353.62 233.81 343.37 240.92 348.32C248.03 353.27 253.29 375.37 276.77 388.32C295.96 398.9 322.11 409.22 335.6 416.18C338.6 417.74 340.84 419.38 342.54 420.31C347.2 422.85 352.18 425.84 356.88 428.8L373.07 438.66C373.07 438.66 389.32 429.05 395.56 420.19C396.39 419 398.12 415.83 399.74 412.77C403.27 406.08 407.74 400.08 413.93 396.77C418.21 394.46 422.02 393.77 421.93 393.53C421.52 392.77 413.76 388.8 408.49 390.97C397.33 395.58 375.02 413.29 364.49 411.97C359.592 409.266 354.996 406.047 350.78 402.37V402.37Z" stroke="#263238" stroke-miterlimit="10"/>
<path d="M350.78 402.37C341.05 406.3 337.13 412.37 335.63 416.19C322.14 409.19 295.99 398.91 276.8 388.33C253.32 375.33 248.1 353.27 240.95 348.33C233.8 343.39 218.76 353.67 203.95 351.38C189.14 349.09 184 330.11 184 330.11C184 330.11 197.86 324.11 205.86 318.77C213.86 313.43 232.31 287.05 260 300.33C275.29 307.66 277.68 324.33 289.79 334.18C304.79 346.37 319.43 362.08 330 378.41C336.042 387.123 343.01 395.156 350.78 402.37Z" fill="#263238"/>
<path d="M277.66 317.59C277.66 317.59 270.17 302.37 258.16 299.42" stroke="white" stroke-linecap="round" stroke-linejoin="round"/>
<path d="M238.4 287.29C230.14 285.49 221.07 294.62 217.25 292.91C214.41 291.64 209.74 299.16 209.74 299.16C202.053 300.27 194.279 300.662 186.52 300.33C175.39 299.62 170.12 301.79 166.18 307.74L160.68 322.31C160.68 322.31 175.19 335.31 190.68 327.74C206.17 320.17 226.75 297.33 240.93 297.41" stroke="#263238" stroke-linecap="round" stroke-linejoin="round"/>
<path d="M353.71 426.82C353.71 426.82 367.27 427.93 364.09 411.73" stroke="#263238" stroke-miterlimit="10"/>
<path d="M417.61 401.72C416.61 403.72 404.18 414.3 393.47 423.55C393.47 423.41 396.47 417.76 397.71 415.35C400.56 410.03 407.92 395.44 421.93 393.52C423.92 394.72 417.61 401.72 417.61 401.72Z" fill="#263238"/>
<path d="M412.28 390.33C398.11 393.15 394.89 411.33 389.86 419.06C384.83 426.79 370.86 437.3 370.86 437.3" stroke="#263238" stroke-miterlimit="10"/>
<path d="M363.22 432.66C365.53 436.88 364.44 441.78 363.22 444.85C362.622 446.375 361.879 447.838 361 449.22C340.94 445.92 320.88 435.14 320.88 435.14L315.71 419.14L314.88 416.58L322.67 406.09" stroke="#263238" stroke-miterlimit="10"/>
<path d="M363.22 444.85C362.622 446.375 361.879 447.838 361 449.22C340.94 445.92 320.88 435.14 320.88 435.14L315.71 419.14C318.3 422.52 323.1 427.47 330.3 429.5C340.07 432.27 358.1 435.51 363.22 444.85Z" fill="#263238"/>
<path d="M237.54 297.8L242.88 232.89L308.27 230.38L312.66 231.99" stroke="#263238" stroke-linecap="round" stroke-linejoin="round"/>
<path d="M364 419.06C364 419.06 372.94 420.66 379.81 415.06C386.68 409.46 397.75 396.79 397.75 396.79" stroke="#263238" stroke-miterlimit="10"/>
<path d="M373.101 411C373.101 411 370.941 414.25 373.101 420.77" stroke="#263238" stroke-linecap="round" stroke-linejoin="round"/>
<path d="M379.44 407.89C378.457 411.131 378.747 414.625 380.25 417.66" stroke="#263238" stroke-linecap="round" stroke-linejoin="round"/>
<path d="M387 403.51C387 403.51 385.19 408.94 387 413.73" stroke="#263238" stroke-linecap="round" stroke-linejoin="round"/>
<path d="M324.441 404.74L317.271 413.37C317.271 413.37 324.491 421.26 334.681 424.54C344.871 427.82 363.071 433.39 364.581 439.32" stroke="#263238" stroke-miterlimit="10"/>
</svg>
