<svg width="475" height="116" viewBox="0 0 475 116" fill="none" xmlns="http://www.w3.org/2000/svg">
<path d="M31.7586 23.4762C34.809 23.4762 37.2819 21.0031 37.2819 17.9524C37.2819 14.9017 34.809 12.4286 31.7586 12.4286C28.7082 12.4286 26.2354 14.9017 26.2354 17.9524C26.2354 21.0031 28.7082 23.4762 31.7586 23.4762Z" fill="#22A447" stroke="#22A447"/>
<path d="M29.4778 98.959C32.129 98.7933 34.4819 98.263 36.5365 97.3682C38.5912 96.4402 40.331 95.247 41.756 93.7888C43.181 92.2973 44.258 90.5905 44.9871 88.6682C45.7162 86.7128 46.0807 84.6248 46.0807 82.4042C46.0807 80.2168 45.6665 78.3608 44.838 76.8362C44.0095 75.3116 42.8993 74.019 41.5074 72.9585C40.1156 71.8979 38.5083 71.0196 36.6856 70.3236C34.8961 69.5945 33.0072 68.915 31.0188 68.2853L29.4778 98.959ZM29.4778 35.2253C26.9592 35.3579 24.7554 35.8219 22.8665 36.6173C21.0106 37.3796 19.4531 38.3905 18.1938 39.6499C16.9345 40.8762 15.99 42.2848 15.3604 43.8756C14.7307 45.4665 14.4159 47.1402 14.4159 48.8968C14.4159 50.9516 14.7804 52.7082 15.5095 54.1665C16.2386 55.6248 17.2327 56.8842 18.492 57.9448C19.7513 58.9722 21.1929 59.867 22.8167 60.6293C24.4737 61.3585 26.2301 62.0379 28.0859 62.6676L29.4778 35.2253ZM31.2176 63.6619C33.5705 64.4242 35.9069 65.2362 38.2266 66.0979C40.5464 66.9265 42.6176 68.0036 44.4403 69.3293C46.263 70.655 47.7377 72.2956 48.8644 74.251C49.9912 76.2065 50.5545 78.6756 50.5545 81.6585C50.5545 84.5088 50.074 87.1933 49.113 89.7122C48.1851 92.231 46.8098 94.4516 44.9871 96.3739C43.1644 98.263 40.9275 99.7876 38.2763 100.948C35.6583 102.108 32.6592 102.77 29.279 102.936L28.7322 113.426C28.699 113.857 28.5499 114.221 28.2848 114.52C28.0528 114.818 27.7048 114.967 27.2409 114.967H25.4513L26.0479 102.936C21.806 102.737 18.1109 101.826 14.9627 100.202C11.8476 98.5779 9.09698 96.4402 6.71094 93.7888L8.05309 91.8499C8.45076 91.3528 8.91472 91.1042 9.44495 91.1042C9.7432 91.1042 10.1077 91.2865 10.5386 91.651C10.9694 92.0156 11.4996 92.4796 12.1293 93.043C12.7589 93.5733 13.5045 94.1699 14.3662 94.8328C15.2278 95.4625 16.222 96.0756 17.3487 96.6722C18.5086 97.2356 19.8176 97.7328 21.2758 98.1636C22.7339 98.5945 24.3909 98.8596 26.2467 98.959L27.8871 67.291C25.6336 66.595 23.4298 65.8328 21.2758 65.0042C19.1217 64.1425 17.1996 63.0488 15.5095 61.723C13.8525 60.3642 12.5104 58.707 11.483 56.7516C10.4557 54.763 9.94204 52.2773 9.94204 49.2945C9.94204 46.9745 10.3729 44.7539 11.2345 42.6328C12.1293 40.4785 13.4051 38.5728 15.0621 36.9156C16.7522 35.2253 18.8234 33.8665 21.2758 32.839C23.7281 31.8116 26.5449 31.2482 29.7263 31.1488L30.124 22.8465C30.124 22.3825 30.2566 22.0013 30.5217 21.703C30.7868 21.4048 31.1348 21.2556 31.5656 21.2556H33.3551L32.858 31.2482C36.2051 31.4802 39.138 32.2259 41.6566 33.4853C44.1752 34.7116 46.4784 36.3688 48.5662 38.4568L47.4726 40.147C47.1412 40.7105 46.6938 40.9922 46.1304 40.9922C45.7327 40.9922 45.2025 40.727 44.5397 40.1968C43.9101 39.6333 43.065 39.0202 42.0045 38.3573C40.9772 37.6613 39.7013 37.015 38.1769 36.4185C36.6525 35.7888 34.8133 35.391 32.6592 35.2253L31.2176 63.6619Z" fill="#10393B"/>
<path d="M66.1906 99.4286C64.3348 99.4286 62.8104 98.8652 61.6174 97.7383C60.4906 96.5452 59.9272 95.0869 59.9272 93.3635V35.8937C59.9272 34.1703 60.4906 32.7452 61.6174 31.6183C62.8104 30.4252 64.2685 29.8286 65.9918 29.8286H98.3028C100.026 29.8286 101.451 30.392 102.578 31.5189C103.771 32.5795 104.367 33.9715 104.367 35.6949C104.367 37.1532 103.771 38.4457 102.578 39.5726C101.451 40.6995 100.026 41.2629 98.3028 41.2629H71.4598L72.3546 40.0697V60.0549L71.6586 58.7623H93.829C95.5522 58.7623 96.9772 59.3257 98.104 60.4526C99.297 61.5132 99.8935 62.9052 99.8935 64.6286C99.8935 66.0869 99.297 67.3795 98.104 68.5063C96.9772 69.6332 95.5522 70.1966 93.829 70.1966H71.4598L72.3546 69.3017V93.3635C72.3546 95.0869 71.7249 96.5452 70.4656 97.7383C69.2726 98.8652 67.8476 99.4286 66.1906 99.4286ZM125.993 93.3635C125.993 95.0869 125.43 96.5452 124.303 97.7383C123.176 98.8652 121.751 99.4286 120.028 99.4286C118.305 99.4286 116.88 98.8652 115.753 97.7383C114.626 96.5452 114.063 95.0869 114.063 93.3635V52.2995C114.063 50.576 114.626 49.1509 115.753 48.024C116.88 46.8309 118.305 46.2343 120.028 46.2343C121.751 46.2343 123.176 46.8309 124.303 48.024C125.43 49.1509 125.993 50.576 125.993 52.2995V93.3635ZM119.929 39.7715C117.675 39.7715 116.084 39.4069 115.156 38.6777C114.229 37.9486 113.765 36.656 113.765 34.8V32.9109C113.765 30.9886 114.262 29.696 115.256 29.0332C116.316 28.304 117.907 27.9395 120.028 27.9395C122.348 27.9395 123.972 28.304 124.9 29.0332C125.827 29.7623 126.291 31.0549 126.291 32.9109V34.8C126.291 36.7223 125.794 38.048 124.8 38.7772C123.806 39.44 122.182 39.7715 119.929 39.7715ZM166.688 45.24C171.593 45.24 175.304 46.2675 177.823 48.3223C180.408 50.3772 182.164 53.128 183.092 56.5749C184.086 59.9554 184.584 63.7337 184.584 67.9097V93.3635C184.584 95.0869 184.02 96.5452 182.893 97.7383C181.767 98.8652 180.342 99.4286 178.618 99.4286C176.895 99.4286 175.47 98.8652 174.343 97.7383C173.217 96.5452 172.653 95.0869 172.653 93.3635V67.9097C172.653 65.7223 172.355 63.7669 171.759 62.0435C171.228 60.2537 170.234 58.8286 168.776 57.768C167.318 56.7075 165.23 56.1772 162.513 56.1772C159.861 56.1772 157.608 56.7075 155.752 57.768C153.963 58.8286 152.571 60.2537 151.577 62.0435C150.649 63.7669 150.185 65.7223 150.185 67.9097V93.3635C150.185 95.0869 149.621 96.5452 148.495 97.7383C147.368 98.8652 145.943 99.4286 144.22 99.4286C142.496 99.4286 141.071 98.8652 139.945 97.7383C138.818 96.5452 138.254 95.0869 138.254 93.3635V52.2995C138.254 50.576 138.818 49.1509 139.945 48.024C141.071 46.8309 142.496 46.2343 144.22 46.2343C145.943 46.2343 147.368 46.8309 148.495 48.024C149.621 49.1509 150.185 50.576 150.185 52.2995V56.5749L148.693 56.2766C149.29 55.1497 150.152 53.9566 151.278 52.6972C152.405 51.3715 153.731 50.1452 155.255 49.0183C156.779 47.8915 158.503 46.9966 160.425 46.3337C162.347 45.6046 164.435 45.24 166.688 45.24ZM241.024 45.24C242.747 45.24 244.172 45.8035 245.299 46.9303C246.425 48.0572 246.989 49.5155 246.989 51.3052V93.3635C246.989 95.0869 246.425 96.5452 245.299 97.7383C244.172 98.8652 242.747 99.4286 241.024 99.4286C239.301 99.4286 237.876 98.8652 236.749 97.7383C235.622 96.5452 235.059 95.0869 235.059 93.3635V88.4915L237.246 89.3863C237.246 90.248 236.782 91.3086 235.854 92.568C234.926 93.7612 233.667 94.9543 232.076 96.1474C230.485 97.3406 228.596 98.368 226.409 99.2297C224.288 100.025 221.969 100.423 219.45 100.423C214.877 100.423 210.734 99.2629 207.023 96.9429C203.311 94.5566 200.362 91.3086 198.174 87.1989C196.053 83.0229 194.993 78.2503 194.993 72.8812C194.993 67.4457 196.053 62.6732 198.174 58.5635C200.362 54.3875 203.278 51.1395 206.923 48.8195C210.569 46.4332 214.612 45.24 219.052 45.24C221.902 45.24 224.52 45.6709 226.906 46.5326C229.292 47.3943 231.347 48.488 233.07 49.8137C234.86 51.1395 236.219 52.4983 237.146 53.8903C238.141 55.216 238.638 56.3429 238.638 57.2709L235.059 58.5635V51.3052C235.059 49.5817 235.622 48.1566 236.749 47.0297C237.876 45.8366 239.301 45.24 241.024 45.24ZM220.941 89.4857C223.857 89.4857 226.409 88.7566 228.596 87.2983C230.784 85.84 232.474 83.8515 233.667 81.3326C234.926 78.8137 235.556 75.9966 235.556 72.8812C235.556 69.6995 234.926 66.8492 233.667 64.3303C232.474 61.8115 230.784 59.8229 228.596 58.3646C226.409 56.9063 223.857 56.1772 220.941 56.1772C218.091 56.1772 215.573 56.9063 213.385 58.3646C211.198 59.8229 209.475 61.8115 208.216 64.3303C207.023 66.8492 206.426 69.6995 206.426 72.8812C206.426 75.9966 207.023 78.8137 208.216 81.3326C209.475 83.8515 211.198 85.84 213.385 87.2983C215.573 88.7566 218.091 89.4857 220.941 89.4857ZM288.339 45.24C293.243 45.24 296.955 46.2675 299.474 48.3223C302.058 50.3772 303.815 53.128 304.743 56.5749C305.737 59.9554 306.234 63.7337 306.234 67.9097V93.3635C306.234 95.0869 305.671 96.5452 304.544 97.7383C303.417 98.8652 301.992 99.4286 300.269 99.4286C298.546 99.4286 297.121 98.8652 295.994 97.7383C294.867 96.5452 294.304 95.0869 294.304 93.3635V67.9097C294.304 65.7223 294.006 63.7669 293.409 62.0435C292.879 60.2537 291.885 58.8286 290.427 57.768C288.968 56.7075 286.881 56.1772 284.163 56.1772C281.512 56.1772 279.258 56.7075 277.403 57.768C275.614 58.8286 274.222 60.2537 273.228 62.0435C272.3 63.7669 271.836 65.7223 271.836 67.9097V93.3635C271.836 95.0869 271.273 96.5452 270.146 97.7383C269.019 98.8652 267.594 99.4286 265.871 99.4286C264.148 99.4286 262.723 98.8652 261.596 97.7383C260.47 96.5452 259.906 95.0869 259.906 93.3635V52.2995C259.906 50.576 260.47 49.1509 261.596 48.024C262.723 46.8309 264.148 46.2343 265.871 46.2343C267.594 46.2343 269.019 46.8309 270.146 48.024C271.273 49.1509 271.836 50.576 271.836 52.2995V56.5749L270.345 56.2766C270.942 55.1497 271.803 53.9566 272.93 52.6972C274.057 51.3715 275.382 50.1452 276.906 49.0183C278.43 47.8915 280.153 46.9966 282.075 46.3337C283.997 45.6046 286.085 45.24 288.339 45.24ZM342.793 45.24C346.57 45.24 349.851 45.6377 352.635 46.4332C355.485 47.2286 357.672 48.3555 359.197 49.8137C360.787 51.2057 361.583 52.896 361.583 54.8846C361.583 56.2103 361.185 57.4697 360.39 58.6629C359.594 59.7897 358.434 60.3532 356.91 60.3532C355.849 60.3532 354.955 60.2206 354.226 59.9555C353.563 59.624 352.966 59.2263 352.436 58.7623C351.906 58.2983 351.276 57.8675 350.547 57.4697C349.884 57.072 348.857 56.7737 347.465 56.5749C346.14 56.3097 345.145 56.1772 344.483 56.1772C341.102 56.1772 338.219 56.9063 335.833 58.3646C333.513 59.8229 331.724 61.8115 330.465 64.3303C329.205 66.7829 328.576 69.6332 328.576 72.8812C328.576 76.0629 329.205 78.9132 330.465 81.432C331.79 83.8846 333.58 85.84 335.833 87.2983C338.153 88.7566 340.804 89.4857 343.787 89.4857C345.444 89.4857 346.869 89.3863 348.062 89.1874C349.255 88.9886 350.249 88.6903 351.044 88.2926C351.972 87.7623 352.801 87.1989 353.53 86.6023C354.259 86.0057 355.352 85.7075 356.811 85.7075C358.534 85.7075 359.859 86.2709 360.787 87.3977C361.715 88.4583 362.179 89.784 362.179 91.3749C362.179 93.032 361.251 94.5566 359.395 95.9486C357.54 97.2743 355.087 98.368 352.038 99.2297C349.056 100.025 345.808 100.423 342.295 100.423C337.059 100.423 332.519 99.2297 328.675 96.8434C324.831 94.3909 321.848 91.0766 319.727 86.9006C317.673 82.7246 316.645 78.0515 316.645 72.8812C316.645 67.4457 317.739 62.6732 319.926 58.5635C322.18 54.3875 325.262 51.1395 329.172 48.8195C333.149 46.4332 337.689 45.24 342.793 45.24ZM395.835 100.423C390.201 100.423 385.297 99.2629 381.121 96.9429C377.012 94.5566 373.83 91.3417 371.577 87.2983C369.39 83.2549 368.296 78.6812 368.296 73.5772C368.296 67.6114 369.489 62.5406 371.875 58.3646C374.328 54.1223 377.509 50.8743 381.419 48.6206C385.33 46.3669 389.472 45.24 393.847 45.24C397.227 45.24 400.408 45.936 403.391 47.328C406.44 48.72 409.124 50.6423 411.444 53.0949C413.764 55.4812 415.586 58.2652 416.912 61.4469C418.304 64.6286 419 68.0092 419 71.5886C418.933 73.1795 418.304 74.472 417.111 75.4663C415.918 76.4606 414.526 76.9577 412.935 76.9577H374.957L371.975 67.0149H408.461L406.274 69.0034V66.3189C406.141 64.3966 405.446 62.6732 404.186 61.1486C402.993 59.624 401.469 58.4309 399.613 57.5692C397.823 56.6412 395.901 56.1772 393.847 56.1772C391.858 56.1772 390.003 56.4423 388.279 56.9726C386.556 57.5029 385.065 58.3977 383.805 59.6572C382.546 60.9166 381.552 62.6069 380.823 64.728C380.094 66.8492 379.729 69.5337 379.729 72.7817C379.729 76.3612 380.458 79.4103 381.917 81.9292C383.441 84.3817 385.363 86.2709 387.683 87.5966C390.069 88.856 392.587 89.4857 395.239 89.4857C397.691 89.4857 399.646 89.2869 401.104 88.8892C402.562 88.4914 403.722 88.0274 404.584 87.4972C405.512 86.9006 406.34 86.4034 407.069 86.0057C408.262 85.4092 409.389 85.1109 410.45 85.1109C411.908 85.1109 413.101 85.608 414.029 86.6023C415.023 87.5966 415.52 88.7566 415.52 90.0823C415.52 91.872 414.592 93.496 412.736 94.9543C411.013 96.4126 408.594 97.7052 405.479 98.832C402.364 99.8926 399.149 100.423 395.835 100.423ZM426.34 91.176C425.677 90.248 425.379 89.0549 425.445 87.5966C425.512 86.1383 426.373 84.8789 428.03 83.8183C429.091 83.1554 430.217 82.8903 431.41 83.0229C432.603 83.0892 433.763 83.6857 434.89 84.8126C436.812 86.7349 438.834 88.2263 440.955 89.2869C443.076 90.3474 445.727 90.8777 448.908 90.8777C449.902 90.8114 450.996 90.6789 452.189 90.48C453.382 90.2149 454.409 89.6846 455.271 88.8892C456.199 88.0274 456.663 86.7349 456.663 85.0115C456.663 83.5532 456.166 82.3932 455.171 81.5315C454.177 80.6697 452.852 79.9406 451.195 79.344C449.604 78.7475 447.814 78.184 445.826 77.6537C443.771 77.0572 441.651 76.3943 439.463 75.6652C437.342 74.936 435.387 74.008 433.598 72.8812C431.808 71.688 430.35 70.1303 429.223 68.208C428.096 66.2857 427.533 63.8663 427.533 60.9497C427.533 57.6355 428.461 54.8183 430.317 52.4983C432.173 50.1783 434.559 48.3886 437.475 47.1292C440.457 45.8697 443.573 45.24 446.82 45.24C448.875 45.24 451.029 45.5052 453.282 46.0355C455.536 46.4995 457.69 47.2949 459.745 48.4217C461.799 49.4823 463.523 50.9075 464.914 52.6972C465.644 53.6915 466.074 54.8846 466.207 56.2766C466.339 57.6686 465.71 58.928 464.318 60.0549C463.324 60.8503 462.164 61.2149 460.838 61.1486C459.513 61.016 458.419 60.552 457.558 59.7566C456.431 58.2983 454.906 57.1383 452.984 56.2766C451.128 55.4149 448.974 54.984 446.522 54.984C445.528 54.984 444.434 55.1166 443.241 55.3817C442.114 55.5806 441.12 56.0777 440.259 56.8732C439.397 57.6023 438.966 58.7955 438.966 60.4526C438.966 61.9772 439.463 63.2035 440.457 64.1315C441.452 64.9932 442.777 65.7223 444.434 66.3189C446.158 66.8492 447.98 67.3795 449.902 67.9097C451.891 68.44 453.912 69.0697 455.967 69.7989C458.021 70.528 459.91 71.4892 461.634 72.6823C463.357 73.8755 464.749 75.4332 465.809 77.3554C466.87 79.2114 467.4 81.5977 467.4 84.5143C467.4 87.8949 466.406 90.7783 464.417 93.1646C462.429 95.5509 459.944 97.3737 456.961 98.6332C453.978 99.8263 450.93 100.423 447.814 100.423C443.904 100.423 439.994 99.76 436.083 98.4343C432.173 97.0423 428.925 94.6229 426.34 91.176Z" fill="#10393B"/>
</svg>
