<svg width="76" height="78" viewBox="0 0 76 78" fill="none" xmlns="http://www.w3.org/2000/svg">
<path d="M25.5319 17.4561L25.5839 17.37L25.6113 17.2733C26.9157 12.6782 31.472 9.22849 36.9574 9.22849C43.49 9.22849 48.6817 14.105 48.6817 19.9973C48.6817 20.7536 48.5969 21.491 48.4358 22.2022L48.1975 23.254L49.2664 23.1114C49.8211 23.0374 50.3887 22.999 50.9664 22.999C57.499 22.999 62.6908 27.8756 62.6908 33.7679C62.6908 39.6602 57.499 44.5367 50.9664 44.5367H14.9646C8.43201 44.5367 3.24023 39.6602 3.24023 33.7679C3.24023 30.6541 4.67999 27.8372 7.00598 25.8609C9.09207 24.0884 11.8855 22.999 14.9646 22.999H16.5842C18.8687 22.999 20.8398 22.0473 22.3518 20.9047C23.8614 19.764 24.9649 18.3954 25.5319 17.4561Z" stroke="#197BBD" stroke-width="1.5"/>
<path d="M42.3306 59.9567V50.7089" stroke="#197BBD" stroke-width="1.5" stroke-linecap="round" stroke-linejoin="round"/>
<path d="M37.3242 55.3328L42.3317 50.7089L47.3392 55.3328" stroke="#197BBD" stroke-width="1.5" stroke-linecap="round" stroke-linejoin="round"/>
<path d="M24.4478 42.7831L29.4552 38.1592L34.4627 42.7831" stroke="#197BBD" stroke-width="0.683017" stroke-linecap="round" stroke-linejoin="round"/>
<g clip-path="url(#clip0_422_304)">
<path d="M26.4037 58.0537L17.2988 66.4612C16.74 66.9771 16.74 67.8136 17.2988 68.3295L23.3687 73.9346C23.9275 74.4505 24.8333 74.4505 25.3921 73.9346L34.497 65.527C35.0558 65.0111 35.0558 64.1746 34.497 63.6587L28.4271 58.0537C27.8683 57.5378 26.9625 57.5378 26.4037 58.0537Z" stroke="#197BBD" stroke-width="1.5" stroke-linecap="round" stroke-linejoin="round"/>
<path d="M19.3223 70.1975L30.4506 59.9216" stroke="#197BBD" stroke-width="1.5" stroke-linecap="round" stroke-linejoin="round"/>
</g>
<path d="M28.9225 10.8909C32.3224 16.3286 30.3238 23.3286 24.3696 26.5029C18.4154 29.6773 10.851 27.7755 7.45116 22.3379C4.05129 16.9002 6.04989 9.9002 12.0041 6.72586C17.9583 3.55152 25.5227 5.45325 28.9225 10.8909Z" stroke="#197BBD" stroke-width="1.5"/>
<path d="M20.4139 20.0142C19.7828 20.3614 19.1701 20.5594 18.5758 20.6082C17.9814 20.657 17.3451 20.5941 16.6669 20.4196C16.6049 20.4097 16.5421 20.3896 16.4785 20.3592C16.4232 20.3243 16.3755 20.2747 16.3352 20.2104C16.2749 20.1139 16.2572 20.0054 16.2823 19.8848C16.3157 19.7598 16.3826 19.6705 16.483 19.6169C16.5835 19.5634 16.7007 19.5545 16.8346 19.5903C17.3722 19.7541 17.9014 19.8151 18.4221 19.7734C18.9511 19.7272 19.4542 19.5769 19.9312 19.3226C20.3329 19.1085 20.6509 18.8585 20.8852 18.5728C21.1278 18.2826 21.2707 17.9759 21.3141 17.6526C21.3574 17.3292 21.2861 17.0188 21.1 16.7213C20.8687 16.3513 20.5781 16.1096 20.2281 15.996C19.873 15.8743 19.4787 15.8326 19.0451 15.8707C18.6064 15.9009 18.1401 15.9672 17.6462 16.0696C17.2428 16.1561 16.8485 16.2215 16.4634 16.266C16.0733 16.3024 15.7016 16.2968 15.3483 16.2493C14.9899 16.1938 14.6608 16.069 14.361 15.875C14.0612 15.681 13.7931 15.395 13.5568 15.0171C13.2903 14.5909 13.1712 14.1504 13.1994 13.6958C13.2275 13.2412 13.3972 12.8076 13.7084 12.3951C14.0229 11.9701 14.4647 11.6059 15.0338 11.3025C15.5276 11.0392 16.0507 10.8675 16.6032 10.7874C17.1641 10.7029 17.6765 10.746 18.1404 10.9169C18.3464 10.9786 18.482 11.0617 18.5474 11.1663C18.5977 11.2467 18.6061 11.3494 18.5727 11.4745C18.5393 11.5995 18.4724 11.6888 18.3719 11.7423C18.2883 11.7869 18.1995 11.7967 18.1057 11.7717C17.8579 11.6786 17.5849 11.6258 17.2869 11.6131C16.9838 11.5924 16.6757 11.6173 16.3627 11.6877C16.058 11.7536 15.7634 11.8625 15.4788 12.0142C15.0855 12.2239 14.7675 12.4738 14.5249 12.764C14.2856 13.0416 14.1418 13.3381 14.0934 13.6534C14.0534 13.9642 14.129 14.2724 14.32 14.578C14.5312 14.9158 14.8051 15.1397 15.1417 15.2497C15.4783 15.3597 15.8551 15.4001 16.272 15.3709C16.6839 15.3336 17.1116 15.2771 17.5553 15.2014C17.9755 15.106 18.389 15.0357 18.7959 14.9903C19.2061 14.9325 19.5945 14.9291 19.9612 14.9802C20.3363 15.0269 20.683 15.153 21.0012 15.3586C21.3279 15.5597 21.6244 15.8734 21.8909 16.2996C22.1473 16.7098 22.2573 17.1444 22.2207 17.6035C22.1841 18.0626 22.0128 18.5024 21.7066 18.9229C21.4089 19.339 20.9779 19.7028 20.4139 20.0142ZM21.6402 21.1457C21.7005 21.2422 21.7157 21.3467 21.6856 21.4592C21.6639 21.5673 21.5986 21.6504 21.4898 21.7084C21.381 21.7664 21.2664 21.7793 21.1458 21.747C21.0336 21.7104 20.9473 21.6438 20.887 21.5473L14.0539 10.6186C13.9885 10.5141 13.9692 10.4118 13.996 10.3118C14.026 10.1992 14.0996 10.1118 14.2168 10.0493C14.3256 9.99128 14.4361 9.98062 14.5483 10.0173C14.6555 10.0459 14.7418 10.1125 14.8071 10.2171L21.6402 21.1457Z" fill="#197BBD"/>
<path d="M2.49023 33.7666C2.49023 40.1283 8.07519 45.2854 14.9646 45.2854H50.9664C57.8558 45.2854 63.4408 40.1283 63.4408 33.7666C63.4408 27.4049 57.8558 22.2478 50.9664 22.2478C50.3555 22.2478 49.7547 22.2884 49.1673 22.3667C49.3406 21.6017 49.4317 20.8087 49.4317 19.9961C49.4317 13.6344 43.8468 8.47725 36.9574 8.47725C31.164 8.47725 26.293 12.1241 24.8898 17.0673C23.8474 18.7941 20.7269 22.2478 16.5842 22.2478H14.9646C11.7075 22.2478 8.74201 23.4005 6.52036 25.2881C4.04272 27.3933 2.49023 30.4125 2.49023 33.7666Z" fill="white"/>
<path d="M25.5319 17.4549L25.5839 17.3688L25.6113 17.2721C26.9157 12.677 31.472 9.22725 36.9574 9.22725C43.49 9.22725 48.6817 14.1038 48.6817 19.9961C48.6817 20.7524 48.5969 21.4898 48.4358 22.201L48.1975 23.2527L49.2664 23.1101C49.8211 23.0362 50.3887 22.9978 50.9664 22.9978C57.499 22.9978 62.6908 27.8743 62.6908 33.7666C62.6908 39.6589 57.499 44.5354 50.9664 44.5354H14.9646C8.43201 44.5354 3.24023 39.6589 3.24023 33.7666C3.24023 30.6528 4.67999 27.836 7.00598 25.8597C9.09207 24.0872 11.8855 22.9978 14.9646 22.9978H16.5842C18.8687 22.9978 20.8398 22.046 22.3518 20.9035C23.8614 19.7627 24.9649 18.3942 25.5319 17.4549Z" stroke="#197BBD" stroke-width="1.5"/>
<path d="M72.2078 13.3171C72.0483 14.9107 71.4007 16.4293 70.3406 17.6954C69.2805 18.9614 67.8519 19.9225 66.2219 20.4662C64.5918 21.0099 62.8278 21.1137 61.1363 20.7654C59.4447 20.4171 57.8955 19.6312 56.6701 18.4995C55.4446 17.3679 54.5934 15.9374 54.2163 14.3754C53.8391 12.8134 53.9515 11.1846 54.5402 9.67941C55.129 8.17424 56.1698 6.85504 57.5409 5.87617C58.912 4.89729 60.5567 4.29923 62.2824 4.15197C61.272 5.41418 60.7858 6.96933 60.9122 8.53458C61.0387 10.0998 61.7693 11.5712 62.9712 12.6811C64.1731 13.7909 65.7666 14.4656 67.4617 14.5823C69.1567 14.699 70.8409 14.2501 72.2078 13.3171V13.3171Z" stroke="#197BBD" stroke-width="1.5" stroke-linecap="round" stroke-linejoin="round"/>
<path d="M20.8711 40.8468C20.8711 38.6376 22.662 36.8468 24.8711 36.8468H34.0396C36.2487 36.8468 38.0396 38.6376 38.0396 40.8468V45.9902C38.0396 48.1993 36.2487 49.9902 34.0396 49.9902H24.8711C22.662 49.9902 20.8711 48.1993 20.8711 45.9902V40.8468Z" fill="white"/>
<path d="M29.4551 47.4056V38.1578" stroke="#197BBD" stroke-width="1.5" stroke-linecap="round" stroke-linejoin="round"/>
<path d="M29.4551 46.0946V36.8468" stroke="#197BBD" stroke-width="1.5" stroke-linecap="round" stroke-linejoin="round"/>
<path d="M24.4473 41.4707L29.4547 36.8468L34.4622 41.4707" stroke="#197BBD" stroke-width="1.5" stroke-linecap="round" stroke-linejoin="round"/>
<defs>
<clipPath id="clip0_422_304">
<path d="M16.6975 68.7075C15.0745 67.2088 15.0745 64.7789 16.6975 63.2802L22.96 57.4975C24.583 55.9988 27.2145 55.9988 28.8375 57.4975L35.0999 63.2802C36.723 64.7789 36.723 67.2088 35.0999 68.7075L28.8375 74.4903C27.2145 75.989 24.583 75.989 22.96 74.4903L16.6975 68.7075Z" fill="white"/>
</clipPath>
</defs>
</svg>
