<svg width="17" height="17" viewBox="0 0 17 17" fill="none" xmlns="http://www.w3.org/2000/svg">
<path d="M7 0C4.79086 0 3 1.79086 3 4C3 6.20914 4.79086 8 7 8C9.20914 8 11 6.20914 11 4C11 1.79086 9.20914 0 7 0ZM4 4C4 2.34315 5.34315 1 7 1C8.65685 1 10 2.34315 10 4C10 5.65685 8.65685 7 7 7C5.34315 7 4 5.65685 4 4ZM2.00873 9C0.903151 9 0 9.88687 0 11C0 12.6912 0.83281 13.9663 2.13499 14.7966C3.41697 15.614 5.14526 16 7 16C7.41085 16 7.8155 15.9811 8.21047 15.9427C7.97298 15.6472 7.7654 15.3266 7.59233 14.9855C7.39798 14.9951 7.20041 15 7 15C5.26489 15 3.74318 14.636 2.67262 13.9534C1.62226 13.2837 1 12.3088 1 11C1 10.4467 1.44786 10 2.00873 10L7.59971 10C7.7826 9.64222 8.00353 9.30711 8.25716 9L2.00873 9ZM12.5 17C14.9853 17 17 14.9853 17 12.5C17 10.0147 14.9853 8 12.5 8C10.0147 8 8 10.0147 8 12.5C8 14.9853 10.0147 17 12.5 17ZM12.5 10C12.7761 10 13 10.2239 13 10.5V12H14.5C14.7761 12 15 12.2239 15 12.5C15 12.7761 14.7761 13 14.5 13H13V14.5C13 14.7761 12.7761 15 12.5 15C12.2239 15 12 14.7761 12 14.5V13H10.5C10.2239 13 10 12.7761 10 12.5C10 12.2239 10.2239 12 10.5 12H12V10.5C12 10.2239 12.2239 10 12.5 10Z" fill="white"/>
</svg>
