<svg width="24" height="24" viewBox="0 0 24 24" fill="none" xmlns="http://www.w3.org/2000/svg">
<path d="M12 0C5.37 0 0 5.50948 0 12.3045C0 17.742 3.438 22.3531 8.205 23.9788C8.805 24.0946 9.025 23.7137 9.025 23.3871C9.025 23.095 9.015 22.3207 9.01 21.295C5.672 22.0369 4.968 19.6442 4.968 19.6442C4.422 18.2241 3.633 17.8443 3.633 17.8443C2.546 17.0815 3.717 17.0971 3.717 17.0971C4.922 17.1827 5.555 18.3649 5.555 18.3649C6.625 20.2463 8.364 19.7027 9.05 19.3886C9.158 18.5924 9.467 18.0509 9.81 17.743C7.145 17.4352 4.344 16.3771 4.344 11.6628C4.344 10.3198 4.809 9.22212 5.579 8.36127C5.444 8.05031 5.039 6.7992 5.684 5.10462C5.684 5.10462 6.689 4.77489 8.984 6.36617C9.944 6.09278 10.964 5.95713 11.984 5.95087C13.004 5.95713 14.024 6.09278 14.984 6.36617C17.264 4.77489 18.269 5.10462 18.269 5.10462C18.914 6.7992 18.509 8.05031 18.389 8.36127C19.154 9.22212 19.619 10.3198 19.619 11.6628C19.619 16.3897 16.814 17.43 14.144 17.7326C14.564 18.102 14.954 18.8564 14.954 20.0094C14.954 21.656 14.939 22.9791 14.939 23.3788C14.939 23.7012 15.149 24.0863 15.764 23.9631C20.565 22.3478 24 17.7337 24 12.3045C24 5.50948 18.627 0 12 0Z" fill="white"/>
</svg>
