<svg width="28" height="30" viewBox="0 0 28 30" fill="none" xmlns="http://www.w3.org/2000/svg">
<g clip-path="url(#clip0_422_702)">
<path d="M10.6479 15.4393C11.8906 15.4393 12.8979 16.4467 12.8979 17.6893V23.1893C12.8979 24.432 11.8906 25.4393 10.6479 25.4393H5.14795C3.90531 25.4393 2.89795 24.432 2.89795 23.1893V17.6893C2.89795 16.4467 3.90531 15.4393 5.14795 15.4393H10.6479ZM22.6479 15.4393C23.8906 15.4393 24.8979 16.4467 24.8979 17.6893V23.1893C24.8979 24.432 23.8906 25.4393 22.6479 25.4393H17.1479C15.9053 25.4393 14.8979 24.432 14.8979 23.1893V17.6893C14.8979 16.4467 15.9053 15.4393 17.1479 15.4393H22.6479ZM10.6479 16.9393H5.14795C4.73374 16.9393 4.39795 17.2751 4.39795 17.6893V23.1893C4.39795 23.6035 4.73374 23.9393 5.14795 23.9393H10.6479C11.0622 23.9393 11.3979 23.6035 11.3979 23.1893V17.6893C11.3979 17.2751 11.0622 16.9393 10.6479 16.9393ZM22.6479 16.9393H17.1479C16.7337 16.9393 16.3979 17.2751 16.3979 17.6893V23.1893C16.3979 23.6035 16.7337 23.9393 17.1479 23.9393H22.6479C23.0622 23.9393 23.3979 23.6035 23.3979 23.1893V17.6893C23.3979 17.2751 23.0622 16.9393 22.6479 16.9393ZM10.6479 3.43933C11.8906 3.43933 12.8979 4.44669 12.8979 5.68933V11.1893C12.8979 12.432 11.8906 13.4393 10.6479 13.4393H5.14795C3.90531 13.4393 2.89795 12.432 2.89795 11.1893V5.68933C2.89795 4.44669 3.90531 3.43933 5.14795 3.43933H10.6479ZM22.6479 3.43933C23.8906 3.43933 24.8979 4.44669 24.8979 5.68933V11.1893C24.8979 12.432 23.8906 13.4393 22.6479 13.4393H17.1479C15.9053 13.4393 14.8979 12.432 14.8979 11.1893V5.68933C14.8979 4.44669 15.9053 3.43933 17.1479 3.43933H22.6479ZM10.6479 4.93933H5.14795C4.73374 4.93933 4.39795 5.27512 4.39795 5.68933V11.1893C4.39795 11.6035 4.73374 11.9393 5.14795 11.9393H10.6479C11.0622 11.9393 11.3979 11.6035 11.3979 11.1893V5.68933C11.3979 5.27512 11.0622 4.93933 10.6479 4.93933ZM22.6479 4.93933H17.1479C16.7337 4.93933 16.3979 5.27512 16.3979 5.68933V11.1893C16.3979 11.6035 16.7337 11.9393 17.1479 11.9393H22.6479C23.0622 11.9393 23.3979 11.6035 23.3979 11.1893V5.68933C23.3979 5.27512 23.0622 4.93933 22.6479 4.93933Z" fill="white"/>
</g>
<defs>
<clipPath id="clip0_422_702">
<path d="M0 4C0 1.79086 1.79086 0 4 0H23.9335C26.1426 0 27.9335 1.79086 27.9335 4V25.233C27.9335 27.4421 26.1426 29.233 23.9335 29.233H4C1.79086 29.233 0 27.4421 0 25.233V4Z" fill="white"/>
</clipPath>
</defs>
</svg>
