<svg width="32" height="30" viewBox="0 0 32 30" fill="none" xmlns="http://www.w3.org/2000/svg">
<path d="M12.6479 15.4393C13.8906 15.4393 14.8979 16.4467 14.8979 17.6893V23.1893C14.8979 24.432 13.8906 25.4393 12.6479 25.4393H7.14795C5.90531 25.4393 4.89795 24.432 4.89795 23.1893V17.6893C4.89795 16.4467 5.90531 15.4393 7.14795 15.4393H12.6479ZM24.6479 15.4393C25.8906 15.4393 26.8979 16.4467 26.8979 17.6893V23.1893C26.8979 24.432 25.8906 25.4393 24.6479 25.4393H19.1479C17.9053 25.4393 16.8979 24.432 16.8979 23.1893V17.6893C16.8979 16.4467 17.9053 15.4393 19.1479 15.4393H24.6479ZM12.6479 16.9393H7.14795C6.73374 16.9393 6.39795 17.2751 6.39795 17.6893V23.1893C6.39795 23.6035 6.73374 23.9393 7.14795 23.9393H12.6479C13.0622 23.9393 13.3979 23.6035 13.3979 23.1893V17.6893C13.3979 17.2751 13.0622 16.9393 12.6479 16.9393ZM24.6479 16.9393H19.1479C18.7337 16.9393 18.3979 17.2751 18.3979 17.6893V23.1893C18.3979 23.6035 18.7337 23.9393 19.1479 23.9393H24.6479C25.0622 23.9393 25.3979 23.6035 25.3979 23.1893V17.6893C25.3979 17.2751 25.0622 16.9393 24.6479 16.9393ZM12.6479 3.43933C13.8906 3.43933 14.8979 4.44669 14.8979 5.68933V11.1893C14.8979 12.432 13.8906 13.4393 12.6479 13.4393H7.14795C5.90531 13.4393 4.89795 12.432 4.89795 11.1893V5.68933C4.89795 4.44669 5.90531 3.43933 7.14795 3.43933H12.6479ZM24.6479 3.43933C25.8906 3.43933 26.8979 4.44669 26.8979 5.68933V11.1893C26.8979 12.432 25.8906 13.4393 24.6479 13.4393H19.1479C17.9053 13.4393 16.8979 12.432 16.8979 11.1893V5.68933C16.8979 4.44669 17.9053 3.43933 19.1479 3.43933H24.6479ZM12.6479 4.93933H7.14795C6.73374 4.93933 6.39795 5.27512 6.39795 5.68933V11.1893C6.39795 11.6035 6.73374 11.9393 7.14795 11.9393H12.6479C13.0622 11.9393 13.3979 11.6035 13.3979 11.1893V5.68933C13.3979 5.27512 13.0622 4.93933 12.6479 4.93933ZM24.6479 4.93933H19.1479C18.7337 4.93933 18.3979 5.27512 18.3979 5.68933V11.1893C18.3979 11.6035 18.7337 11.9393 19.1479 11.9393H24.6479C25.0622 11.9393 25.3979 11.6035 25.3979 11.1893V5.68933C25.3979 5.27512 25.0622 4.93933 24.6479 4.93933Z" fill="#404040"/>
</svg>
