<svg width="33" height="30" viewBox="0 0 33 30" fill="none" xmlns="http://www.w3.org/2000/svg">
<path d="M16.7964 17.076C18.1455 17.076 19.2392 16.0661 19.2392 14.8203C19.2392 13.5745 18.1455 12.5645 16.7964 12.5645C15.4472 12.5645 14.3535 13.5745 14.3535 14.8203C14.3535 16.0661 15.4472 17.076 16.7964 17.076Z" stroke="#404040" stroke-width="2" stroke-linecap="round" stroke-linejoin="round"/>
<path d="M22.8218 17.0758C22.7134 17.3026 22.6811 17.5542 22.729 17.7981C22.7768 18.042 22.9028 18.2671 23.0905 18.4443L23.1394 18.4894C23.2908 18.6291 23.4109 18.7949 23.4929 18.9775C23.5748 19.1601 23.617 19.3557 23.617 19.5534C23.617 19.751 23.5748 19.9467 23.4929 20.1292C23.4109 20.3118 23.2908 20.4777 23.1394 20.6173C22.9881 20.7571 22.8085 20.8681 22.6108 20.9437C22.4131 21.0194 22.2012 21.0584 21.9871 21.0584C21.7731 21.0584 21.5612 21.0194 21.3635 20.9437C21.1658 20.8681 20.9862 20.7571 20.8349 20.6173L20.7861 20.5722C20.5942 20.3989 20.3504 20.2826 20.0863 20.2384C19.8221 20.1941 19.5497 20.224 19.3041 20.3241C19.0632 20.4194 18.8578 20.5777 18.7131 20.7794C18.5685 20.9811 18.4908 21.2175 18.4898 21.4595V21.5873C18.4898 21.9861 18.3182 22.3686 18.0128 22.6507C17.7074 22.9327 17.2931 23.0911 16.8612 23.0911C16.4293 23.0911 16.015 22.9327 15.7096 22.6507C15.4042 22.3686 15.2326 21.9861 15.2326 21.5873V21.5196C15.2263 21.2707 15.1391 21.0294 14.9822 20.8269C14.8254 20.6244 14.6062 20.4702 14.3532 20.3842C14.1076 20.2841 13.8351 20.2543 13.571 20.2985C13.3068 20.3427 13.0631 20.459 12.8712 20.6324L12.8223 20.6775C12.6711 20.8173 12.4915 20.9282 12.2937 21.0039C12.096 21.0796 11.8841 21.1185 11.6701 21.1185C11.4561 21.1185 11.2442 21.0796 11.0464 21.0039C10.8487 20.9282 10.6691 20.8173 10.5179 20.6775C10.3665 20.5378 10.2463 20.372 10.1644 20.1894C10.0824 20.0068 10.0402 19.8112 10.0402 19.6135C10.0402 19.4159 10.0824 19.2202 10.1644 19.0376C10.2463 18.8551 10.3665 18.6892 10.5179 18.5496L10.5667 18.5044C10.7545 18.3272 10.8804 18.1022 10.9283 17.8582C10.9762 17.6143 10.9438 17.3628 10.8355 17.136C10.7322 16.9136 10.5608 16.7239 10.3424 16.5903C10.1239 16.4567 9.8679 16.385 9.60587 16.3841H9.46745C9.03552 16.3841 8.62128 16.2256 8.31587 15.9436C8.01045 15.6616 7.83887 15.2791 7.83887 14.8802C7.83887 14.4814 8.01045 14.0989 8.31587 13.8169C8.62128 13.5348 9.03552 13.3764 9.46745 13.3764H9.54073C9.81026 13.3706 10.0717 13.29 10.2909 13.1452C10.5102 13.0004 10.6772 12.798 10.7703 12.5643C10.8787 12.3375 10.911 12.086 10.8631 11.842C10.8152 11.5981 10.6893 11.3731 10.5016 11.1958L10.4527 11.1507C10.3013 11.0111 10.1812 10.8452 10.0992 10.6626C10.0173 10.4801 9.97509 10.2844 9.97509 10.0868C9.97509 9.88914 10.0173 9.69345 10.0992 9.51089C10.1812 9.32833 10.3013 9.16247 10.4527 9.02281C10.604 8.88299 10.7836 8.77207 10.9813 8.69639C11.179 8.62071 11.3909 8.58176 11.605 8.58176C11.819 8.58176 12.0309 8.62071 12.2286 8.69639C12.4263 8.77207 12.6059 8.88299 12.7572 9.02281L12.806 9.06792C12.9979 9.24127 13.2417 9.35755 13.5058 9.40178C13.77 9.446 14.0424 9.41615 14.288 9.31606H14.3532C14.594 9.22074 14.7994 9.06248 14.9441 8.86075C15.0888 8.65901 15.1664 8.42262 15.1675 8.18067V8.05284C15.1675 7.654 15.3391 7.2715 15.6445 6.98947C15.9499 6.70745 16.3641 6.54901 16.796 6.54901C17.228 6.54901 17.6422 6.70745 17.9476 6.98947C18.253 7.2715 18.4246 7.654 18.4246 8.05284V8.12051C18.4257 8.36247 18.5033 8.59886 18.648 8.80059C18.7927 9.00232 18.9981 9.16059 19.2389 9.2559C19.4845 9.35599 19.757 9.38585 20.0211 9.34162C20.2853 9.2974 20.529 9.18112 20.7209 9.00777L20.7698 8.96266C20.921 8.82284 21.1006 8.71191 21.2983 8.63624C21.4961 8.56056 21.708 8.5216 21.922 8.5216C22.136 8.5216 22.3479 8.56056 22.5456 8.63624C22.7434 8.71191 22.923 8.82284 23.0742 8.96266C23.2256 9.10232 23.3458 9.26818 23.4277 9.45074C23.5097 9.6333 23.5519 9.82899 23.5519 10.0266C23.5519 10.2242 23.5097 10.4199 23.4277 10.6025C23.3458 10.7851 23.2256 10.9509 23.0742 11.0906L23.0254 11.1357C22.8376 11.3129 22.7117 11.538 22.6638 11.7819C22.6159 12.0258 22.6482 12.2774 22.7566 12.5042V12.5643C22.8599 12.7867 23.0313 12.9764 23.2497 13.11C23.4682 13.2436 23.7242 13.3153 23.9862 13.3162H24.1246C24.5566 13.3162 24.9708 13.4747 25.2762 13.7567C25.5816 14.0387 25.7532 14.4212 25.7532 14.8201C25.7532 15.2189 25.5816 15.6014 25.2762 15.8834C24.9708 16.1655 24.5566 16.3239 24.1246 16.3239H24.0514C23.7893 16.3249 23.5333 16.3966 23.3149 16.5302C23.0964 16.6638 22.925 16.8534 22.8218 17.0758V17.0758Z" stroke="#404040" stroke-width="2" stroke-linecap="round" stroke-linejoin="round"/>
</svg>
