<svg width="28" height="30" viewBox="0 0 28 30" fill="none" xmlns="http://www.w3.org/2000/svg">
<path d="M13.967 16.8726C15.1574 16.8726 16.1225 15.8626 16.1225 14.6168C16.1225 13.371 15.1574 12.3611 13.967 12.3611C12.7766 12.3611 11.8115 13.371 11.8115 14.6168C11.8115 15.8626 12.7766 16.8726 13.967 16.8726Z" stroke="white" stroke-width="2" stroke-linecap="round" stroke-linejoin="round"/>
<path d="M19.2837 16.8724C19.1881 17.0992 19.1595 17.3507 19.2018 17.5947C19.244 17.8386 19.3552 18.0637 19.5208 18.2409L19.5639 18.286C19.6975 18.4256 19.8035 18.5915 19.8758 18.7741C19.9481 18.9566 19.9854 19.1523 19.9854 19.3499C19.9854 19.5476 19.9481 19.7433 19.8758 19.9258C19.8035 20.1084 19.6975 20.2742 19.5639 20.4139C19.4305 20.5537 19.272 20.6646 19.0975 20.7403C18.9231 20.816 18.7361 20.855 18.5472 20.855C18.3584 20.855 18.1714 20.816 17.997 20.7403C17.8225 20.6646 17.664 20.5537 17.5306 20.4139L17.4875 20.3688C17.3181 20.1954 17.1031 20.0792 16.87 20.0349C16.6369 19.9907 16.3965 20.0206 16.1798 20.1207C15.9673 20.216 15.7861 20.3742 15.6584 20.576C15.5308 20.7777 15.4623 21.0141 15.4613 21.256V21.3839C15.4613 21.7827 15.3099 22.1652 15.0404 22.4472C14.771 22.7293 14.4055 22.8877 14.0243 22.8877C13.6432 22.8877 13.2777 22.7293 13.0083 22.4472C12.7388 22.1652 12.5874 21.7827 12.5874 21.3839V21.3162C12.5818 21.0673 12.5048 20.8259 12.3664 20.6235C12.2281 20.421 12.0347 20.2667 11.8114 20.1808C11.5947 20.0807 11.3543 20.0509 11.1212 20.0951C10.8882 20.1393 10.6731 20.2556 10.5037 20.4289L10.4606 20.4741C10.3272 20.6139 10.1687 20.7248 9.99425 20.8005C9.8198 20.8762 9.63282 20.9151 9.44397 20.9151C9.25513 20.9151 9.06814 20.8762 8.8937 20.8005C8.71925 20.7248 8.56077 20.6139 8.42731 20.4741C8.2937 20.3344 8.18771 20.1685 8.1154 19.986C8.04308 19.8034 8.00586 19.6077 8.00586 19.4101C8.00586 19.2125 8.04308 19.0168 8.1154 18.8342C8.18771 18.6517 8.2937 18.4858 8.42731 18.3461L8.47042 18.301C8.63606 18.1238 8.74717 17.8987 8.78943 17.6548C8.83169 17.4109 8.80316 17.1593 8.70752 16.9325C8.61644 16.7101 8.46521 16.5205 8.27245 16.3869C8.07969 16.2533 7.8538 16.1816 7.6226 16.1806H7.50046C7.11935 16.1806 6.75384 16.0222 6.48436 15.7402C6.21487 15.4581 6.06348 15.0756 6.06348 14.6768C6.06348 14.278 6.21487 13.8954 6.48436 13.6134C6.75384 13.3314 7.11935 13.173 7.50046 13.173H7.56512C7.80294 13.1671 8.03358 13.0866 8.22707 12.9418C8.42055 12.7969 8.56793 12.5945 8.65004 12.3609C8.74568 12.1341 8.77421 11.8825 8.73195 11.6386C8.68969 11.3947 8.57858 11.1696 8.41294 10.9924L8.36983 10.9473C8.23623 10.8076 8.13024 10.6418 8.05792 10.4592C7.9856 10.2767 7.94838 10.081 7.94838 9.88334C7.94838 9.68571 7.9856 9.49002 8.05792 9.30746C8.13024 9.1249 8.23623 8.95904 8.36983 8.81938C8.50329 8.67956 8.66177 8.56864 8.83622 8.49296C9.01066 8.41728 9.19765 8.37833 9.38649 8.37833C9.57534 8.37833 9.76233 8.41728 9.93677 8.49296C10.1112 8.56864 10.2697 8.67956 10.4032 8.81938L10.4463 8.86449C10.6156 9.03784 10.8307 9.15412 11.0637 9.19835C11.2968 9.24257 11.5372 9.21272 11.7539 9.11263H11.8114C12.0239 9.01731 12.2051 8.85905 12.3328 8.65732C12.4605 8.45558 12.529 8.21919 12.5299 7.97724V7.84941C12.5299 7.45057 12.6813 7.06806 12.9508 6.78604C13.2203 6.50402 13.5858 6.34558 13.9669 6.34558C14.348 6.34558 14.7135 6.50402 14.983 6.78604C15.2525 7.06806 15.4039 7.45057 15.4039 7.84941V7.91708C15.4048 8.15904 15.4733 8.39543 15.6009 8.59716C15.7286 8.79889 15.9098 8.95716 16.1223 9.05247C16.339 9.15256 16.5794 9.18242 16.8125 9.13819C17.0456 9.09397 17.2607 8.97769 17.43 8.80434L17.4731 8.75923C17.6066 8.61941 17.765 8.50848 17.9395 8.43281C18.1139 8.35713 18.3009 8.31817 18.4898 8.31817C18.6786 8.31817 18.8656 8.35713 19.04 8.43281C19.2145 8.50848 19.373 8.61941 19.5064 8.75923C19.64 8.89889 19.746 9.06475 19.8183 9.24731C19.8907 9.42987 19.9279 9.62556 19.9279 9.82319C19.9279 10.0208 19.8907 10.2165 19.8183 10.3991C19.746 10.5816 19.64 10.7475 19.5064 10.8871L19.4633 10.9323C19.2977 11.1095 19.1866 11.3345 19.1443 11.5785C19.102 11.8224 19.1306 12.074 19.2262 12.3007V12.3609C19.3173 12.5833 19.4685 12.773 19.6613 12.9066C19.8541 13.0402 20.0799 13.1118 20.3111 13.1128H20.4333C20.8144 13.1128 21.1799 13.2712 21.4494 13.5533C21.7189 13.8353 21.8703 14.2178 21.8703 14.6166C21.8703 15.0155 21.7189 15.398 21.4494 15.68C21.1799 15.962 20.8144 16.1205 20.4333 16.1205H20.3686C20.1374 16.1214 19.9115 16.1931 19.7188 16.3267C19.526 16.4603 19.3748 16.65 19.2837 16.8724V16.8724Z" stroke="white" stroke-width="2" stroke-linecap="round" stroke-linejoin="round"/>
</svg>
