<svg xmlns="http://www.w3.org/2000/svg" xmlns:xlink="http://www.w3.org/1999/xlink" viewBox="0 0 500 500"><defs><linearGradient id="freepik--Degradado_sin_nombre_3--inject-16" x1="100.78" y1="184.41" x2="128.86" y2="227.62" gradientUnits="userSpaceOnUse"><stop offset="0" stop-color="#e6e6e6"></stop><stop offset="1" stop-color="#fff" stop-opacity="0"></stop></linearGradient><linearGradient id="freepik--Degradado_sin_nombre_3-2--inject-16" x1="10418.25" y1="221.58" x2="10438.94" y2="253.42" gradientTransform="matrix(-1, 0, 0, 1, 10833.28, 0)" xlink:href="freepik--#Degradado_sin_nombre_3--inject-16"></linearGradient></defs><g id="freepik--Floor--inject-16"><path d="M119.82,411.55c70.78,37,185.54,37,256.32,0s70.78-96.93,0-133.91-185.54-37-256.32,0S49,374.57,119.82,411.55Z" style="fill:#f0f0f0"></path></g><g id="freepik--Shadows--inject-16"><path d="M152.56,369.5,214.09,405a3.86,3.86,0,0,0,3.47,0l92.7-53.63c1-.55,1-1.44,0-2l-61.53-35.52a3.83,3.83,0,0,0-3.46,0L152.56,367.5A1.06,1.06,0,0,0,152.56,369.5Z" style="fill:#e0e0e0"></path><ellipse cx="139.11" cy="307.18" rx="40.89" ry="19.49" style="fill:#e0e0e0"></ellipse><ellipse cx="358.87" cy="346.97" rx="40.38" ry="19.25" style="fill:#e0e0e0"></ellipse></g><g id="freepik--charts-2--inject-16"><path d="M30,275.15c4.64-2.79,5.21-45,20.64-53.64s10,30,25.8,20.86c15-8.69,10.41-53.76,25.81-62.57s10.14,35.24,25.8,26.81c13.63-7.32,12.47-24.86,21.39-32.61s11,9.28,22.21,3.15,1.68-39.93,25.57-53.72v64.36L30,285Z" style="fill:url(#freepik--Degradado_sin_nombre_3--inject-16)"></path><path d="M30,275.9a.73.73,0,0,1-.64-.37.75.75,0,0,1,.25-1c1.35-.81,2.58-7.21,3.88-14,2.74-14.31,6.5-33.91,16.78-39.66,2.49-1.39,4.62-1.72,6.5-1,3.72,1.42,5.54,6.74,7.31,11.87,1.66,4.86,3.38,9.87,6.49,11,1.51.56,3.31.22,5.5-1.05,7.15-4.14,9.79-17.52,12.34-30.45,2.66-13.53,5.42-27.52,13.47-32.12,2.28-1.31,4.34-1.61,6.12-.89,4,1.62,5.83,7.89,7.76,14.53,1.76,6.09,3.59,12.39,7,13.84,1.38.58,3,.36,4.91-.68,7.58-4.07,10.45-11.44,13.22-18.56,2.1-5.42,4.1-10.54,8-14,4.92-4.27,8.09-1.63,11.16.92s6,5,11.18,2.14c4.26-2.32,5.38-9.36,6.67-17.51,2-12.41,4.42-27.85,18.89-36.2a.74.74,0,0,1,1,.27.76.76,0,0,1-.27,1c-13.85,8-16.24,23-18.16,35.13-1.36,8.54-2.53,15.92-7.43,18.6-6.1,3.32-9.85.2-12.86-2.3s-5.26-4.38-9.21-.94c-3.66,3.17-5.59,8.12-7.63,13.37-2.86,7.37-5.83,15-13.9,19.33-2.31,1.25-4.4,1.5-6.2.74-4.1-1.72-6-8.37-7.9-14.8-1.74-6-3.54-12.21-6.87-13.56-1.35-.54-2.93-.28-4.82.8-7.45,4.27-10.14,17.91-12.74,31.11-2.74,13.87-5.32,27-13.06,31.46-2.6,1.5-4.81,1.88-6.77,1.15-3.78-1.41-5.62-6.77-7.39-11.95-1.65-4.81-3.36-9.79-6.42-11-1.45-.55-3.16-.25-5.23.91-9.68,5.41-13.36,24.61-16,38.63-1.74,9.09-2.74,13.88-4.58,15A.76.76,0,0,1,30,275.9Z" style="fill:#e0e0e0"></path><path d="M102.28,180.75a.32.32,0,0,1-.32-.32v-.63a.32.32,0,0,1,.32-.32.32.32,0,0,1,.32.32v.63A.32.32,0,0,1,102.28,180.75Z" style="fill:#fafafa"></path><path d="M102.28,241.71a.31.31,0,0,1-.32-.31v-1.27a.32.32,0,0,1,.32-.32.32.32,0,0,1,.32.32v1.27A.32.32,0,0,1,102.28,241.71Zm0-2.54a.31.31,0,0,1-.32-.31v-1.27a.32.32,0,0,1,.32-.32.32.32,0,0,1,.32.32v1.27A.32.32,0,0,1,102.28,239.17Zm0-2.54a.31.31,0,0,1-.32-.31v-1.27a.32.32,0,0,1,.32-.32.32.32,0,0,1,.32.32v1.27A.32.32,0,0,1,102.28,236.63Zm0-2.54a.31.31,0,0,1-.32-.31v-1.27a.32.32,0,0,1,.32-.32.32.32,0,0,1,.32.32v1.27A.32.32,0,0,1,102.28,234.09Zm0-2.54a.31.31,0,0,1-.32-.31V230a.32.32,0,0,1,.32-.32.32.32,0,0,1,.32.32v1.27A.32.32,0,0,1,102.28,231.55Zm0-2.54a.31.31,0,0,1-.32-.31v-1.27a.32.32,0,0,1,.32-.32.32.32,0,0,1,.32.32v1.27A.32.32,0,0,1,102.28,229Zm0-2.54a.31.31,0,0,1-.32-.31v-1.27a.32.32,0,0,1,.32-.32.32.32,0,0,1,.32.32v1.27A.32.32,0,0,1,102.28,226.47Zm0-2.54a.32.32,0,0,1-.32-.32v-1.27a.31.31,0,0,1,.32-.31.32.32,0,0,1,.32.31v1.27A.32.32,0,0,1,102.28,223.93Zm0-2.54a.32.32,0,0,1-.32-.32V219.8a.31.31,0,0,1,.32-.31.32.32,0,0,1,.32.31v1.27A.32.32,0,0,1,102.28,221.39Zm0-2.54a.32.32,0,0,1-.32-.32v-1.27a.31.31,0,0,1,.32-.31.32.32,0,0,1,.32.31v1.27A.32.32,0,0,1,102.28,218.85Zm0-2.54A.32.32,0,0,1,102,216v-1.27a.31.31,0,0,1,.32-.31.32.32,0,0,1,.32.31V216A.32.32,0,0,1,102.28,216.31Zm0-2.54a.32.32,0,0,1-.32-.32v-1.27a.31.31,0,0,1,.32-.31.32.32,0,0,1,.32.31v1.27A.32.32,0,0,1,102.28,213.77Zm0-2.54a.32.32,0,0,1-.32-.32v-1.27a.31.31,0,0,1,.32-.31.32.32,0,0,1,.32.31v1.27A.32.32,0,0,1,102.28,211.23Zm0-2.54a.32.32,0,0,1-.32-.32V207.1a.31.31,0,0,1,.32-.31.32.32,0,0,1,.32.31v1.27A.32.32,0,0,1,102.28,208.69Zm0-2.54a.32.32,0,0,1-.32-.32v-1.27a.31.31,0,0,1,.32-.31.32.32,0,0,1,.32.31v1.27A.32.32,0,0,1,102.28,206.15Zm0-2.54a.32.32,0,0,1-.32-.32V202a.31.31,0,0,1,.32-.31.32.32,0,0,1,.32.31v1.27A.32.32,0,0,1,102.28,203.61Zm0-2.54a.32.32,0,0,1-.32-.32v-1.27a.31.31,0,0,1,.32-.31.32.32,0,0,1,.32.31v1.27A.32.32,0,0,1,102.28,201.07Zm0-2.54a.32.32,0,0,1-.32-.32v-1.27a.31.31,0,0,1,.32-.31.32.32,0,0,1,.32.31v1.27A.32.32,0,0,1,102.28,198.53Zm0-2.54a.32.32,0,0,1-.32-.32V194.4a.31.31,0,0,1,.32-.31.32.32,0,0,1,.32.31v1.27A.32.32,0,0,1,102.28,196Zm0-2.54a.32.32,0,0,1-.32-.32v-1.27a.31.31,0,0,1,.32-.31.32.32,0,0,1,.32.31v1.27A.32.32,0,0,1,102.28,193.45Zm0-2.54a.32.32,0,0,1-.32-.32v-1.27a.32.32,0,0,1,.32-.32.33.33,0,0,1,.32.32v1.27A.32.32,0,0,1,102.28,190.91Zm0-2.54a.32.32,0,0,1-.32-.32v-1.27a.32.32,0,0,1,.32-.32.33.33,0,0,1,.32.32v1.27A.32.32,0,0,1,102.28,188.37Zm0-2.54a.32.32,0,0,1-.32-.32v-1.27a.32.32,0,0,1,.32-.32.33.33,0,0,1,.32.32v1.27A.32.32,0,0,1,102.28,185.83Zm0-2.54A.32.32,0,0,1,102,183V181.7a.32.32,0,0,1,.32-.32.33.33,0,0,1,.32.32V183A.32.32,0,0,1,102.28,183.29Z" style="fill:#fafafa"></path><path d="M102.28,243.62a.32.32,0,0,1-.32-.32v-.63a.32.32,0,0,1,.32-.32.32.32,0,0,1,.32.32v.63A.32.32,0,0,1,102.28,243.62Z" style="fill:#fafafa"></path><path d="M152.54,173.28a.31.31,0,0,1-.31-.32v-.63a.32.32,0,1,1,.63,0V173A.32.32,0,0,1,152.54,173.28Z" style="fill:#fafafa"></path><path d="M152.54,212.16a.31.31,0,0,1-.31-.32v-1.29a.32.32,0,1,1,.63,0v1.29A.32.32,0,0,1,152.54,212.16Zm0-2.59a.31.31,0,0,1-.31-.32V208a.32.32,0,1,1,.63,0v1.29A.32.32,0,0,1,152.54,209.57Zm0-2.59a.31.31,0,0,1-.31-.32v-1.3a.32.32,0,0,1,.63,0v1.3A.32.32,0,0,1,152.54,207Zm0-2.6a.31.31,0,0,1-.31-.31v-1.3a.32.32,0,0,1,.63,0v1.3A.31.31,0,0,1,152.54,204.38Zm0-2.59a.31.31,0,0,1-.31-.31v-1.3a.32.32,0,1,1,.63,0v1.3A.31.31,0,0,1,152.54,201.79Zm0-2.59a.31.31,0,0,1-.31-.32v-1.29a.32.32,0,1,1,.63,0v1.29A.32.32,0,0,1,152.54,199.2Zm0-2.59a.31.31,0,0,1-.31-.32V195a.32.32,0,1,1,.63,0v1.29A.32.32,0,0,1,152.54,196.61Zm0-2.59a.32.32,0,0,1-.31-.32v-1.3a.32.32,0,0,1,.63,0v1.3A.32.32,0,0,1,152.54,194Zm0-2.6a.31.31,0,0,1-.31-.31v-1.3a.32.32,0,1,1,.63,0v1.3A.31.31,0,0,1,152.54,191.42Zm0-2.59a.31.31,0,0,1-.31-.32v-1.29a.32.32,0,1,1,.63,0v1.29A.32.32,0,0,1,152.54,188.83Zm0-2.59a.31.31,0,0,1-.31-.32v-1.29a.32.32,0,1,1,.63,0v1.29A.32.32,0,0,1,152.54,186.24Zm0-2.59a.31.31,0,0,1-.31-.32V182a.32.32,0,0,1,.63,0v1.3A.32.32,0,0,1,152.54,183.65Zm0-2.6a.31.31,0,0,1-.31-.31v-1.3a.32.32,0,0,1,.63,0v1.3A.31.31,0,0,1,152.54,181.05Zm0-2.59a.31.31,0,0,1-.31-.31v-1.3a.32.32,0,1,1,.63,0v1.3A.31.31,0,0,1,152.54,178.46Zm0-2.59a.31.31,0,0,1-.31-.32v-1.29a.32.32,0,1,1,.63,0v1.29A.32.32,0,0,1,152.54,175.87Z" style="fill:#fafafa"></path><path d="M152.54,214.09a.31.31,0,0,1-.31-.32v-.63a.32.32,0,1,1,.63,0v.63A.32.32,0,0,1,152.54,214.09Z" style="fill:#fafafa"></path><path d="M53.13,222.09a.32.32,0,0,1-.32-.32v-.63a.32.32,0,1,1,.63,0v.63A.31.31,0,0,1,53.13,222.09Z" style="fill:#fafafa"></path><path d="M53.13,263.81a.32.32,0,0,1-.32-.32v-1.3a.32.32,0,1,1,.63,0v1.3A.31.31,0,0,1,53.13,263.81Zm0-2.61a.31.31,0,0,1-.32-.31v-1.31a.32.32,0,0,1,.63,0v1.31A.31.31,0,0,1,53.13,261.2Zm0-2.61a.31.31,0,0,1-.32-.31V257a.32.32,0,0,1,.63,0v1.31A.31.31,0,0,1,53.13,258.59Zm0-2.6a.32.32,0,0,1-.32-.32v-1.3a.32.32,0,1,1,.63,0v1.3A.31.31,0,0,1,53.13,256Zm0-2.61a.32.32,0,0,1-.32-.32v-1.3a.32.32,0,1,1,.63,0v1.3A.31.31,0,0,1,53.13,253.38Zm0-2.61a.31.31,0,0,1-.32-.31v-1.31a.32.32,0,0,1,.63,0v1.31A.31.31,0,0,1,53.13,250.77Zm0-2.61a.31.31,0,0,1-.32-.31v-1.31a.32.32,0,0,1,.63,0v1.31A.31.31,0,0,1,53.13,248.16Zm0-2.6a.32.32,0,0,1-.32-.32v-1.3a.32.32,0,1,1,.63,0v1.3A.31.31,0,0,1,53.13,245.56Zm0-2.61a.32.32,0,0,1-.32-.32v-1.3a.32.32,0,1,1,.63,0v1.3A.31.31,0,0,1,53.13,243Zm0-2.61a.31.31,0,0,1-.32-.31v-1.31a.32.32,0,0,1,.63,0V240A.31.31,0,0,1,53.13,240.34Zm0-2.6a.32.32,0,0,1-.32-.32v-1.3a.32.32,0,1,1,.63,0v1.3A.32.32,0,0,1,53.13,237.74Zm0-2.61a.32.32,0,0,1-.32-.32v-1.3a.32.32,0,1,1,.63,0v1.3A.31.31,0,0,1,53.13,235.13Zm0-2.61a.32.32,0,0,1-.32-.32v-1.3a.32.32,0,1,1,.63,0v1.3A.31.31,0,0,1,53.13,232.52Zm0-2.61a.31.31,0,0,1-.32-.31v-1.31a.32.32,0,0,1,.63,0v1.31A.31.31,0,0,1,53.13,229.91Zm0-2.6a.32.32,0,0,1-.32-.32v-1.3a.32.32,0,1,1,.63,0V227A.32.32,0,0,1,53.13,227.31Zm0-2.61a.32.32,0,0,1-.32-.32v-1.3a.32.32,0,1,1,.63,0v1.3A.31.31,0,0,1,53.13,224.7Z" style="fill:#fafafa"></path><path d="M53.13,265.75a.32.32,0,0,1-.32-.32v-.63a.32.32,0,1,1,.63,0v.63A.32.32,0,0,1,53.13,265.75Z" style="fill:#fafafa"></path><path d="M467.17,288.45c-3.42-2.06-3.84-33.17-15.21-39.53s-7.4,22.1-19,15.37c-11.05-6.4-7.67-39.62-19-46.11s-7.47,26-19,19.76c-10-5.4-9.19-18.33-15.76-24s-8.08,6.84-16.37,2.32-1.24-29.42-18.84-39.59v47.44l123.24,71.62Z" style="fill:url(#freepik--Degradado_sin_nombre_3-2--inject-16)"></path><path d="M467.17,289.2a.79.79,0,0,1-.39-.11c-1.43-.86-2.13-4.24-3.46-11.18-2-10.29-4.68-24.39-11.73-28.34a4.35,4.35,0,0,0-3.69-.65c-2.17.83-3.41,4.45-4.61,8-1.33,3.86-2.7,7.85-5.57,8.92-1.5.56-3.19.28-5.16-.86-5.78-3.35-7.69-13.05-9.72-23.32-1.9-9.68-3.88-19.69-9.29-22.79a3.82,3.82,0,0,0-3.38-.58c-2.37,1-3.68,5.49-4.95,9.87-1.45,5-2.82,9.72-5.93,11a5.38,5.38,0,0,1-4.74-.55c-6-3.23-8.31-9.14-10.34-14.35-1.49-3.84-2.91-7.47-5.56-9.78s-4.28-1.18-6.54.69-5.08,4.24-9.7,1.72c-3.7-2-4.57-7.5-5.57-13.84-1.41-8.88-3.17-19.91-13.29-25.76a.75.75,0,0,1,.75-1.3c10.74,6.2,12.56,17.63,14,26.82.94,6,1.76,11.1,4.81,12.77,3.72,2,5.81.28,8-1.56s4.73-3.93,8.48-.67c2.94,2.55,4.41,6.34,6,10.36,2,5.22,4.12,10.61,9.65,13.58a4,4,0,0,0,3.45.49c2.45-1,3.78-5.63,5.07-10.07,1.43-4.94,2.78-9.61,5.83-10.84a5.29,5.29,0,0,1,4.68.66c6,3.45,8,13.8,10,23.81,1.87,9.49,3.8,19.3,9,22.31,1.55.9,2.82,1.15,3.88.76,2.2-.83,3.46-4.48,4.67-8,1.31-3.83,2.67-7.79,5.5-8.87a5.74,5.74,0,0,1,4.95.75c7.66,4.28,10.44,18.78,12.47,29.36.87,4.51,1.84,9.62,2.76,10.17a.75.75,0,0,1-.38,1.4Z" style="fill:#e0e0e0"></path><path d="M413.92,219.13a.33.33,0,0,1-.32-.32v-.63a.32.32,0,0,1,.32-.32.32.32,0,0,1,.32.32v.63A.32.32,0,0,1,413.92,219.13Z" style="fill:#fafafa"></path><path d="M413.92,263.36a.32.32,0,0,1-.32-.32v-1.3a.33.33,0,0,1,.32-.32.32.32,0,0,1,.32.32V263A.32.32,0,0,1,413.92,263.36Zm0-2.6a.32.32,0,0,1-.32-.32v-1.3a.32.32,0,0,1,.32-.32.32.32,0,0,1,.32.32v1.3A.32.32,0,0,1,413.92,260.76Zm0-2.6a.33.33,0,0,1-.32-.32v-1.3a.32.32,0,0,1,.32-.32.32.32,0,0,1,.32.32v1.3A.32.32,0,0,1,413.92,258.16Zm0-2.61a.32.32,0,0,1-.32-.31v-1.3a.32.32,0,0,1,.32-.32.32.32,0,0,1,.32.32v1.3A.31.31,0,0,1,413.92,255.55Zm0-2.6a.32.32,0,0,1-.32-.32v-1.3a.32.32,0,0,1,.32-.31.31.31,0,0,1,.32.31v1.3A.32.32,0,0,1,413.92,253Zm0-2.6a.32.32,0,0,1-.32-.32v-1.3a.33.33,0,0,1,.32-.32.32.32,0,0,1,.32.32V250A.32.32,0,0,1,413.92,250.35Zm0-2.6a.32.32,0,0,1-.32-.32v-1.3a.32.32,0,0,1,.32-.32.32.32,0,0,1,.32.32v1.3A.32.32,0,0,1,413.92,247.75Zm0-2.6a.33.33,0,0,1-.32-.32v-1.3a.32.32,0,0,1,.32-.32.32.32,0,0,1,.32.32v1.3A.32.32,0,0,1,413.92,245.15Zm0-2.61a.32.32,0,0,1-.32-.31v-1.3a.32.32,0,0,1,.32-.32.32.32,0,0,1,.32.32v1.3A.31.31,0,0,1,413.92,242.54Zm0-2.6a.32.32,0,0,1-.32-.32v-1.3a.32.32,0,0,1,.32-.31.31.31,0,0,1,.32.31v1.3A.32.32,0,0,1,413.92,239.94Zm0-2.6a.32.32,0,0,1-.32-.32v-1.3a.32.32,0,0,1,.32-.31.31.31,0,0,1,.32.31V237A.32.32,0,0,1,413.92,237.34Zm0-2.6a.32.32,0,0,1-.32-.32v-1.3a.32.32,0,0,1,.32-.32.32.32,0,0,1,.32.32v1.3A.32.32,0,0,1,413.92,234.74Zm0-2.6a.33.33,0,0,1-.32-.32v-1.3a.32.32,0,0,1,.32-.32.32.32,0,0,1,.32.32v1.3A.32.32,0,0,1,413.92,232.14Zm0-2.61a.32.32,0,0,1-.32-.31v-1.3a.32.32,0,0,1,.32-.32.32.32,0,0,1,.32.32v1.3A.31.31,0,0,1,413.92,229.53Zm0-2.6a.32.32,0,0,1-.32-.32v-1.3a.32.32,0,0,1,.32-.31.31.31,0,0,1,.32.31v1.3A.32.32,0,0,1,413.92,226.93Zm0-2.6a.32.32,0,0,1-.32-.32v-1.3a.32.32,0,0,1,.32-.31.31.31,0,0,1,.32.31V224A.32.32,0,0,1,413.92,224.33Zm0-2.6a.32.32,0,0,1-.32-.32v-1.3a.33.33,0,0,1,.32-.32.32.32,0,0,1,.32.32v1.3A.32.32,0,0,1,413.92,221.73Z" style="fill:#fafafa"></path><path d="M413.92,265.29a.32.32,0,0,1-.32-.31v-.64a.32.32,0,0,1,.32-.31.31.31,0,0,1,.32.31V265A.31.31,0,0,1,413.92,265.29Z" style="fill:#fafafa"></path><path d="M376.88,213.62a.32.32,0,0,1-.32-.32v-.63a.32.32,0,1,1,.63,0v.63A.31.31,0,0,1,376.88,213.62Z" style="fill:#fafafa"></path><path d="M376.88,241.63a.32.32,0,0,1-.32-.32V240a.32.32,0,1,1,.63,0v1.27A.32.32,0,0,1,376.88,241.63Zm0-2.55a.32.32,0,0,1-.32-.32v-1.27a.32.32,0,1,1,.63,0v1.27A.31.31,0,0,1,376.88,239.08Zm0-2.55a.31.31,0,0,1-.32-.31v-1.28a.32.32,0,0,1,.63,0v1.28A.31.31,0,0,1,376.88,236.53Zm0-2.54a.32.32,0,0,1-.32-.32V232.4a.32.32,0,1,1,.63,0v1.27A.31.31,0,0,1,376.88,234Zm0-2.55a.31.31,0,0,1-.32-.31v-1.28a.32.32,0,0,1,.63,0v1.28A.31.31,0,0,1,376.88,231.44Zm0-2.54a.32.32,0,0,1-.32-.32v-1.27a.32.32,0,1,1,.63,0v1.27A.32.32,0,0,1,376.88,228.9Zm0-2.55a.32.32,0,0,1-.32-.32v-1.27a.32.32,0,1,1,.63,0V226A.31.31,0,0,1,376.88,226.35Zm0-2.55a.31.31,0,0,1-.32-.31v-1.28a.32.32,0,0,1,.63,0v1.28A.31.31,0,0,1,376.88,223.8Zm0-2.54a.32.32,0,0,1-.32-.32v-1.27a.32.32,0,1,1,.63,0v1.27A.31.31,0,0,1,376.88,221.26Zm0-2.55a.31.31,0,0,1-.32-.31v-1.28a.32.32,0,0,1,.63,0v1.28A.31.31,0,0,1,376.88,218.71Zm0-2.54a.32.32,0,0,1-.32-.32v-1.27a.32.32,0,1,1,.63,0v1.27A.32.32,0,0,1,376.88,216.17Z" style="fill:#fafafa"></path><path d="M376.88,243.53a.31.31,0,0,1-.32-.31v-.64a.32.32,0,0,1,.63,0v.64A.31.31,0,0,1,376.88,243.53Z" style="fill:#fafafa"></path><path d="M450.15,249.6a.32.32,0,0,1-.32-.32v-.63a.32.32,0,1,1,.63,0v.63A.32.32,0,0,1,450.15,249.6Z" style="fill:#fafafa"></path><path d="M450.15,279.71a.31.31,0,0,1-.32-.31v-1.26a.32.32,0,0,1,.63,0v1.26A.31.31,0,0,1,450.15,279.71Zm0-2.51a.31.31,0,0,1-.32-.31v-1.26a.32.32,0,0,1,.63,0v1.26A.31.31,0,0,1,450.15,277.2Zm0-2.51a.31.31,0,0,1-.32-.31v-1.26a.32.32,0,0,1,.63,0v1.26A.31.31,0,0,1,450.15,274.69Zm0-2.51a.31.31,0,0,1-.32-.31v-1.26a.32.32,0,0,1,.63,0v1.26A.31.31,0,0,1,450.15,272.18Zm0-2.51a.31.31,0,0,1-.32-.31V268.1a.32.32,0,0,1,.63,0v1.26A.31.31,0,0,1,450.15,269.67Zm0-2.5a.32.32,0,0,1-.32-.32v-1.26a.32.32,0,0,1,.63,0v1.26A.32.32,0,0,1,450.15,267.17Zm0-2.52a.31.31,0,0,1-.32-.31v-1.26a.32.32,0,0,1,.63,0v1.26A.31.31,0,0,1,450.15,264.65Zm0-2.51a.31.31,0,0,1-.32-.31v-1.26a.32.32,0,0,1,.63,0v1.26A.31.31,0,0,1,450.15,262.14Zm0-2.51a.31.31,0,0,1-.32-.31v-1.26a.32.32,0,0,1,.63,0v1.26A.31.31,0,0,1,450.15,259.63Zm0-2.5a.32.32,0,0,1-.32-.32v-1.26a.32.32,0,0,1,.63,0v1.26A.32.32,0,0,1,450.15,257.13Zm0-2.51a.32.32,0,0,1-.32-.32V253a.32.32,0,0,1,.63,0v1.26A.32.32,0,0,1,450.15,254.62Zm0-2.51a.32.32,0,0,1-.32-.32v-1.26a.32.32,0,0,1,.63,0v1.26A.32.32,0,0,1,450.15,252.11Z" style="fill:#fafafa"></path><path d="M450.15,281.6a.31.31,0,0,1-.32-.31v-.64a.32.32,0,0,1,.63,0v.64A.31.31,0,0,1,450.15,281.6Z" style="fill:#fafafa"></path><path d="M400.24,168V157.66l-8.82-1.7a1.32,1.32,0,0,0-1,.19h0l-4.4,2.53,5.72,1.16Z" style="fill:#ebebeb"></path><path d="M460.37,226.34,461,226a4.23,4.23,0,0,0,1.9-3.31V170.18a4.21,4.21,0,0,0-1.91-3.3l-58.87-34a4.28,4.28,0,0,0-3.82,0l-.66.39a4.2,4.2,0,0,0-1.91,3.3V189a4.24,4.24,0,0,0,1.91,3.31l58.88,34A4.22,4.22,0,0,0,460.37,226.34Z" style="fill:#ebebeb"></path><path d="M462.93,204.18v-34a3.94,3.94,0,0,0-.55-1.88l-8.4,4.85v51.71l2.57,1.48a4.19,4.19,0,0,0,3.81,0L461,226a4.23,4.23,0,0,0,1.9-3.31Z" style="fill:#e0e0e0"></path><path d="M397.67,135.47l58.88,34a4.24,4.24,0,0,1,1.91,3.31v52.47c0,1.21-.86,1.71-1.91,1.1l-58.88-34a4.24,4.24,0,0,1-1.91-3.31V136.57C395.76,135.35,396.62,134.86,397.67,135.47Z" style="fill:#f0f0f0"></path><path d="M395.76,170.59l-10.05-9.67a1.39,1.39,0,0,1,1.23-2.37l8.82,1.69Z" style="fill:#f0f0f0"></path><path d="M426,179.51a.91.91,0,0,1,.24.6c0,8.21,5.88,18.08,12.89,22.34,7.31,4.44,13.1,1.12,12.9-7.45-.19-7.74-5.15-17.11-11.71-21.59l.39-.22v-.66c6.92,4.91,12.31,14.82,12.31,23.05,0,8.84-6.23,12.44-13.89,8s-13.95-15.25-13.89-24.06C425.32,179.21,425.77,179.29,426,179.51Z" style="fill:#263238"></path><path d="M423.87,178.82c0-9.63,6.79-13.55,15.13-8.74a30.34,30.34,0,0,1,9.95,10l-2.29,1.7A23.19,23.19,0,0,0,439,174.1c-6.42-3.71-11.65-.7-11.65,6.73S432.58,197.3,439,201s11.66.7,11.66-6.73l3.47,2c0,9.63-6.78,13.55-15.13,8.73S423.87,188.45,423.87,178.82Z" style="fill:#10393B"></path><path d="M439,177.4c4.86,2.8,8.8,9.63,8.8,15.24s-3.94,7.89-8.8,5.08-8.8-9.63-8.8-15.24S434.13,174.59,439,177.4Z" style="fill:#455a64"></path><path d="M404.26,151.09l15.05,8.69a3,3,0,0,1,1.43,2.27c0,.79-.64,1.06-1.43.61L404.26,154a3,3,0,0,1-1.43-2.27C402.83,150.91,403.47,150.64,404.26,151.09Z" style="fill:#e0e0e0"></path><path d="M404.26,158.53l15.05,8.69a3,3,0,0,1,1.43,2.26c0,.8-.64,1.07-1.43.62l-15.05-8.69a3,3,0,0,1-1.43-2.27C402.83,158.35,403.47,158.08,404.26,158.53Z" style="fill:#e0e0e0"></path><path d="M404.26,166l15.05,8.69a3,3,0,0,1,1.43,2.26c0,.8-.64,1.07-1.43.61l-15.05-8.68a3,3,0,0,1-1.43-2.27C402.83,165.79,403.47,165.51,404.26,166Z" style="fill:#e0e0e0"></path><path d="M404.26,173.41l15.05,8.69a3,3,0,0,1,1.43,2.26c0,.8-.64,1.07-1.43.61l-15.05-8.69a3,3,0,0,1-1.43-2.26C402.83,173.23,403.47,173,404.26,173.41Z" style="fill:#e0e0e0"></path><path d="M404.26,180.85l15.05,8.69a3,3,0,0,1,1.43,2.26c0,.79-.64,1.07-1.43.61l-15.05-8.69a3,3,0,0,1-1.43-2.26C402.83,180.66,403.47,180.39,404.26,180.85Z" style="fill:#e0e0e0"></path><path d="M104.69,134.05V123.71l8.82-1.7a1.37,1.37,0,0,1,1,.19h0l4.39,2.54-5.72,1.15Z" style="fill:#ebebeb"></path><path d="M44.57,192.39l-.66-.38A4.21,4.21,0,0,1,42,188.7V136.23a4.21,4.21,0,0,1,1.91-3.3l58.87-34a4.22,4.22,0,0,1,3.82,0l.66.38a4.19,4.19,0,0,1,1.91,3.3v52.47a4.21,4.21,0,0,1-1.91,3.31l-58.87,34A4.22,4.22,0,0,1,44.57,192.39Z" style="fill:#ebebeb"></path><path d="M42,170.23v-34a3.88,3.88,0,0,1,.56-1.88L51,139.2v51.71l-2.56,1.48a4.22,4.22,0,0,1-3.82,0l-.66-.38A4.21,4.21,0,0,1,42,188.7Z" style="fill:#e0e0e0"></path><path d="M107.26,101.52l-58.87,34a4.21,4.21,0,0,0-1.91,3.31v52.47c0,1.21.85,1.71,1.91,1.1l58.87-34a4.21,4.21,0,0,0,1.91-3.31V102.62C109.17,101.41,108.32,100.91,107.26,101.52Z" style="fill:#f0f0f0"></path><path d="M109.17,136.64l10-9.67A1.39,1.39,0,0,0,118,124.6l-8.82,1.69Z" style="fill:#f0f0f0"></path><path d="M53.13,174.21V156.8a9.33,9.33,0,0,1,4.66-8.08h0a3.91,3.91,0,0,1,5.85,3.08h0a3,3,0,0,0,4.59,2.38h0a7.46,7.46,0,0,0,3.65-6.06l.77-15.27a7.84,7.84,0,0,1,3.88-6.37h0A4.39,4.39,0,0,1,83.14,130l.53,8.5a2.62,2.62,0,0,0,3.93,2.12h0a8.4,8.4,0,0,0,4.15-6.31l.35-3a8.75,8.75,0,0,1,4.33-6.57h0a4,4,0,0,1,6,3.5v17.52Z" style="fill:#10393B"></path><path d="M58.5,149.45a.31.31,0,0,1-.31-.32v-.63a.32.32,0,1,1,.63,0v.63A.32.32,0,0,1,58.5,149.45Z" style="fill:#fafafa"></path><path d="M58.5,169.54a.31.31,0,0,1-.31-.32V168a.32.32,0,1,1,.63,0v1.25A.32.32,0,0,1,58.5,169.54Zm0-2.51a.31.31,0,0,1-.31-.32v-1.26a.32.32,0,0,1,.63,0v1.26A.32.32,0,0,1,58.5,167Zm0-2.51a.32.32,0,0,1-.31-.32v-1.26a.32.32,0,0,1,.63,0v1.26A.32.32,0,0,1,58.5,164.52Zm0-2.52a.31.31,0,0,1-.31-.31v-1.26a.32.32,0,0,1,.63,0v1.26A.31.31,0,0,1,58.5,162Zm0-2.51a.31.31,0,0,1-.31-.31v-1.26a.32.32,0,1,1,.63,0v1.26A.31.31,0,0,1,58.5,159.49Zm0-2.51a.31.31,0,0,1-.31-.32v-1.25a.32.32,0,1,1,.63,0v1.25A.32.32,0,0,1,58.5,157Zm0-2.51a.31.31,0,0,1-.31-.32V152.9a.32.32,0,1,1,.63,0v1.25A.32.32,0,0,1,58.5,154.47Zm0-2.51a.31.31,0,0,1-.31-.32v-1.25a.32.32,0,1,1,.63,0v1.25A.32.32,0,0,1,58.5,152Z" style="fill:#fafafa"></path><path d="M58.5,171.43a.31.31,0,0,1-.31-.32v-.63a.32.32,0,1,1,.63,0v.63A.32.32,0,0,1,58.5,171.43Z" style="fill:#fafafa"></path><path d="M58.5,147.42a2.08,2.08,0,0,0-.93,1.62c0,.59.42.84.93.54a2.08,2.08,0,0,0,.94-1.62C59.44,147.36,59,147.12,58.5,147.42Z" style="fill:#37474f"></path><path d="M77.8,126.84a.33.33,0,0,1-.32-.32v-.63a.32.32,0,0,1,.32-.32.32.32,0,0,1,.32.32v.63A.32.32,0,0,1,77.8,126.84Z" style="fill:#fafafa"></path><path d="M77.8,158.34a.32.32,0,0,1-.32-.32v-1.31a.33.33,0,0,1,.32-.32.32.32,0,0,1,.32.32V158A.32.32,0,0,1,77.8,158.34Zm0-2.63a.32.32,0,0,1-.32-.31v-1.32a.32.32,0,0,1,.32-.31.31.31,0,0,1,.32.31v1.32A.31.31,0,0,1,77.8,155.71Zm0-2.62a.32.32,0,0,1-.32-.32v-1.31a.32.32,0,0,1,.32-.32.32.32,0,0,1,.32.32v1.31A.32.32,0,0,1,77.8,153.09Zm0-2.63a.32.32,0,0,1-.32-.31v-1.32a.32.32,0,0,1,.32-.31.31.31,0,0,1,.32.31v1.32A.31.31,0,0,1,77.8,150.46Zm0-2.62a.32.32,0,0,1-.32-.32v-1.31a.32.32,0,0,1,.32-.32.32.32,0,0,1,.32.32v1.31A.32.32,0,0,1,77.8,147.84Zm0-2.63a.32.32,0,0,1-.32-.31v-1.32a.32.32,0,0,1,.32-.31.31.31,0,0,1,.32.31v1.32A.31.31,0,0,1,77.8,145.21Zm0-2.62a.32.32,0,0,1-.32-.32V141a.32.32,0,0,1,.32-.32.32.32,0,0,1,.32.32v1.31A.32.32,0,0,1,77.8,142.59Zm0-2.63a.32.32,0,0,1-.32-.31v-1.32a.32.32,0,0,1,.32-.31.31.31,0,0,1,.32.31v1.32A.31.31,0,0,1,77.8,140Zm0-2.62a.33.33,0,0,1-.32-.32v-1.31a.32.32,0,0,1,.32-.32.32.32,0,0,1,.32.32V137A.32.32,0,0,1,77.8,137.34Zm0-2.63a.32.32,0,0,1-.32-.32v-1.31a.32.32,0,0,1,.32-.31.31.31,0,0,1,.32.31v1.31A.32.32,0,0,1,77.8,134.71Zm0-2.62a.33.33,0,0,1-.32-.32v-1.31a.32.32,0,0,1,.32-.32.32.32,0,0,1,.32.32v1.31A.32.32,0,0,1,77.8,132.09Zm0-2.63a.32.32,0,0,1-.32-.32v-1.31a.33.33,0,0,1,.32-.32.32.32,0,0,1,.32.32v1.31A.32.32,0,0,1,77.8,129.46Z" style="fill:#fafafa"></path><path d="M77.8,160.29a.33.33,0,0,1-.32-.32v-.63a.32.32,0,0,1,.32-.32.32.32,0,0,1,.32.32V160A.32.32,0,0,1,77.8,160.29Z" style="fill:#fafafa"></path><path d="M77.8,124.81a2,2,0,0,0-.94,1.62c0,.59.42.83.94.54a2.08,2.08,0,0,0,.94-1.62C78.74,124.75,78.32,124.51,77.8,124.81Z" style="fill:#37474f"></path><path d="M97.12,125.35a.31.31,0,0,1-.31-.31v-.64a.32.32,0,0,1,.63,0V125A.31.31,0,0,1,97.12,125.35Z" style="fill:#fafafa"></path><path d="M97.12,147.28a.31.31,0,0,1-.31-.32v-1.22a.32.32,0,0,1,.63,0V147A.32.32,0,0,1,97.12,147.28Zm0-2.44a.31.31,0,0,1-.31-.31v-1.22a.32.32,0,1,1,.63,0v1.22A.31.31,0,0,1,97.12,144.84Zm0-2.43a.32.32,0,0,1-.31-.32v-1.22a.32.32,0,0,1,.63,0v1.22A.32.32,0,0,1,97.12,142.41Zm0-2.44a.31.31,0,0,1-.31-.32v-1.21a.32.32,0,1,1,.63,0v1.21A.32.32,0,0,1,97.12,140Zm0-2.44a.31.31,0,0,1-.31-.31V136a.32.32,0,1,1,.63,0v1.22A.31.31,0,0,1,97.12,137.53Zm0-2.43a.31.31,0,0,1-.31-.32v-1.22a.32.32,0,0,1,.63,0v1.22A.32.32,0,0,1,97.12,135.1Zm0-2.44a.31.31,0,0,1-.31-.31v-1.22a.32.32,0,1,1,.63,0v1.22A.31.31,0,0,1,97.12,132.66Zm0-2.43a.32.32,0,0,1-.31-.32v-1.22a.32.32,0,0,1,.63,0v1.22A.32.32,0,0,1,97.12,130.23Zm0-2.44a.31.31,0,0,1-.31-.32v-1.21a.32.32,0,1,1,.63,0v1.21A.32.32,0,0,1,97.12,127.79Z" style="fill:#fafafa"></path><path d="M97.12,149.13a.31.31,0,0,1-.31-.32v-.63a.32.32,0,1,1,.63,0v.63A.32.32,0,0,1,97.12,149.13Z" style="fill:#fafafa"></path><path d="M97.12,123.32a2.09,2.09,0,0,0-.93,1.62c0,.6.42.84.93.54a2,2,0,0,0,.94-1.62C98.06,123.27,97.64,123,97.12,123.32Z" style="fill:#37474f"></path><path d="M53.13,181.55a.51.51,0,0,1-.44-.25.5.5,0,0,1,.19-.68l49.35-28.49a.5.5,0,0,1,.68.18.51.51,0,0,1-.18.69L53.38,181.49A.57.57,0,0,1,53.13,181.55Z" style="fill:#455a64"></path></g><g id="freepik--charts-1--inject-16"><path d="M212.63,325.52l-58.87,34a4.21,4.21,0,0,0-1.91,3.31v.76a4.21,4.21,0,0,0,1.91,3.3l58.87,34a4.28,4.28,0,0,0,3.82,0l58.87-34a4.21,4.21,0,0,0,1.91-3.3v-.76a4.21,4.21,0,0,0-1.91-3.31l-58.87-34A4.22,4.22,0,0,0,212.63,325.52Z" style="fill:#10393B"></path><path d="M212.63,325.52l-58.87,34a4.21,4.21,0,0,0-1.91,3.31v.76a4.21,4.21,0,0,0,1.91,3.3l58.87,34a4.28,4.28,0,0,0,3.82,0l58.87-34a4.21,4.21,0,0,0,1.91-3.3v-.76a4.21,4.21,0,0,0-1.91-3.31l-58.87-34A4.22,4.22,0,0,0,212.63,325.52Z" style="fill:#fafafa;opacity:0.7000000000000001"></path><path d="M156.32,358l-2.57,1.49a4.23,4.23,0,0,0-1.9,3.31v.76a4.22,4.22,0,0,0,1.9,3.3l58.88,34a4,4,0,0,0,1.91.45v-9.69Z" style="fill:#10393B"></path><path d="M156.32,358l-2.57,1.49a4.23,4.23,0,0,0-1.9,3.31v.76a4.22,4.22,0,0,0,1.9,3.3l58.88,34a4,4,0,0,0,1.91.45v-9.69Z" style="fill:#fafafa;opacity:0.6000000000000001"></path><path d="M212.63,325.52l-58.87,34a1.16,1.16,0,0,0,0,2.2l58.87,34a4.22,4.22,0,0,0,3.82,0l58.87-34a1.16,1.16,0,0,0,0-2.2l-58.87-34A4.22,4.22,0,0,0,212.63,325.52Z" style="fill:#10393B"></path><path d="M212.63,325.52l-58.87,34a1.16,1.16,0,0,0,0,2.2l58.87,34a4.22,4.22,0,0,0,3.82,0l58.87-34a1.16,1.16,0,0,0,0-2.2l-58.87-34A4.22,4.22,0,0,0,212.63,325.52Z" style="fill:#fafafa;opacity:0.8"></path><path d="M211.79,360.87l-27.63,2.53c-2.65-9.69,8.79-18.78,25.56-20.31,10.06-.92,19.35.82,26.55,5l-19.35,11.17A15,15,0,0,1,211.79,360.87Z" style="fill:#455a64;fill-rule:evenodd"></path><path d="M184.16,364.4a1,1,0,0,1-1-.74,11.91,11.91,0,0,1,2-10.19c4.23-6.11,13.38-10.37,24.48-11.38,10.33-.94,19.71.82,27.14,5.11a1,1,0,0,1,0,1.73l-19.35,11.18a16.17,16.17,0,0,1-5.54,1.76h0l-27.63,2.52ZM215,343.84q-2.53,0-5.16.24c-10.35.95-19.18,5-23,10.53a10.11,10.11,0,0,0-1.85,7.71l26.75-2.45a14,14,0,0,0,4.73-1.49l17.81-10.29A42.46,42.46,0,0,0,215,343.84Z" style="fill:#fafafa"></path><path d="M216.35,362.69l12.14,13.75c-15.13,4.45-33.65,1-41.36-7.76a12.79,12.79,0,0,1-3-5.28l27.63-2.53A6.05,6.05,0,0,1,216.35,362.69Z" style="fill:#10393B;fill-rule:evenodd"></path><path d="M214.64,379.36c-11.51,0-22.65-3.67-28.26-10a13.79,13.79,0,0,1-3.18-5.68,1,1,0,0,1,.14-.83,1,1,0,0,1,.73-.43l27.62-2.53A7.17,7.17,0,0,1,217.1,362l12.14,13.75a1,1,0,0,1,.21.94,1,1,0,0,1-.68.69A50.43,50.43,0,0,1,214.64,379.36ZM185.5,364.28a12.41,12.41,0,0,0,2.38,3.74c7.21,8.16,24.33,11.57,38.8,7.88L215.6,363.35h0a5.08,5.08,0,0,0-3.72-1.48Z" style="fill:#fafafa"></path><path d="M217.28,360.37l27.62-2.53c2.12,7.75-4.31,15-16.41,18.6l-12.14-13.75C215.35,361.54,215.76,360.51,217.28,360.37Z" style="fill:#263238;fill-rule:evenodd"></path><path d="M228.49,377.44a1,1,0,0,1-.75-.34L215.6,363.35a2.25,2.25,0,0,1,1.58-4l27.63-2.52a1,1,0,0,1,1.05.73c2.28,8.31-4.42,16.09-17.09,19.82A1.35,1.35,0,0,1,228.49,377.44Zm-11.12-16.08a1,1,0,0,0-.58.18,1.7,1.7,0,0,0,.31.48l11.71,13.27c10.71-3.31,16.59-9.64,15.31-16.37Z" style="fill:#fafafa"></path><path d="M216.92,359.24l19.35-11.17c4.81,2.77,7.57,5.9,8.63,9.77l-27.62,2.53C215.76,360.51,215.6,360,216.92,359.24Z" style="fill:#37474f;fill-rule:evenodd"></path><path d="M216.82,361.39a1.65,1.65,0,0,1-1.74-.95c-.35-1.09.92-1.82,1.34-2.06l19.35-11.18a1,1,0,0,1,1,0c5.06,2.92,7.95,6.22,9.09,10.38a1,1,0,0,1-.14.83,1,1,0,0,1-.73.43l-27.62,2.52A3.91,3.91,0,0,1,216.82,361.39Zm19.45-12.17-17.3,10L243.56,357C242.41,354,240.06,351.5,236.27,349.22Z" style="fill:#fafafa"></path><path d="M169.78,350.27l62.69,36.19,42.88-24.75a1.16,1.16,0,0,0,0-2.2l-55.08-31.8-3.8-2.19a4.22,4.22,0,0,0-3.82,0Z" style="opacity:0.1"></path><path d="M230.54,294.49l-58.87,34a4.21,4.21,0,0,0-1.91,3.31v.76a4.21,4.21,0,0,0,1.91,3.31l58.87,34a4.22,4.22,0,0,0,3.82,0l58.88-34a4.24,4.24,0,0,0,1.91-3.31v-.76a4.24,4.24,0,0,0-1.91-3.31l-58.88-34A4.22,4.22,0,0,0,230.54,294.49Z" style="fill:#10393B"></path><path d="M230.54,294.49l-58.87,34a4.21,4.21,0,0,0-1.91,3.31v.76a4.21,4.21,0,0,0,1.91,3.31l58.87,34a4.22,4.22,0,0,0,3.82,0l58.88-34a4.24,4.24,0,0,0,1.91-3.31v-.76a4.24,4.24,0,0,0-1.91-3.31l-58.88-34A4.22,4.22,0,0,0,230.54,294.49Z" style="fill:#fafafa;opacity:0.7000000000000001"></path><path d="M174.24,327l-2.57,1.48a4.21,4.21,0,0,0-1.91,3.31v.76a4.21,4.21,0,0,0,1.91,3.31l58.87,34a4,4,0,0,0,1.91.46v-9.7Z" style="fill:#10393B"></path><path d="M174.24,327l-2.57,1.48a4.21,4.21,0,0,0-1.91,3.31v.76a4.21,4.21,0,0,0,1.91,3.31l58.87,34a4,4,0,0,0,1.91.46v-9.7Z" style="fill:#fafafa;opacity:0.6000000000000001"></path><path d="M230.54,294.49l-58.87,34a1.17,1.17,0,0,0,0,2.21l58.87,34a4.22,4.22,0,0,0,3.82,0l58.88-34a1.17,1.17,0,0,0,0-2.21l-58.88-34A4.22,4.22,0,0,0,230.54,294.49Z" style="fill:#10393B"></path><path d="M230.54,294.49l-58.87,34a1.17,1.17,0,0,0,0,2.21l58.87,34a4.22,4.22,0,0,0,3.82,0l58.88-34a1.17,1.17,0,0,0,0-2.21l-58.88-34A4.22,4.22,0,0,0,230.54,294.49Z" style="fill:#fafafa;opacity:0.8"></path><path d="M205.58,319.22l12.08-2.32A1.09,1.09,0,0,1,219,318v2.41a1.2,1.2,0,0,0,1.37,1.22L240,319.38a.8.8,0,0,1,.92,1.14l-3.58,10.33a.92.92,0,0,0,.93,1.3h15.15a.92.92,0,0,1,.93,1.3l-4,11.63-17.91,10.34-44.78-25.86Z" style="fill:#455a64"></path><path d="M232.45,355.42l13.44-7.76,4-11.62c.25-.72-.15-1.19-.9-1l-24.16,4.65c-.75.14-1.15-.33-.9-1l3.57-10.32a.8.8,0,0,0-.92-1.14L207,329.41c-.75.08-1.06-.38-.68-1l3.1-5.37c.38-.66.08-1.07-.66-.93l-12.08,2.32-9,5.17Z" style="fill:#10393B"></path><path d="M187.67,319.24l62.7,36.2,42.87-24.75a1.17,1.17,0,0,0,0-2.21l-55.07-31.79-3.81-2.2a4.22,4.22,0,0,0-3.82,0Z" style="opacity:0.1"></path><path d="M248.45,263.47l-58.87,34a4.21,4.21,0,0,0-1.91,3.3v.77a4.21,4.21,0,0,0,1.91,3.3l58.87,34a4.22,4.22,0,0,0,3.82,0l58.88-34a4.23,4.23,0,0,0,1.91-3.3v-.77a4.23,4.23,0,0,0-1.91-3.3l-58.88-34A4.22,4.22,0,0,0,248.45,263.47Z" style="fill:#10393B"></path><path d="M248.45,263.47l-58.87,34a4.21,4.21,0,0,0-1.91,3.3v.77a4.21,4.21,0,0,0,1.91,3.3l58.87,34a4.22,4.22,0,0,0,3.82,0l58.88-34a4.23,4.23,0,0,0,1.91-3.3v-.77a4.23,4.23,0,0,0-1.91-3.3l-58.88-34A4.22,4.22,0,0,0,248.45,263.47Z" style="fill:#fafafa;opacity:0.7000000000000001"></path><path d="M192.15,296l-2.57,1.49a4.21,4.21,0,0,0-1.91,3.3v.77a4.21,4.21,0,0,0,1.91,3.3l58.87,34a3.86,3.86,0,0,0,1.91.46v-9.7Z" style="fill:#10393B"></path><path d="M192.15,296l-2.57,1.49a4.21,4.21,0,0,0-1.91,3.3v.77a4.21,4.21,0,0,0,1.91,3.3l58.87,34a3.86,3.86,0,0,0,1.91.46v-9.7Z" style="fill:#fafafa;opacity:0.6000000000000001"></path><path d="M248.45,263.47l-58.87,34a1.16,1.16,0,0,0,0,2.2l58.87,34a4.22,4.22,0,0,0,3.82,0l58.88-34a1.16,1.16,0,0,0,0-2.2l-58.88-34A4.22,4.22,0,0,0,248.45,263.47Z" style="fill:#10393B"></path><path d="M248.45,263.47l-58.87,34a1.16,1.16,0,0,0,0,2.2l58.87,34a4.22,4.22,0,0,0,3.82,0l58.88-34a1.16,1.16,0,0,0,0-2.2l-58.88-34A4.22,4.22,0,0,0,248.45,263.47Z" style="fill:#fafafa;opacity:0.8"></path><path d="M209.92,294.79l29.46-17a2.14,2.14,0,0,1,1.91,0l4.76,2.76a.58.58,0,0,1,0,1.1l-29.46,17a2.08,2.08,0,0,1-1.91,0l-4.76-2.75A.58.58,0,0,1,209.92,294.79Z" style="fill:#10393B"></path><path d="M223.35,302.54l20.48-11.82a2.08,2.08,0,0,1,1.91,0l4.77,2.75a.59.59,0,0,1,0,1.11L230,306.4a2.14,2.14,0,0,1-1.91,0l-4.77-2.75A.59.59,0,0,1,223.35,302.54Z" style="fill:#455a64"></path><path d="M236.79,310.3l33.91-19.58a2.08,2.08,0,0,1,1.91,0l4.77,2.75a.59.59,0,0,1,0,1.11l-33.92,19.58a2.14,2.14,0,0,1-1.91,0l-4.76-2.76A.58.58,0,0,1,236.79,310.3Z" style="fill:#37474f"></path><path d="M250.22,318.06l16-9.24a2.08,2.08,0,0,1,1.91,0l4.77,2.75c.53.31.53.8,0,1.1l-16,9.24a2.08,2.08,0,0,1-1.91,0l-4.77-2.75C249.69,318.85,249.69,318.36,250.22,318.06Z" style="fill:#263238"></path></g><g id="freepik--Plants--inject-16"><path d="M375.93,315.9c-.08-.23,1.9-26.41,14.75-39.09S415,268,417.5,272.26s.66,6.69-9,13.15c-8.8,5.86-19.73,14-25,31.25Z" style="fill:#10393B"></path><path d="M375.93,315.9c-.08-.23,1.9-26.41,14.75-39.09S415,268,417.5,272.26s.66,6.69-9,13.15c-8.8,5.86-19.73,14-25,31.25Z" style="opacity:0.2"></path><path d="M379.09,316.72H379a.5.5,0,0,1-.43-.56c4.22-28.9,24.14-43.58,33.37-44.69a.5.5,0,0,1,.56.43.51.51,0,0,1-.44.56c-9,1.08-28.35,15.47-32.5,43.84A.5.5,0,0,1,379.09,316.72Z" style="fill:#fafafa"></path><path d="M381.27,342.34c2.37-1.56,5.82-2.94,9.79-.55s9.65,2.58,12.86.55,4.36-6.91,4.07-10.33.88-6.72,4.54-6.72,10.55.25,13.09-3.84-3.19-8.49-4.45-9.95c-2.21-2.56.32-5.89,3.52-8.75,3.52-3.14,4.48-9.81-1.89-10.8s-16.11,4.78-21.09,6.73c-7.52,3-7.09-1.08-11.73-1.35-5.63-.32-7.36,3.63-7.79,8.66-.48,5.67-3.05,7.3-3.05,7.3Z" style="fill:#10393B"></path><path d="M380.43,331.42a.33.33,0,0,1-.17,0,.5.5,0,0,1-.3-.64c3.72-10,27.5-30.56,41-35.48a.5.5,0,0,1,.64.3.49.49,0,0,1-.3.64c-13.06,4.74-36.87,25.28-40.44,34.89A.51.51,0,0,1,380.43,331.42Z" style="fill:#fafafa"></path><path d="M415,316.77a.48.48,0,0,1-.26-.07c-4.64-2.81-15.47-3.93-20.32-2.11a.5.5,0,0,1-.35-.94c5.17-1.94,16.25-.79,21.18,2.2a.5.5,0,0,1-.25.92Z" style="fill:#fafafa"></path><path d="M391.37,317.3a.51.51,0,0,1-.5-.49c-.2-9.39-2.69-13.66-2.72-13.7a.51.51,0,0,1,.18-.69.49.49,0,0,1,.68.17c.11.18,2.65,4.51,2.86,14.2a.5.5,0,0,1-.49.51Z" style="fill:#fafafa"></path><path d="M129,272.41c-.49-6-5.13-16.29-12-23.61S99.15,238,92.37,240.91c-6.32,2.75-4.93,11.22,3.41,16.23s20.76,11.16,25,20.65L129,289.18Z" style="fill:#10393B"></path><path d="M129,272.41c-.49-6-5.13-16.29-12-23.61S99.15,238,92.37,240.91c-6.32,2.75-4.93,11.22,3.41,16.23s20.76,11.16,25,20.65L129,289.18Z" style="opacity:0.2"></path><path d="M129,283.19h.08a.63.63,0,0,0,.54-.71c-3.17-23.52-27.28-38-34.51-39.35a.63.63,0,0,0-.23,1.24c7,1.33,30.41,15.39,33.49,38.28A.64.64,0,0,0,129,283.19Z" style="fill:#fafafa"></path><path d="M131.15,292.4a25.48,25.48,0,0,1-11.31,6.69c-7.39,2.18-11.19-1-11.19-1s2-7.46,6.07-10a42.2,42.2,0,0,0-12.39,7.08s-4.6.67-7.35-6.13c0,0,2.17-4.58,11-8.07,0,0-5.76-.67-13.52,2.42-.57.32-4.33-8.44-5.65-12.53s.37-4.27,3.52-5.57,14.22-3.3,16.51-1.77,4.12,7.55,4.12,7.55,1.5-3.74.63-6.78a11.81,11.81,0,0,1,7-.74c3.84.8,4.62,3.29,5.49,5.85s2,7.76.83,10.32c0,0,2.77-3.31.73-11.24a15.42,15.42,0,0,1,6.35,4.83C134.48,276.7,135.22,286.32,131.15,292.4Z" style="fill:#10393B"></path><path d="M131.15,292.9a.48.48,0,0,1-.42-.23C123,280.83,98.48,269.1,90.17,268.58a.5.5,0,0,1,.06-1c8.47.53,33.46,12.48,41.33,24.55a.5.5,0,0,1-.14.69A.56.56,0,0,1,131.15,292.9Z" style="fill:#fafafa"></path></g><g id="freepik--character-2--inject-16"><circle cx="356.06" cy="148.74" r="10.84" transform="translate(125.59 458.23) rotate(-76)" style="fill:#263238"></circle><rect x="374.39" y="332.22" width="7.64" height="13.08" style="fill:#ffa8a7"></rect><polygon points="355.55 331.52 347.91 331.78 347.53 317.94 355.55 317.68 355.55 331.52" style="fill:#ffa8a7"></polygon><path d="M381.53,220.15c0,7.29.94,59.91.94,59.91.18,2.1,2.15,6,1.72,14-.58,11-1.83,44.66-1.83,44.66a10.05,10.05,0,0,1-8.51.17s-6.74-44.79-8.11-55.64c-1.19-9.47-3.22-35.2-3.22-35.2L358.38,279a43.43,43.43,0,0,1,.95,12.14c-.36,5-3.3,36.1-3.3,36.1a10.43,10.43,0,0,1-8.82.68s-3.86-44.31-3.95-48.92c-.1-5.25,2.54-58.84,2.54-58.84Z" style="fill:#455a64"></path><path d="M346.85,175.76c-4.47,3.68-12.56,11.15-12.56,11.15l12.62,6.94,8-21.52S351.78,171.71,346.85,175.76Z" style="fill:#10393B"></path><path d="M346.85,175.76c-4.47,3.68-12.56,11.15-12.56,11.15l12.62,6.94,8-21.52S351.78,171.71,346.85,175.76Z" style="opacity:0.2"></path><path d="M378.93,177.58s2.86,2.86,2.86,9.79v15l.22,28.26c-11,5.78-24.81,6.12-36.51-2.43,0,0,.56-36.32.56-42.27s3.32-13.68,12.45-14.21l11.78,2.74Z" style="fill:#10393B"></path><path d="M374.81,156.45s-1.76,8.25-2.47,9.61a3.7,3.7,0,0,1-2.16,1.74l.13-5.81Z" style="fill:#263238"></path><path d="M372.6,144.62a4.08,4.08,0,0,1,3.37,1.19c1.45,1.48.64,6.1-1.16,10.64l-3.31.38Z" style="fill:#263238"></path><path d="M370.5,156.83c.67.4,1.61-.88,2.43-1.73s3.49-2,4.83.78-1.18,6.64-3.28,7.3c-3.63,1.14-4.17-1.19-4.17-1.19L370,175.07l-12.56,8.28a18.07,18.07,0,0,1,.77-8.63v-4a23.47,23.47,0,0,1-4.89.25c-2.67-.42-4.34-2.52-5.15-5.41-1.3-4.63-1.79-8.37-.69-17.49,1.21-10,12.83-10.09,19.1-6.14S370.5,156.83,370.5,156.83Z" style="fill:#ffa8a7"></path><path d="M357.47,183.35l12.6-10.26,0-1.64s2.92.58,3.3,4.67l-7.65,11.66-3.24-6.08Z" style="fill:#10393B"></path><path d="M358.25,170.75a5.91,5.91,0,0,0-3.92,2.34c-1.2,2-3.38,10.26-3.38,10.26l4.07-3.14,2.45,3.14a25.57,25.57,0,0,1,.77-8.63Z" style="fill:#10393B"></path><g style="opacity:0.2"><path d="M357.47,183.35l12.6-10.26,0-1.64s2.92.58,3.3,4.67l-7.65,11.66-3.24-6.08Z"></path><path d="M358.25,170.75a5.91,5.91,0,0,0-3.92,2.34c-1.2,2-3.38,10.26-3.38,10.26l4.07-3.14,2.45,3.14a25.57,25.57,0,0,1,.77-8.63Z"></path></g><path d="M370.5,158c.34,0,1.61-2.1,2.43-2.85,1.15-1-.33-10.48-.33-10.48a4.47,4.47,0,0,0-1.1-4.77c-1.57-1.72-4.19-1.92-8.67-2.62-2.34-.37-5.9-1-8.25-1.46-2.8-.52-5.11-1.07-7.09.64a5,5,0,0,0-1.37,5.57,4.44,4.44,0,0,0,.79,1.18,4.63,4.63,0,0,0,2,1.39s1.22,1.08,5.46,1.6a63,63,0,0,0,11.77-.22c1.23-.17,1.49,1,2.16,4.28C368.9,153.08,369.38,157.93,370.5,158Z" style="fill:#263238"></path><path d="M372.59,145.36l4-2.16a2.21,2.21,0,0,0-3-1A2.4,2.4,0,0,0,372.59,145.36Z" style="fill:#263238"></path><path d="M358.25,170.75s5.95-1.2,8-2.31a6.77,6.77,0,0,0,2.87-2.85,9.4,9.4,0,0,1-1.63,3.36c-1.52,2-9.27,3.38-9.27,3.38Z" style="fill:#f28f8f"></path><path d="M359.68,155.34a1.19,1.19,0,1,0,1.19-1.24A1.21,1.21,0,0,0,359.68,155.34Z" style="fill:#263238"></path><path d="M360.94,150.84l2.55,1.41a1.53,1.53,0,0,0-.59-2A1.43,1.43,0,0,0,360.94,150.84Z" style="fill:#263238"></path><path d="M358.79,163.58l-2.73,1a1.44,1.44,0,0,0,1.85.91A1.55,1.55,0,0,0,358.79,163.58Z" style="fill:#f28f8f"></path><path d="M349,151.83l2.33-1.79a1.42,1.42,0,0,0-2-.31A1.54,1.54,0,0,0,349,151.83Z" style="fill:#263238"></path><path d="M349.76,155a1.19,1.19,0,1,0,1.19-1.24A1.21,1.21,0,0,0,349.76,155Z" style="fill:#263238"></path><polygon points="355.83 153.87 355.44 161.04 351.7 159.77 355.83 153.87" style="fill:#f28f8f"></polygon><path d="M374.39,341.52v-1.09c-.73.32-2.43,6.79-5.46,9.56-2.41,2.2-5.69,4.73-6.53,7.18s4.58,4,6.83,3.56c2.61-.46,7.15-2.3,8.28-4s1.67-4.23,2.6-5.48,3.06-2.65,3.56-4.09c.27-.8-.06-2.54-.44-4s-.74-2.84-1.2-2.71v.83a6,6,0,0,1-3.82,1.29C377.09,342.59,374.38,342.37,374.39,341.52Z" style="fill:#263238"></path><path d="M347.83,329.42c-.39,0-.72.58-1.59,1.52a16.84,16.84,0,0,1-4.49,3.24c-2.86,1.43-8.42,3.63-10.94,4.77-1.57.7-1.5,2.6.13,3.68s5.54,1.86,10.25.81c2.57-.57,5.91-2.95,8-2.82s6.07.1,7.63-1,.94-3.37.49-5.34c-.48-2.16-1.08-5.52-1.79-5.37v.74c-.92,1.39-5.66,2-7.68.93Z" style="fill:#263238"></path><path d="M362.52,248.08a28.27,28.27,0,0,1-10.63-6.1s2.05,3.84,8.15,7.42l-1.3,27Z" style="fill:#263238"></path><path d="M353.24,270.32l.66-.38a4.21,4.21,0,0,0,1.91-3.31v-68a4.21,4.21,0,0,0-1.91-3.31l-58.87-34a4.22,4.22,0,0,0-3.82,0l-.66.38a4.21,4.21,0,0,0-1.91,3.3v68a4.21,4.21,0,0,0,1.91,3.31l58.87,34A4.22,4.22,0,0,0,353.24,270.32Z" style="fill:#10393B"></path><path d="M353.24,270.32l.66-.38a4.21,4.21,0,0,0,1.91-3.31v-68a4.21,4.21,0,0,0-1.91-3.31l-58.87-34a4.22,4.22,0,0,0-3.82,0l-.66.38a4.21,4.21,0,0,0-1.91,3.3v68a4.21,4.21,0,0,0,1.91,3.31l58.87,34A4.22,4.22,0,0,0,353.24,270.32Z" style="fill:#fafafa;opacity:0.7000000000000001"></path><path d="M355.81,232.64v-34a3.89,3.89,0,0,0-.56-1.89l-8.4,4.85v67.22l2.57,1.49a4.22,4.22,0,0,0,3.82,0l.66-.39a4.18,4.18,0,0,0,1.91-3.3Z" style="fill:#10393B"></path><path d="M355.81,232.64v-34a3.89,3.89,0,0,0-.56-1.89l-8.4,4.85v67.22l2.57,1.49a4.22,4.22,0,0,0,3.82,0l.66-.39a4.18,4.18,0,0,0,1.91-3.3Z" style="fill:#fafafa;opacity:0.6000000000000001"></path><path d="M290.55,163.93l58.87,34a4.21,4.21,0,0,1,1.91,3.31v68c0,1.22-.85,1.72-1.91,1.11l-58.87-34a4.21,4.21,0,0,1-1.91-3.31V165C288.64,163.82,289.49,163.32,290.55,163.93Z" style="fill:#10393B"></path><path d="M290.55,163.93l58.87,34a4.21,4.21,0,0,1,1.91,3.31v68c0,1.22-.85,1.72-1.91,1.11l-58.87-34a4.21,4.21,0,0,1-1.91-3.31V165C288.64,163.82,289.49,163.32,290.55,163.93Z" style="fill:#fafafa;opacity:0.8"></path><path d="M295.36,226c1.83,1.06,4.64,1.27,6.76-3.91s4-9.34,6.61-7.6c1.81,1.22,1.56,2.88,3.19,3.81,2.54,1.47,4.53-4.85,5.43-10.75,1.28-8.38,2.51-10.58,4.79-9.31,3.4,1.87,3.11,7.45,3.11,12.57,0,4.59,0,7,2.49,8,1.64.67,3.25-3.31,3.9-6.37s2.1-4.55,3.57-3.7,3.05,2.88,3.13,11c.07,7.19.19,17.49.31,19.75a11.2,11.2,0,0,0,6,9.58v8.15l-49.25-28.44Z" style="fill:#fafafa;opacity:0.5"></path><path d="M344.37,249.48a11.69,11.69,0,0,1-6.22-10c-.13-2.37-.25-13.41-.31-19.78-.07-7.93-1.58-9.81-2.88-10.56a1,1,0,0,0-1-.09c-.77.35-1.47,1.64-1.86,3.45-.55,2.56-1.73,5.84-3.26,6.65a1.5,1.5,0,0,1-1.32.08c-2.8-1.15-2.8-3.74-2.8-8.46v-1.13c0-4.63,0-9.41-2.85-11a1.28,1.28,0,0,0-1.23-.18c-1.38.68-2.23,5.24-2.82,9.13-.35,2.31-1.71,9.92-4.37,11.21a1.88,1.88,0,0,1-1.81-.09,4.41,4.41,0,0,1-1.71-2,4.48,4.48,0,0,0-1.51-1.85,1.41,1.41,0,0,0-1.26-.26c-1.69.51-3.38,4.63-4.61,7.63-1,2.54-2.35,4.09-3.91,4.62a4.24,4.24,0,0,1-3.56-.47l.5-.86a3.33,3.33,0,0,0,2.73.39c1.28-.44,2.39-1.8,3.31-4.05,1.76-4.29,3.26-7.62,5.25-8.22a2.43,2.43,0,0,1,2.11.39,5.46,5.46,0,0,1,1.83,2.2,3.54,3.54,0,0,0,1.33,1.59.83.83,0,0,0,.87.05c1.44-.69,3-4.89,3.82-10.45,1-6.39,1.92-9.16,3.37-9.87a2.2,2.2,0,0,1,2.15.2c3.41,1.88,3.39,7,3.37,11.88v1.13c0,4.56,0,6.64,2.18,7.54a.51.51,0,0,0,.47-.05c1-.5,2.13-3.06,2.75-6,.48-2.19,1.34-3.66,2.44-4.15a2,2,0,0,1,1.87.13c1.63.94,3.3,3,3.38,11.42.06,6.36.18,17.38.31,19.73a10.63,10.63,0,0,0,5.72,9.18Z" style="fill:#455a64"></path><path d="M295.36,214.47c0,1.76,3.47,11,11.28,11.51s10.7-8.23,14.49-6.15,3.08,8.33,6.61,10.46,7.31-9.8,11.57-7.91,2.78,15,5.3,17.33V257.2l-49.25-28.44Z" style="fill:#fafafa;opacity:0.4"></path><path d="M344.27,240.08c-1.21-1.15-1.55-4.09-1.95-7.5-.49-4.11-1-8.77-3.21-9.74-1.83-.81-3.75,1.67-5.61,4.08s-3.92,5.07-6,3.8c-1.88-1.13-2.64-3.28-3.37-5.36s-1.45-4.12-3.22-5.09c-1.38-.76-2.62.21-4.69,2-2.31,2-5.18,4.48-9.59,4.21-7.89-.48-11.73-9.77-11.75-12h1c0,1.48,3.19,10.55,10.81,11,4,.23,6.71-2.09,8.88-4,2-1.74,3.76-3.25,5.82-2.12s2.91,3.43,3.69,5.64c.7,2,1.37,3.89,2.94,4.83,1.33.81,3-1.31,4.71-3.55,2-2.58,4.27-5.51,6.81-4.38,2.7,1.2,3.25,5.94,3.79,10.53.34,2.95.7,6,1.65,6.89Z" style="fill:#10393B"></path><path d="M299.21,175.19a3.57,3.57,0,0,1,1.62,2.81c0,1-.72,1.45-1.62.93a3.59,3.59,0,0,1-1.62-2.8C297.59,175.09,298.32,174.67,299.21,175.19Z" style="fill:#10393B"></path><path d="M302.07,178.35a2.55,2.55,0,0,0,1.2,2l11,6.38c.66.38,1.2.11,1.2-.6a2.57,2.57,0,0,0-1.2-2l-11-6.38C302.61,177.37,302.07,177.64,302.07,178.35Z" style="fill:#10393B"></path><path d="M299.21,183a3.55,3.55,0,0,1,1.62,2.8c0,1-.72,1.45-1.62.94a3.61,3.61,0,0,1-1.62-2.81C297.59,182.85,298.32,182.43,299.21,183Z" style="fill:#455a64"></path><path d="M302.07,186.11a2.57,2.57,0,0,0,1.2,2l11,6.38c.66.38,1.2.11,1.2-.6a2.57,2.57,0,0,0-1.2-2l-11-6.37C302.61,185.13,302.07,185.4,302.07,186.11Z" style="fill:#10393B"></path><path d="M391.19,222.3c3.92-2.73,2.6-5.2,1.34-9.83-8.53-31.54-9.87-33.3-13.6-34.89l-3,12.41,8,25.84a50.19,50.19,0,0,1-17.84,8.37,7.37,7.37,0,0,1-4-.42c-2.43-1.37-3.8-1.37-6.29-2v4.06a21,21,0,0,1-6.69-.22c-5.16-1-7.41.11-4.26,6,2,3.69,5.81,4.91,15.43,3.25a77.14,77.14,0,0,0,10.36-2.7A88.09,88.09,0,0,0,391.19,222.3Z" style="fill:#ffa8a7"></path><path d="M378.93,177.58s-3.67,2.3-4.45,8.08S380,206.58,380,206.58s6.66.16,10.39-4.26c0,0-4.67-15.55-5.63-18.81S380.35,178.09,378.93,177.58Z" style="fill:#10393B"></path><path d="M378.93,177.58s-3.67,2.3-4.45,8.08S380,206.58,380,206.58s6.66.16,10.39-4.26c0,0-4.67-15.55-5.63-18.81S380.35,178.09,378.93,177.58Z" style="opacity:0.2"></path><path d="M288.64,184.09v4.59s2.49,3.78,5.15,5.17,2.65,7-.67,7.76-7.89-3.31-8.27-5.57S285.3,183.85,288.64,184.09Z" style="fill:#ffa8a7"></path></g><g id="freepik--character-1--inject-16"><path d="M150.72,133.72l24.58-.64c.87-.74,5.77-6.59,5.77-6.59s13.46-1.72,13.54-1.23S181.37,140,180.05,141.43a4,4,0,0,1-3.14,1.54l-22.68,1.41Z" style="fill:#ffa8a7"></path><path d="M174.41,205.32l-.66-.38a4.24,4.24,0,0,1-1.91-3.31v-68a4.24,4.24,0,0,1,1.91-3.31l58.88-34a4.22,4.22,0,0,1,3.82,0l.66.38A4.24,4.24,0,0,1,239,100v68a4.26,4.26,0,0,1-1.91,3.31l-58.88,34A4.22,4.22,0,0,1,174.41,205.32Z" style="fill:#10393B"></path><path d="M174.41,205.32l-.66-.38a4.24,4.24,0,0,1-1.91-3.31v-68a4.24,4.24,0,0,1,1.91-3.31l58.88-34a4.22,4.22,0,0,1,3.82,0l.66.38A4.24,4.24,0,0,1,239,100v68a4.26,4.26,0,0,1-1.91,3.31l-58.88,34A4.22,4.22,0,0,1,174.41,205.32Z" style="fill:#fafafa;opacity:0.7000000000000001"></path><path d="M171.84,167.64v-34a4,4,0,0,1,.56-1.89l8.4,4.85v67.23l-2.57,1.48a4.22,4.22,0,0,1-3.82,0l-.66-.38a4.24,4.24,0,0,1-1.91-3.31Z" style="fill:#10393B"></path><path d="M171.84,167.64v-34a4,4,0,0,1,.56-1.89l8.4,4.85v67.23l-2.57,1.48a4.22,4.22,0,0,1-3.82,0l-.66-.38a4.24,4.24,0,0,1-1.91-3.31Z" style="fill:#fafafa;opacity:0.6000000000000001"></path><path d="M237.11,98.93l-58.88,34a4.24,4.24,0,0,0-1.91,3.31v68c0,1.21.86,1.71,1.91,1.1l58.88-34A4.26,4.26,0,0,0,239,168V100C239,98.82,238.16,98.32,237.11,98.93Z" style="fill:#10393B"></path><path d="M237.11,98.93l-58.88,34a4.24,4.24,0,0,0-1.91,3.31v68c0,1.21.86,1.71,1.91,1.1l58.88-34A4.26,4.26,0,0,0,239,168V100C239,98.82,238.16,98.32,237.11,98.93Z" style="fill:#fafafa;opacity:0.8"></path><path d="M197.2,163.29c0-7.71,4.69-16.66,10.47-20v-8.43c-5.2,3-9.78,8.56-13,15.83-5.84,13-4.73,26.44,2.48,30.06l4-8.85C198.71,170.71,197.2,167.67,197.2,163.29Z" style="fill:#10393B"></path><path d="M207.67,134.86v8.43c5.78-3.34,10.47.2,10.47,7.91s-4.69,16.67-10.47,20c-2.5,1.44-4.79,1.6-6.59.69l-4,8.85c3.17,1.59,6.49,1.25,10.57-1.11,9.27-5.35,16.79-19.72,16.79-32.09S216.94,129.5,207.67,134.86Z" style="fill:#455a64"></path><path d="M207.67,179.64c9.27-5.35,16.79-19.72,16.79-32.09l-6.32,3.73c0,7.69-4.71,16.6-10.47,19.93-2.5,1.44-4.79,1.6-6.59.69l-4,8.85C200.27,182.34,203.59,182,207.67,179.64Z" style="fill:#263238"></path><path d="M180.8,137.32a3.55,3.55,0,0,0-1.62,2.8c0,1,.72,1.45,1.62.94a3.61,3.61,0,0,0,1.62-2.81C182.42,137.22,181.69,136.8,180.8,137.32Z" style="fill:#10393B"></path><path d="M197.1,129.92a2.56,2.56,0,0,1-1.19,2l-11,6.38c-.66.38-1.19.11-1.19-.61a2.56,2.56,0,0,1,1.19-2l11-6.38C196.57,128.93,197.1,129.2,197.1,129.92Z" style="fill:#10393B"></path><path d="M199.66,126.38a3.58,3.58,0,0,0-1.62,2.8c0,1,.73,1.46,1.62.94a3.57,3.57,0,0,0,1.62-2.81C201.28,126.28,200.56,125.86,199.66,126.38Z" style="fill:#455a64"></path><path d="M216,119a2.56,2.56,0,0,1-1.19,2l-11.05,6.38c-.66.38-1.19.11-1.19-.61a2.56,2.56,0,0,1,1.19-2l11.05-6.38C215.43,118,216,118.26,216,119Z" style="fill:#10393B"></path><path d="M218.53,115.44a3.57,3.57,0,0,0-1.62,2.81c0,1,.72,1.45,1.62.93a3.6,3.6,0,0,0,1.62-2.81C220.15,115.34,219.42,114.92,218.53,115.44Z" style="fill:#37474f"></path><path d="M234.83,108a2.56,2.56,0,0,1-1.19,2l-11,6.38c-.66.38-1.2.11-1.2-.6a2.57,2.57,0,0,1,1.2-2l11-6.37C234.29,107.05,234.83,107.32,234.83,108Z" style="fill:#10393B"></path><path d="M160.05,131.7H142.54A17.5,17.5,0,0,1,125,114.2v-2.74A17.5,17.5,0,0,1,142.54,94h0a17.5,17.5,0,0,1,17.51,17.5Z" style="fill:#263238"></path><path d="M129,100.85l-4.24-2.27a2.34,2.34,0,0,1,3.21-1.06A2.52,2.52,0,0,1,129,100.85Z" style="fill:#263238"></path><path d="M129.24,101.33,124.73,103a2.33,2.33,0,0,1,1.32-3.11A2.53,2.53,0,0,1,129.24,101.33Z" style="fill:#263238"></path><path d="M195.17,114.76c-2,1.56-4.29,2.53-4.29,3.3,0,1.21,1.91,1.29,2.45,1l2.85-1.64a14.21,14.21,0,0,1,3.74,2c1.62,1.06,2.47,5.25,4.57,5.06s4-1.22,4.36-2.67c.4-1.89-.56-6.11-2.83-7.64C201,110.77,197.26,113.14,195.17,114.76Z" style="fill:#ffa8a7"></path><path d="M145.23,288.71a4.12,4.12,0,0,0,.62,2.42,30.58,30.58,0,0,0,4,5.24c2.14,2.3,5.34,5,7.63,7,1.27,1.11,1.32,2.79-.5,3.38a13.69,13.69,0,0,1-10-1.4c-2.28-1.22-5.52-6.87-7.42-7.73-2.17-1-3.4-1.47-4.13-2.48-1.1-1.5-1.39-2.62-.45-4.37,1-1.91,2.57-4.86,3.21-4.53l-.2.61c.5,1.56,4.75,3.37,6.92,2.94Z" style="fill:#263238"></path><path d="M147.15,281.19a50.25,50.25,0,0,0-1.91,7.55,3.88,3.88,0,0,0,.61,2.39,30.49,30.49,0,0,0,4,5.25c1,1.11,2.34,2.33,3.65,3.51a1,1,0,0,1,.19.56c0,1.19-2.9,1.51-4.6,1a10.75,10.75,0,0,1-5.25-4c-1-1.3-3.18-3.81-4.57-5.69a9.87,9.87,0,0,1-1.22-1.89,3.94,3.94,0,0,1-.18-2.7l.09-.28a30,30,0,0,0,1.38-7.21" style="fill:#ffa8a7"></path><path d="M127,291.31a39.81,39.81,0,0,1,.55,6.63v4.92h7.28v-8.38l.11-.05s.12-1.65.32-4.23" style="fill:#ffa8a7"></path><path d="M147.15,281.19c4-13,13-36.32,14.21-40.41,1.31-4.36-.27-42.44-1.33-54.65l-38-2c-2.89,12.37-.08,29.05.91,39.47,1,10.14,2.15,22,2.15,22s-3,10.33-2.18,18.56c.5,5.18,3,20.5,4.06,27.19a10.54,10.54,0,0,0,8.26-1.11c.46-5.87,1.34-16.58,2.17-23.57,1.26-10.51,1.68-18.18,2.75-24.31,1.36-7.66,1.83-37.66,1.83-37.66l4.37,34a42.67,42.67,0,0,0-3.91,10.12c-1.26,4.83-2.6,23-3.14,30.85C141.26,281,143.89,281.48,147.15,281.19Z" style="fill:#37474f"></path><path d="M142,204.66s6.94-2.44,10.89-6.06a19.45,19.45,0,0,1-8.14,7.11l-.06,19.93-2.69-21" style="fill:#263238"></path><path d="M136.49,134s-8.75.76-10,1.32c6.29,6.88-3.27,9.73-3.27,9.73l7.27,24.26c-4.12,5.27-7.66,9.42-8.64,15.71,4.41,7.78,29.23,8.87,38.33,3.06-.79-10.86-2.56-18.64-2-21.9,4.34-13.34,3-16.14,2.58-19.19-.79-5.95-6.7-11.14-10.08-13.31h-3.15Z" style="fill:#10393B"></path><polygon points="128.53 162.76 133.32 170.18 130.5 169.35 128.53 162.76" style="fill:#10393B"></polygon><polygon points="128.53 162.76 133.32 170.18 130.5 169.35 128.53 162.76" style="opacity:0.2"></polygon><path d="M134.85,299.26v-1a20.14,20.14,0,0,0,5.21,9.12c2.3,2.1,5.43,4.52,6.23,6.86s-3.7,3.4-6.68,3.1a12,12,0,0,1-7.48-3.92c-1.89-2.16-1.86-3.65-2.74-4.84s-2.91-2.53-3.39-3.91a8.79,8.79,0,0,1,.42-3.82c.33-1.29.7-2.71,1.14-2.59v.8a5.83,5.83,0,0,0,3.64,1.23C132.27,300.29,134.86,300.08,134.85,299.26Z" style="fill:#263238"></path><path d="M127.56,299a5.83,5.83,0,0,0,3.64,1.23c1.07,0,3.66-.17,3.65-1v-1a20.14,20.14,0,0,0,5.21,9.12c.55.51,1.15,1,1.75,1.56,1.22,1.36.88,2.55-2,2.8s-5.4-1.49-7.58-4.16S127.56,299,127.56,299Z" style="fill:#ffa8a7"></path><path d="M154.3,102.53c1.85,1.09,4.13,5.74,3.91,15.49-.2,8.26-2.87,10.31-4.22,10.89s-3.94.23-6.46-.19v5s3.49,4,3.27,6.33-5,2.81-8.3.59a26.52,26.52,0,0,1-6-6.56l.06-11.4s-1.48,1.44-4-.76c-2.08-1.81-2.78-4.88-1.16-6.52a3.62,3.62,0,0,1,5.76,1.15s1.4-3.9,7.21-5.79C149.61,109,152.46,107,154.3,102.53Z" style="fill:#ffa8a7"></path><path d="M149,115.94a1.05,1.05,0,0,1-1,1.13,1.06,1.06,0,0,1-1.1-1,1,1,0,1,1,2.08-.1Z" style="fill:#263238"></path><path d="M149.26,123l2.41.77a1.25,1.25,0,0,1-1.57.87A1.33,1.33,0,0,1,149.26,123Z" style="fill:#f28f8f"></path><path d="M157.5,112.75l-2.1-1.45a1.22,1.22,0,0,1,1.74-.36A1.34,1.34,0,0,1,157.5,112.75Z" style="fill:#263238"></path><path d="M146,113.52l2.11-1.45a1.24,1.24,0,0,0-1.75-.36A1.34,1.34,0,0,0,146,113.52Z" style="fill:#263238"></path><path d="M157,115.19a1,1,0,1,1-1.09-1A1.06,1.06,0,0,1,157,115.19Z" style="fill:#263238"></path><polygon points="152.11 114.6 152.28 120.85 155.57 119.83 152.11 114.6" style="fill:#f28f8f"></polygon><path d="M147.53,128.72c-2.66-.34-8.12-1.91-9-4.08a5.64,5.64,0,0,0,1.92,2.76c1.63,1.4,7.06,3,7.06,3Z" style="fill:#f28f8f"></path><path d="M132.24,139.21c2,2.89,14,27.23,14,27.23s13.78-1,20.9-1.8c2.24-.24,1.74-2.64,2.64-5s2.05-1.82,2.05-1.82v3c0,1.28,2.67,3.52,4.48,3.49,4.69-.09,9.41-4.74,9.6-.88.12,2.47-1,6.21-3.13,7.22-6.06,2.8-9.3,1.92-13.33,2.2-3.12.22-21,2.9-25.23,3.08-2.24.09-3.86-.35-5.81-3.08s-13.5-24.63-13.5-24.63c-4.45-6.33-1.9-11.65,1.41-12.78C128.39,134.74,130.28,136.31,132.24,139.21Z" style="fill:#ffa8a7"></path></g></svg>