<svg width="21" height="20" viewBox="0 0 21 20" fill="none" xmlns="http://www.w3.org/2000/svg">
<path d="M9.5 2C7.29086 2 5.5 3.79086 5.5 6C5.5 8.20914 7.29086 10 9.5 10C11.7091 10 13.5 8.20914 13.5 6C13.5 3.79086 11.7091 2 9.5 2ZM6.5 6C6.5 4.34315 7.84315 3 9.5 3C11.1569 3 12.5 4.34315 12.5 6C12.5 7.65685 11.1569 9 9.5 9C7.84315 9 6.5 7.65685 6.5 6ZM4.50873 11C3.40315 11 2.5 11.8869 2.5 13C2.5 14.6912 3.33281 15.9663 4.63499 16.7966C5.91697 17.614 7.64526 18 9.5 18C9.91085 18 10.3155 17.9811 10.7105 17.9427C10.473 17.6472 10.2654 17.3266 10.0923 16.9855C9.89798 16.9951 9.70041 17 9.5 17C7.76489 17 6.24318 16.636 5.17262 15.9534C4.12226 15.2837 3.5 14.3088 3.5 13C3.5 12.4467 3.94786 12 4.50873 12L10.0997 12C10.2826 11.6422 10.5035 11.3071 10.7572 11L4.50873 11ZM15 19C17.4853 19 19.5 16.9853 19.5 14.5C19.5 12.0147 17.4853 10 15 10C12.5147 10 10.5 12.0147 10.5 14.5C10.5 16.9853 12.5147 19 15 19ZM15 12C15.2761 12 15.5 12.2239 15.5 12.5V14H17C17.2761 14 17.5 14.2239 17.5 14.5C17.5 14.7761 17.2761 15 17 15H15.5V16.5C15.5 16.7761 15.2761 17 15 17C14.7239 17 14.5 16.7761 14.5 16.5V15H13C12.7239 15 12.5 14.7761 12.5 14.5C12.5 14.2239 12.7239 14 13 14H14.5V12.5C14.5 12.2239 14.7239 12 15 12Z" fill="white"/>
</svg>
