<svg width="168" height="69" viewBox="0 0 168 69" fill="none" xmlns="http://www.w3.org/2000/svg">
<path d="M21.968 64C21.296 64 20.744 63.796 20.312 63.388C19.904 62.956 19.7 62.428 19.7 61.804V40.996C19.7 40.372 19.904 39.856 20.312 39.448C20.744 39.016 21.272 38.8 21.896 38.8H33.596C34.22 38.8 34.736 39.004 35.144 39.412C35.576 39.796 35.792 40.3 35.792 40.924C35.792 41.452 35.576 41.92 35.144 42.328C34.736 42.736 34.22 42.94 33.596 42.94H23.876L24.2 42.508V49.744L23.948 49.276H31.976C32.6 49.276 33.116 49.48 33.524 49.888C33.956 50.272 34.172 50.776 34.172 51.4C34.172 51.928 33.956 52.396 33.524 52.804C33.116 53.212 32.6 53.416 31.976 53.416H23.876L24.2 53.092V61.804C24.2 62.428 23.972 62.956 23.516 63.388C23.084 63.796 22.568 64 21.968 64ZM43.6228 61.804C43.6228 62.428 43.4188 62.956 43.0108 63.388C42.6028 63.796 42.0868 64 41.4628 64C40.8388 64 40.3228 63.796 39.9148 63.388C39.5068 62.956 39.3028 62.428 39.3028 61.804V46.936C39.3028 46.312 39.5068 45.796 39.9148 45.388C40.3228 44.956 40.8388 44.74 41.4628 44.74C42.0868 44.74 42.6028 44.956 43.0108 45.388C43.4188 45.796 43.6228 46.312 43.6228 46.936V61.804ZM41.4268 42.4C40.6108 42.4 40.0348 42.268 39.6988 42.004C39.3628 41.74 39.1948 41.272 39.1948 40.6V39.916C39.1948 39.22 39.3748 38.752 39.7348 38.512C40.1188 38.248 40.6948 38.116 41.4628 38.116C42.3028 38.116 42.8908 38.248 43.2268 38.512C43.5628 38.776 43.7308 39.244 43.7308 39.916V40.6C43.7308 41.296 43.5508 41.776 43.1908 42.04C42.8308 42.28 42.2428 42.4 41.4268 42.4ZM58.3587 44.38C60.1347 44.38 61.4787 44.752 62.3907 45.496C63.3267 46.24 63.9627 47.236 64.2987 48.484C64.6587 49.708 64.8387 51.076 64.8387 52.588V61.804C64.8387 62.428 64.6347 62.956 64.2267 63.388C63.8187 63.796 63.3027 64 62.6787 64C62.0547 64 61.5387 63.796 61.1307 63.388C60.7227 62.956 60.5187 62.428 60.5187 61.804V52.588C60.5187 51.796 60.4107 51.088 60.1947 50.464C60.0027 49.816 59.6427 49.3 59.1147 48.916C58.5867 48.532 57.8307 48.34 56.8467 48.34C55.8867 48.34 55.0707 48.532 54.3987 48.916C53.7507 49.3 53.2467 49.816 52.8867 50.464C52.5507 51.088 52.3827 51.796 52.3827 52.588V61.804C52.3827 62.428 52.1787 62.956 51.7707 63.388C51.3627 63.796 50.8467 64 50.2227 64C49.5987 64 49.0827 63.796 48.6747 63.388C48.2667 62.956 48.0627 62.428 48.0627 61.804V46.936C48.0627 46.312 48.2667 45.796 48.6747 45.388C49.0827 44.956 49.5987 44.74 50.2227 44.74C50.8467 44.74 51.3627 44.956 51.7707 45.388C52.1787 45.796 52.3827 46.312 52.3827 46.936V48.484L51.8427 48.376C52.0587 47.968 52.3707 47.536 52.7787 47.08C53.1867 46.6 53.6667 46.156 54.2187 45.748C54.7707 45.34 55.3947 45.016 56.0907 44.776C56.7867 44.512 57.5427 44.38 58.3587 44.38ZM85.276 44.38C85.9 44.38 86.416 44.584 86.824 44.992C87.232 45.4 87.436 45.928 87.436 46.576V61.804C87.436 62.428 87.232 62.956 86.824 63.388C86.416 63.796 85.9 64 85.276 64C84.652 64 84.136 63.796 83.728 63.388C83.32 62.956 83.116 62.428 83.116 61.804V60.04L83.908 60.364C83.908 60.676 83.74 61.06 83.404 61.516C83.068 61.948 82.612 62.38 82.036 62.812C81.46 63.244 80.776 63.616 79.984 63.928C79.216 64.216 78.376 64.36 77.464 64.36C75.808 64.36 74.308 63.94 72.964 63.1C71.62 62.236 70.552 61.06 69.76 59.572C68.992 58.06 68.608 56.332 68.608 54.388C68.608 52.42 68.992 50.692 69.76 49.204C70.552 47.692 71.608 46.516 72.928 45.676C74.248 44.812 75.712 44.38 77.32 44.38C78.352 44.38 79.3 44.536 80.164 44.848C81.028 45.16 81.772 45.556 82.396 46.036C83.044 46.516 83.536 47.008 83.872 47.512C84.232 47.992 84.412 48.4 84.412 48.736L83.116 49.204V46.576C83.116 45.952 83.32 45.436 83.728 45.028C84.136 44.596 84.652 44.38 85.276 44.38ZM78.004 60.4C79.06 60.4 79.984 60.136 80.776 59.608C81.568 59.08 82.18 58.36 82.612 57.448C83.068 56.536 83.296 55.516 83.296 54.388C83.296 53.236 83.068 52.204 82.612 51.292C82.18 50.38 81.568 49.66 80.776 49.132C79.984 48.604 79.06 48.34 78.004 48.34C76.972 48.34 76.06 48.604 75.268 49.132C74.476 49.66 73.852 50.38 73.396 51.292C72.964 52.204 72.748 53.236 72.748 54.388C72.748 55.516 72.964 56.536 73.396 57.448C73.852 58.36 74.476 59.08 75.268 59.608C76.06 60.136 76.972 60.4 78.004 60.4ZM102.409 44.38C104.185 44.38 105.529 44.752 106.441 45.496C107.377 46.24 108.013 47.236 108.349 48.484C108.709 49.708 108.889 51.076 108.889 52.588V61.804C108.889 62.428 108.685 62.956 108.277 63.388C107.869 63.796 107.353 64 106.729 64C106.105 64 105.589 63.796 105.181 63.388C104.773 62.956 104.569 62.428 104.569 61.804V52.588C104.569 51.796 104.461 51.088 104.245 50.464C104.053 49.816 103.693 49.3 103.165 48.916C102.637 48.532 101.881 48.34 100.897 48.34C99.9374 48.34 99.1214 48.532 98.4494 48.916C97.8014 49.3 97.2974 49.816 96.9374 50.464C96.6014 51.088 96.4334 51.796 96.4334 52.588V61.804C96.4334 62.428 96.2294 62.956 95.8214 63.388C95.4134 63.796 94.8974 64 94.2734 64C93.6494 64 93.1334 63.796 92.7254 63.388C92.3174 62.956 92.1134 62.428 92.1134 61.804V46.936C92.1134 46.312 92.3174 45.796 92.7254 45.388C93.1334 44.956 93.6494 44.74 94.2734 44.74C94.8974 44.74 95.4134 44.956 95.8214 45.388C96.2294 45.796 96.4334 46.312 96.4334 46.936V48.484L95.8934 48.376C96.1094 47.968 96.4214 47.536 96.8294 47.08C97.2374 46.6 97.7174 46.156 98.2694 45.748C98.8214 45.34 99.4454 45.016 100.141 44.776C100.837 44.512 101.593 44.38 102.409 44.38ZM122.127 44.38C123.495 44.38 124.683 44.524 125.691 44.812C126.723 45.1 127.515 45.508 128.067 46.036C128.643 46.54 128.931 47.152 128.931 47.872C128.931 48.352 128.787 48.808 128.499 49.24C128.211 49.648 127.791 49.852 127.239 49.852C126.855 49.852 126.531 49.804 126.267 49.708C126.027 49.588 125.811 49.444 125.619 49.276C125.427 49.108 125.199 48.952 124.935 48.808C124.695 48.664 124.323 48.556 123.819 48.484C123.339 48.388 122.979 48.34 122.739 48.34C121.515 48.34 120.471 48.604 119.607 49.132C118.767 49.66 118.119 50.38 117.663 51.292C117.207 52.18 116.979 53.212 116.979 54.388C116.979 55.54 117.207 56.572 117.663 57.484C118.143 58.372 118.791 59.08 119.607 59.608C120.447 60.136 121.407 60.4 122.487 60.4C123.087 60.4 123.603 60.364 124.035 60.292C124.467 60.22 124.827 60.112 125.115 59.968C125.451 59.776 125.751 59.572 126.015 59.356C126.279 59.14 126.675 59.032 127.203 59.032C127.827 59.032 128.307 59.236 128.643 59.644C128.979 60.028 129.147 60.508 129.147 61.084C129.147 61.684 128.811 62.236 128.139 62.74C127.467 63.22 126.579 63.616 125.475 63.928C124.395 64.216 123.219 64.36 121.947 64.36C120.051 64.36 118.407 63.928 117.015 63.064C115.623 62.176 114.543 60.976 113.775 59.464C113.031 57.952 112.659 56.26 112.659 54.388C112.659 52.42 113.055 50.692 113.847 49.204C114.663 47.692 115.779 46.516 117.195 45.676C118.635 44.812 120.279 44.38 122.127 44.38ZM141.334 64.36C139.294 64.36 137.518 63.94 136.006 63.1C134.518 62.236 133.366 61.072 132.55 59.608C131.758 58.144 131.362 56.488 131.362 54.64C131.362 52.48 131.794 50.644 132.658 49.132C133.546 47.596 134.698 46.42 136.114 45.604C137.53 44.788 139.03 44.38 140.614 44.38C141.838 44.38 142.99 44.632 144.07 45.136C145.174 45.64 146.146 46.336 146.986 47.224C147.826 48.088 148.486 49.096 148.966 50.248C149.47 51.4 149.722 52.624 149.722 53.92C149.698 54.496 149.47 54.964 149.038 55.324C148.606 55.684 148.102 55.864 147.526 55.864H133.774L132.694 52.264H145.906L145.114 52.984V52.012C145.066 51.316 144.814 50.692 144.358 50.14C143.926 49.588 143.374 49.156 142.702 48.844C142.054 48.508 141.358 48.34 140.614 48.34C139.894 48.34 139.222 48.436 138.598 48.628C137.974 48.82 137.434 49.144 136.978 49.6C136.522 50.056 136.162 50.668 135.898 51.436C135.634 52.204 135.502 53.176 135.502 54.352C135.502 55.648 135.766 56.752 136.294 57.664C136.846 58.552 137.542 59.236 138.382 59.716C139.246 60.172 140.158 60.4 141.118 60.4C142.006 60.4 142.714 60.328 143.242 60.184C143.77 60.04 144.19 59.872 144.502 59.68C144.838 59.464 145.138 59.284 145.402 59.14C145.834 58.924 146.242 58.816 146.626 58.816C147.154 58.816 147.586 58.996 147.922 59.356C148.282 59.716 148.462 60.136 148.462 60.616C148.462 61.264 148.126 61.852 147.454 62.38C146.83 62.908 145.954 63.376 144.826 63.784C143.698 64.168 142.534 64.36 141.334 64.36ZM152.38 61.012C152.14 60.676 152.032 60.244 152.056 59.716C152.08 59.188 152.392 58.732 152.992 58.348C153.376 58.108 153.784 58.012 154.216 58.06C154.648 58.084 155.068 58.3 155.476 58.708C156.172 59.404 156.904 59.944 157.672 60.328C158.44 60.712 159.4 60.904 160.552 60.904C160.912 60.88 161.308 60.832 161.74 60.76C162.172 60.664 162.544 60.472 162.856 60.184C163.192 59.872 163.36 59.404 163.36 58.78C163.36 58.252 163.18 57.832 162.82 57.52C162.46 57.208 161.98 56.944 161.38 56.728C160.804 56.512 160.156 56.308 159.436 56.116C158.692 55.9 157.924 55.66 157.132 55.396C156.364 55.132 155.656 54.796 155.008 54.388C154.36 53.956 153.832 53.392 153.424 52.696C153.016 52 152.812 51.124 152.812 50.068C152.812 48.868 153.148 47.848 153.82 47.008C154.492 46.168 155.356 45.52 156.412 45.064C157.492 44.608 158.62 44.38 159.796 44.38C160.54 44.38 161.32 44.476 162.136 44.668C162.952 44.836 163.732 45.124 164.476 45.532C165.22 45.916 165.844 46.432 166.348 47.08C166.612 47.44 166.768 47.872 166.816 48.376C166.864 48.88 166.636 49.336 166.132 49.744C165.772 50.032 165.352 50.164 164.872 50.14C164.392 50.092 163.996 49.924 163.684 49.636C163.276 49.108 162.724 48.688 162.028 48.376C161.356 48.064 160.576 47.908 159.688 47.908C159.328 47.908 158.932 47.956 158.5 48.052C158.092 48.124 157.732 48.304 157.42 48.592C157.108 48.856 156.952 49.288 156.952 49.888C156.952 50.44 157.132 50.884 157.492 51.22C157.852 51.532 158.332 51.796 158.932 52.012C159.556 52.204 160.216 52.396 160.912 52.588C161.632 52.78 162.364 53.008 163.108 53.272C163.852 53.536 164.536 53.884 165.16 54.316C165.784 54.748 166.288 55.312 166.672 56.008C167.056 56.68 167.248 57.544 167.248 58.6C167.248 59.824 166.888 60.868 166.168 61.732C165.448 62.596 164.548 63.256 163.468 63.712C162.388 64.144 161.284 64.36 160.156 64.36C158.74 64.36 157.324 64.12 155.908 63.64C154.492 63.136 153.316 62.26 152.38 61.012Z" fill="#10393B"/>
<circle cx="9.5" cy="30.5" r="2" fill="#22A447" stroke="#22A447"/>
<path d="M8.674 61.83C9.634 61.77 10.486 61.578 11.23 61.254C11.974 60.918 12.604 60.486 13.12 59.958C13.636 59.418 14.026 58.8 14.29 58.104C14.554 57.396 14.686 56.64 14.686 55.836C14.686 55.044 14.536 54.372 14.236 53.82C13.936 53.268 13.534 52.8 13.03 52.416C12.526 52.032 11.944 51.714 11.284 51.462C10.636 51.198 9.952 50.952 9.232 50.724L8.674 61.83ZM8.674 38.754C7.762 38.802 6.964 38.97 6.28 39.258C5.608 39.534 5.044 39.9 4.588 40.356C4.132 40.8 3.79 41.31 3.562 41.886C3.334 42.462 3.22 43.068 3.22 43.704C3.22 44.448 3.352 45.084 3.616 45.612C3.88 46.14 4.24 46.596 4.696 46.98C5.152 47.352 5.674 47.676 6.262 47.952C6.862 48.216 7.498 48.462 8.17 48.69L8.674 38.754ZM9.304 49.05C10.156 49.326 11.002 49.62 11.842 49.932C12.682 50.232 13.432 50.622 14.092 51.102C14.752 51.582 15.286 52.176 15.694 52.884C16.102 53.592 16.306 54.486 16.306 55.566C16.306 56.598 16.132 57.57 15.784 58.482C15.448 59.394 14.95 60.198 14.29 60.894C13.63 61.578 12.82 62.13 11.86 62.55C10.912 62.97 9.826 63.21 8.602 63.27L8.404 67.068C8.392 67.224 8.338 67.356 8.242 67.464C8.158 67.572 8.032 67.626 7.864 67.626H7.216L7.432 63.27C5.896 63.198 4.558 62.868 3.418 62.28C2.29 61.692 1.294 60.918 0.43 59.958L0.916 59.256C1.06 59.076 1.228 58.986 1.42 58.986C1.528 58.986 1.66 59.052 1.816 59.184C1.972 59.316 2.164 59.484 2.392 59.688C2.62 59.88 2.89 60.096 3.202 60.336C3.514 60.564 3.874 60.786 4.282 61.002C4.702 61.206 5.176 61.386 5.704 61.542C6.232 61.698 6.832 61.794 7.504 61.83L8.098 50.364C7.282 50.112 6.484 49.836 5.704 49.536C4.924 49.224 4.228 48.828 3.616 48.348C3.016 47.856 2.53 47.256 2.158 46.548C1.786 45.828 1.6 44.928 1.6 43.848C1.6 43.008 1.756 42.204 2.068 41.436C2.392 40.656 2.854 39.966 3.454 39.366C4.066 38.754 4.816 38.262 5.704 37.89C6.592 37.518 7.612 37.314 8.764 37.278L8.908 34.272C8.908 34.104 8.956 33.966 9.052 33.858C9.148 33.75 9.274 33.696 9.43 33.696H10.078L9.898 37.314C11.11 37.398 12.172 37.668 13.084 38.124C13.996 38.568 14.83 39.168 15.586 39.924L15.19 40.536C15.07 40.74 14.908 40.842 14.704 40.842C14.56 40.842 14.368 40.746 14.128 40.554C13.9 40.35 13.594 40.128 13.21 39.888C12.838 39.636 12.376 39.402 11.824 39.186C11.272 38.958 10.606 38.814 9.826 38.754L9.304 49.05Z" fill="#10393B"/>
</svg>
